SplineFontDB: 3.2
FontName: Entity-LightOblique
FullName: Entity Light Oblique
FamilyName: Entity
Weight: Light
Copyright: Based on Geist Copyright 2024 The Geist Project Authors https:github.comvercelgeist-font.git
Version: 0.1
ItalicAngle: -10
UnderlinePosition: -125
UnderlineWidth: 50
Ascent: 800
Descent: 200
InvalidEm: 0
sfntRevision: 0x0000199a
LayerCount: 2
Layer: 0 0 "Back" 1
Layer: 1 0 "Fore" 0
XUID: [1021 1008 -1557834819 9476023]
StyleMap: 0x0040
FSType: 0
OS2Version: 4
OS2_WeightWidthSlopeOnly: 0
OS2_UseTypoMetrics: 1
CreationTime: 1728311655
ModificationTime: 1746816134
PfmFamily: 81
TTFWeight: 300
TTFWidth: 5
LineGap: 0
VLineGap: 0
Panose: 0 0 0 0 0 0 0 0 0 0
OS2TypoAscent: 1005
OS2TypoAOffset: 0
OS2TypoDescent: -295
OS2TypoDOffset: 0
OS2TypoLinegap: 0
OS2WinAscent: 1012
OS2WinAOffset: 0
OS2WinDescent: 262
OS2WinDOffset: 0
HheadAscent: 1005
HheadAOffset: 0
HheadDescent: -295
HheadDOffset: 0
OS2SubXSize: 650
OS2SubYSize: 600
OS2SubXOff: 0
OS2SubYOff: 75
OS2SupXSize: 650
OS2SupYSize: 600
OS2SupXOff: 0
OS2SupYOff: 350
OS2StrikeYSize: 50
OS2StrikeYPos: 318
OS2CapHeight: 710
OS2XHeight: 530
OS2Vendor: 'VRCL'
OS2CodePages: 20000097.00000000
OS2UnicodeRanges: a10002ff.5001e5fb.00000000.00000000
Lookup: 1 0 0 "'aalt' Access All Alternates in Latin lookup 0" { "'aalt' Access All Alternates in Latin lookup 0 subtable"  } ['aalt' ('DFLT' <'dflt' > 'latn' <'AZE ' 'CAT ' 'CRT ' 'KAZ ' 'MAH ' 'MOL ' 'NLD ' 'ROM ' 'TAT ' 'TRK ' 'dflt' > ) ]
Lookup: 3 0 0 "'aalt' Access All Alternates in Latin lookup 1" { "'aalt' Access All Alternates in Latin lookup 1 subtable"  } ['aalt' ('DFLT' <'dflt' > 'latn' <'AZE ' 'CAT ' 'CRT ' 'KAZ ' 'MAH ' 'MOL ' 'NLD ' 'ROM ' 'TAT ' 'TRK ' 'dflt' > ) ]

StartChar: .notdef
Encoding: 65536 -1 0
Width: 602
GlyphClass: 1
Flags: HMW
HStem: 0 36<95 510 95 565> 674 36<95 95 95 510>
VStem: 40 33<64 646 64 710> 532 33<64 646 646 646>
LayerCount: 2
Fore
SplineSet
-22.595703125 0 m 1
 102.595703125 710 l 1
 627.595703125 710 l 1
 502.404296875 0 l 1
 -22.595703125 0 l 1
151.248046875 674 m 1
 308.11328125 384 l 1
 566.248046875 674 l 1
 151.248046875 674 l 1
124.311523438 646 m 1
 21.6884765625 64 l 1
 282 355 l 1
 124.311523438 646 l 1
323 355 m 1
 480.688476562 64 l 1
 583.311523438 646 l 1
 323 355 l 1
38.751953125 36 m 1
 453.751953125 36 l 1
 297.88671875 326 l 1
 38.751953125 36 l 1
EndSplineSet
Validated: 524289
EndChar

StartChar: A
Encoding: 65 65 1
Width: 649
GlyphClass: 2
Flags: HMW
HStem: 0 21G<21 21 21 95 554 554 554 628> 213 66<194 455 194 478 171 455> 649 61<325 325>
VStem: 21 607<0 0>
AnchorPoint: "Anchor-3" 387.596 710 basechar 0
AnchorPoint: "Anchor-2" 565.404 0 basechar 0
AnchorPoint: "Anchor-0" 262.404 0 basechar 0
LayerCount: 2
Fore
SplineSet
-41.595703125 0 m 1
 342.595703125 710 l 1
 432.595703125 710 l 1
 565.404296875 0 l 1
 491.404296875 0 l 1
 452.961914062 213 l 1
 145.961914062 213 l 1
 32.404296875 0 l 1
 -41.595703125 0 l 1
180.599609375 279 m 1
 441.599609375 279 l 1
 376.83984375 649 l 1
 180.599609375 279 l 1
EndSplineSet
Validated: 524289
Substitution2: "Single Substitution lookup 27 subtable" ordfeminine
Substitution2: "'aalt' Access All Alternates in Latin lookup 0 subtable" ordfeminine
EndChar

StartChar: Aacute
Encoding: 193 193 2
Width: 649
GlyphClass: 2
Flags: HMW
HStem: 0 21G<21 21 21 95 554 554 554 628> 213 66<194 455 194 478 171 455> 649 61<325 325> 782 124<295 437 295 437>
VStem: 21 607<0 0>
AnchorPoint: "Anchor-3" 370.316 710 basechar 0
AnchorPoint: "Anchor-2" 548.124 0 basechar 0
AnchorPoint: "Anchor-0" 245.124 0 basechar 0
LayerCount: 2
Fore
SplineSet
353.01171875 782 m 1
 442.875976562 906 l 1
 516.875976562 906 l 1
 409.01171875 782 l 1
 353.01171875 782 l 1
-58.8759765625 0 m 1
 325.31640625 710 l 1
 415.31640625 710 l 1
 548.124023438 0 l 1
 474.124023438 0 l 1
 435.681640625 213 l 1
 128.681640625 213 l 1
 15.1240234375 0 l 1
 -58.8759765625 0 l 1
163.319335938 279 m 1
 424.319335938 279 l 1
 359.560546875 649 l 1
 163.319335938 279 l 1
EndSplineSet
Validated: 524289
EndChar

StartChar: Abreve
Encoding: 258 258 3
Width: 649
GlyphClass: 2
Flags: HMW
HStem: 0 21G<21 21 21 95 554 554 554 628> 213 66<194 455 194 478 171 455> 649 61<325 325> 788 51<301 349 301 364>
VStem: 21 607<0 0>
AnchorPoint: "Anchor-3" 369.787 710 basechar 0
AnchorPoint: "Anchor-2" 547.595 0 basechar 0
AnchorPoint: "Anchor-0" 244.595 0 basechar 0
LayerCount: 2
Fore
SplineSet
383.541015625 788 m 0
 305.541015625 788 263.180664062 837 270.405273438 912 c 1
 317.405273438 912 l 1
 315.588867188 862 344.533203125 839 392.533203125 839 c 0
 440.533203125 839 476.588867188 862 491.405273438 912 c 1
 539.405273438 912 l 1
 520.180664062 837 461.541015625 788 383.541015625 788 c 0
-59.4052734375 0 m 1
 324.787109375 710 l 1
 414.787109375 710 l 1
 547.594726562 0 l 1
 473.594726562 0 l 1
 435.15234375 213 l 1
 128.15234375 213 l 1
 14.5947265625 0 l 1
 -59.4052734375 0 l 1
162.790039062 279 m 1
 423.790039062 279 l 1
 359.03125 649 l 1
 162.790039062 279 l 1
EndSplineSet
Validated: 524321
EndChar

StartChar: uni01CD
Encoding: 461 461 4
Width: 649
GlyphClass: 2
Flags: HMW
HStem: 0 21G<21 21 21 95 554 554 554 628> 213 66<194 455 194 478 171 455> 649 61<325 325> 782 130<200 360 200 290>
VStem: 21 607<0 0>
AnchorPoint: "Anchor-3" 369.787 710 basechar 0
AnchorPoint: "Anchor-2" 547.595 0 basechar 0
AnchorPoint: "Anchor-0" 244.595 0 basechar 0
LayerCount: 2
Fore
SplineSet
280.405273438 912 m 1
 336.405273438 912 l 1
 389.006835938 819 l 1
 473.405273438 912 l 1
 529.405273438 912 l 1
 417.482421875 782 l 1
 347.482421875 782 l 1
 280.405273438 912 l 1
-59.4052734375 0 m 1
 324.787109375 710 l 1
 414.787109375 710 l 1
 547.594726562 0 l 1
 473.594726562 0 l 1
 435.15234375 213 l 1
 128.15234375 213 l 1
 14.5947265625 0 l 1
 -59.4052734375 0 l 1
162.790039062 279 m 1
 423.790039062 279 l 1
 359.03125 649 l 1
 162.790039062 279 l 1
EndSplineSet
Validated: 524289
EndChar

StartChar: Acircumflex
Encoding: 194 194 5
Width: 649
GlyphClass: 2
Flags: HMW
HStem: 0 21G<21 21 21 95 554 554 554 628> 213 66<194 455 194 478 171 455> 649 61<325 325> 782 130<201 360 201 360 290 393 290 449>
VStem: 21 607<0 0>
AnchorPoint: "Anchor-3" 369.787 710 basechar 0
AnchorPoint: "Anchor-2" 547.595 0 basechar 0
AnchorPoint: "Anchor-0" 244.595 0 basechar 0
LayerCount: 2
Fore
SplineSet
258.482421875 782 m 1
 370.405273438 912 l 1
 440.405273438 912 l 1
 506.482421875 782 l 1
 450.482421875 782 l 1
 398.880859375 875 l 1
 314.482421875 782 l 1
 258.482421875 782 l 1
-59.4052734375 0 m 1
 324.787109375 710 l 1
 414.787109375 710 l 1
 547.594726562 0 l 1
 473.594726562 0 l 1
 435.15234375 213 l 1
 128.15234375 213 l 1
 14.5947265625 0 l 1
 -59.4052734375 0 l 1
162.790039062 279 m 1
 423.790039062 279 l 1
 359.03125 649 l 1
 162.790039062 279 l 1
EndSplineSet
Validated: 524289
EndChar

StartChar: Adieresis
Encoding: 196 196 6
Width: 649
GlyphClass: 2
Flags: HMW
HStem: 0 21G<21 21 21 95 554 554 554 628> 213 66<194 455 194 478 171 455> 649 61<325 325> 798 89<210 280 210 280 369 439>
VStem: 210 70<798 887> 369 70<798 887 798 887>
AnchorPoint: "Anchor-3" 371.991 710 basechar 0
AnchorPoint: "Anchor-2" 549.799 0 basechar 0
AnchorPoint: "Anchor-0" 246.799 0 basechar 0
LayerCount: 2
Fore
SplineSet
272.5078125 798 m 1
 288.201171875 887 l 1
 358.201171875 887 l 1
 342.5078125 798 l 1
 272.5078125 798 l 1
431.5078125 798 m 1
 447.201171875 887 l 1
 517.201171875 887 l 1
 501.5078125 798 l 1
 431.5078125 798 l 1
-57.201171875 0 m 1
 326.991210938 710 l 1
 416.991210938 710 l 1
 549.798828125 0 l 1
 475.798828125 0 l 1
 437.356445312 213 l 1
 130.356445312 213 l 1
 16.798828125 0 l 1
 -57.201171875 0 l 1
164.994140625 279 m 1
 425.994140625 279 l 1
 361.235351562 649 l 1
 164.994140625 279 l 1
EndSplineSet
Validated: 524289
Substitution2: "'ss08' Style Set 8 in Latin lookup 41 subtable" Adieresis.ss08
Substitution2: "'aalt' Access All Alternates in Latin lookup 0 subtable" Adieresis.ss08
EndChar

StartChar: Agrave
Encoding: 192 192 7
Width: 649
GlyphClass: 2
Flags: HMW
HStem: 0 21G<21 21 21 95 554 554 554 628> 213 66<194 455 194 478 171 455> 649 61<325 325> 788 124<213 300 213 355>
VStem: 21 607<0 0>
AnchorPoint: "Anchor-3" 369.787 710 basechar 0
AnchorPoint: "Anchor-2" 547.595 0 basechar 0
AnchorPoint: "Anchor-0" 244.595 0 basechar 0
LayerCount: 2
Fore
SplineSet
358.541015625 788 m 1
 293.405273438 912 l 1
 367.405273438 912 l 1
 413.541015625 788 l 1
 358.541015625 788 l 1
-59.4052734375 0 m 1
 324.787109375 710 l 1
 414.787109375 710 l 1
 547.594726562 0 l 1
 473.594726562 0 l 1
 435.15234375 213 l 1
 128.15234375 213 l 1
 14.5947265625 0 l 1
 -59.4052734375 0 l 1
162.790039062 279 m 1
 423.790039062 279 l 1
 359.03125 649 l 1
 162.790039062 279 l 1
EndSplineSet
Validated: 524289
EndChar

StartChar: Amacron
Encoding: 256 256 8
Width: 649
GlyphClass: 2
Flags: HMW
HStem: 0 21G<21 21 21 95 554 554 554 628> 213 66<194 455 194 478 171 455> 649 61<325 325> 811 58<194 455 194 455>
VStem: 21 607<0 0> 194 261<279 279 811 869>
AnchorPoint: "Anchor-3" 373.578 710 basechar 0
AnchorPoint: "Anchor-2" 551.386 0 basechar 0
AnchorPoint: "Anchor-0" 248.386 0 basechar 0
LayerCount: 2
Fore
SplineSet
260.38671875 811 m 1xf4
 270.614257812 869 l 1
 531.614257812 869 l 1
 521.38671875 811 l 1
 260.38671875 811 l 1xf4
-55.6142578125 0 m 1
 328.578125 710 l 1
 418.578125 710 l 1
 551.385742188 0 l 1
 477.385742188 0 l 1
 438.943359375 213 l 1
 131.943359375 213 l 1
 18.3857421875 0 l 1xf8
 -55.6142578125 0 l 1
166.581054688 279 m 1
 427.581054688 279 l 1
 362.822265625 649 l 1
 166.581054688 279 l 1
EndSplineSet
Validated: 524289
EndChar

StartChar: Aogonek
Encoding: 260 260 9
Width: 649
GlyphClass: 2
Flags: HMW
HStem: -204 54<587.5 603> 0 21G<21 21 21 95 554 554 554 573 628 628> 213 66<194 455 194 478 171 455> 649 61<325 325>
VStem: 502 62<-131 -119>
AnchorPoint: "Anchor-3" 405.581 710 basechar 0
AnchorPoint: "Anchor-2" 583.39 0 basechar 0
AnchorPoint: "Anchor-0" 280.39 0 basechar 0
LayerCount: 2
Fore
SplineSet
-23.6103515625 0 m 1
 360.581054688 710 l 1
 450.581054688 710 l 1
 583.389648438 0 l 1
 543.454101562 -45 l 2
 514.458984375 -79 501.932617188 -99 498.053710938 -121 c 0
 494.52734375 -141 506.940429688 -150 525.940429688 -150 c 0
 544.940429688 -150 561.822265625 -145 576.409179688 -136 c 1
 589.650390625 -180 l 1
 571.181640625 -194 538.418945312 -204 506.418945312 -204 c 0
 456.418945312 -204 425.12109375 -183 433.232421875 -137 c 0
 439.580078125 -101 473.633789062 -61 507.333984375 -23 c 2
 528.389648438 0 l 1
 509.389648438 0 l 1
 470.947265625 213 l 1
 163.947265625 213 l 1
 50.3896484375 0 l 1
 -23.6103515625 0 l 1
198.584960938 279 m 1
 459.584960938 279 l 1
 394.825195312 649 l 1
 198.584960938 279 l 1
EndSplineSet
Validated: 524321
EndChar

StartChar: Aring
Encoding: 197 197 10
Width: 650
GlyphClass: 2
Flags: HMW
HStem: 0 21G<21 21 21 94 554 554 554 627> 213 66<193 455 193 478 170 455> 649 61<324 324> 761 42<309.5 334.5 309.5 346.5> 889 42<309.5 334.5>
VStem: 237 42<833.5 859> 365 42<833.5 859>
AnchorPoint: "Anchor-3" 367.112 710 basechar 0
AnchorPoint: "Anchor-2" 544.92 0 basechar 0
AnchorPoint: "Anchor-0" 241.92 0 basechar 0
LayerCount: 2
Fore
SplineSet
374.104492188 761 m 0
 325.104492188 761 295.62890625 798 304.092773438 846 c 0
 312.732421875 895 355.080078125 931 404.080078125 931 c 0
 452.080078125 931 482.732421875 895 474.092773438 846 c 0
 465.62890625 798 423.104492188 761 374.104492188 761 c 0
381.510742188 803 m 0
 406.510742188 803 427.684570312 821 432.092773438 846 c 0
 436.676757812 872 421.674804688 889 396.674804688 889 c 0
 371.674804688 889 350.676757812 872 346.092773438 846 c 0
 341.684570312 821 356.510742188 803 381.510742188 803 c 0
-61.080078125 0 m 1
 322.112304688 710 l 1
 412.112304688 710 l 1
 544.919921875 0 l 1
 471.919921875 0 l 1
 433.477539062 213 l 1
 125.477539062 213 l 1
 11.919921875 0 l 1
 -61.080078125 0 l 1
160.115234375 279 m 1
 422.115234375 279 l 1
 356.356445312 649 l 1
 160.115234375 279 l 1
EndSplineSet
Validated: 524321
EndChar

StartChar: Atilde
Encoding: 195 195 11
Width: 650
GlyphClass: 2
Flags: HMW
HStem: 0 21G<21 21 21 94 554 554 554 627> 213 66<193 455 193 478 170 455> 649 61<324 324> 797 45<368 389 368 400> 853 45<240 263.5>
VStem: 164 44<790 790> 419 43<908 908>
AnchorPoint: "Anchor-3" 369.14 710 basechar 0
AnchorPoint: "Anchor-2" 546.947 0 basechar 0
AnchorPoint: "Anchor-0" 243.947 0 basechar 0
LayerCount: 2
Fore
SplineSet
434.48046875 797 m 0
 407.48046875 797 389.243164062 807 371.59375 826 c 0
 353.944335938 845 344.354492188 853 323.354492188 853 c 0
 297.354492188 853 277.533203125 837 267.24609375 790 c 1
 223.24609375 790 l 1
 238.588867188 860 281.2890625 898 331.2890625 898 c 0xee
 363.2890625 898 382.172851562 886 400.646484375 866 c 0
 417.649414062 849 428.415039062 842 444.415039062 842 c 0
 470.415039062 842 486.236328125 858 499.052734375 908 c 1
 542.052734375 908 l 1
 525.709960938 838 486.48046875 797 434.48046875 797 c 0
-59.052734375 0 m 1
 324.139648438 710 l 1
 414.139648438 710 l 1
 546.947265625 0 l 1
 473.947265625 0 l 1
 435.504882812 213 l 1
 127.504882812 213 l 1
 13.947265625 0 l 1
 -59.052734375 0 l 1
162.142578125 279 m 1
 424.142578125 279 l 1
 358.383789062 649 l 1
 162.142578125 279 l 1
EndSplineSet
Validated: 524289
EndChar

StartChar: AE
Encoding: 198 198 12
Width: 945
GlyphClass: 2
Flags: HMW
HStem: 0 66<547 890 547 890> 213 66<242 479 242 479 208 479> 324 64<547 870 547 870> 644 66<547 882 547 547> 646 64<432 479 432 432>
VStem: 479 68<66 213 213 213 279 324 388 644>
AnchorPoint: "Anchor-3" 558.596 710 basechar 0
AnchorPoint: "Anchor-0" 433.404 0 basechar 0
LayerCount: 2
Fore
SplineSet
-41.595703125 0 m 1xf4
 460.595703125 710 l 1
 944.595703125 710 l 1
 932.958984375 644 l 1
 597.958984375 644 l 1
 552.818359375 388 l 1
 875.818359375 388 l 1
 864.534179688 324 l 1
 541.534179688 324 l 1
 496.041015625 66 l 1
 839.041015625 66 l 1
 827.404296875 0 l 1
 416.404296875 0 l 1
 453.961914062 213 l 1
 182.961914062 213 l 1
 35.404296875 0 l 1
 -41.595703125 0 l 1xf4
530.311523438 646 m 1xec
 483.311523438 646 l 1
 228.599609375 279 l 1
 465.599609375 279 l 1
 530.311523438 646 l 1xec
EndSplineSet
Validated: 524289
EndChar

StartChar: B
Encoding: 66 66 13
Width: 666
GlyphClass: 2
Flags: HMW
HStem: 0 66<161 368 161 368> 326 66<161 328 328 368 161 328> 644 66<161 328 161 161>
VStem: 93 68<66 66 66 326 392 644> 505 71<478.5 559.5> 535 71<153 236.5>
AnchorPoint: "Anchor-3" 395.596 710 basechar 0
AnchorPoint: "Anchor-0" 270.404 0 basechar 0
LayerCount: 2
Fore
SplineSet
30.404296875 0 m 1xf4
 155.595703125 710 l 1
 390.595703125 710 l 2
 556.595703125 710 628.016601562 650 604.91796875 519 c 0xf8
 590.634765625 438 531.231445312 379 448.586914062 364 c 1
 545.294921875 351 593.833007812 286 577.434570312 193 c 0
 554.865234375 65 460.404296875 0 305.404296875 0 c 2
 30.404296875 0 l 1xf4
167.524414062 392 m 1
 334.524414062 392 l 2
 448.524414062 392 519.458984375 437 533.565429688 517 c 0
 548.552734375 602 496.958984375 644 378.958984375 644 c 2
 211.958984375 644 l 1
 167.524414062 392 l 1
110.041015625 66 m 1
 317.041015625 66 l 2
 426.041015625 66 491.799804688 110 506.963867188 196 c 0xf4
 521.24609375 277 467.88671875 326 362.88671875 326 c 2
 155.88671875 326 l 1
 110.041015625 66 l 1
EndSplineSet
Validated: 524321
EndChar

StartChar: C
Encoding: 67 67 14
Width: 694
GlyphClass: 2
Flags: HMW
HStem: -16 67<286.5 424 286.5 442> 659 67<286.5 421>
VStem: 47 71<259 449 259 469>
AnchorPoint: "Anchor-3" 419.596 710 basechar 0
AnchorPoint: "Anchor-0" 297.404 0 basechar 0
LayerCount: 2
Fore
SplineSet
293.583007812 -16 m 0
 105.583007812 -16 6.2685546875 124 46.8232421875 354 c 0
 87.37890625 584 236.416992188 726 424.416992188 726 c 0
 590.416992188 726 665.666015625 631 668.5703125 483 c 1
 595.688476562 478 l 1
 595.260742188 589 536.603515625 659 412.603515625 659 c 0
 267.603515625 659 151.326171875 544 117.823242188 354 c 0
 84.3212890625 164 160.396484375 51 305.396484375 51 c 0
 435.396484375 51 521.62109375 126 561.1328125 248 c 1
 632.250976562 243 l 1
 579.744140625 87 459.583007812 -16 293.583007812 -16 c 0
EndSplineSet
Validated: 524321
EndChar

StartChar: Cacute
Encoding: 262 262 15
Width: 694
GlyphClass: 2
Flags: HMW
HStem: -16 67<286.5 424 286.5 442> 659 67<286.5 421> 782 124<328 470 328 470>
VStem: 47 71<259 449 259 469>
AnchorPoint: "Anchor-3" 403.727 710 basechar 0
AnchorPoint: "Anchor-0" 281.534 0 basechar 0
LayerCount: 2
Fore
SplineSet
387.421875 782 m 1
 477.287109375 906 l 1
 551.287109375 906 l 1
 442.421875 782 l 1
 387.421875 782 l 1
277.712890625 -16 m 0
 89.712890625 -16 -9.6005859375 124 30.9541015625 354 c 0
 71.509765625 584 220.547851562 726 408.547851562 726 c 0
 574.547851562 726 649.796875 631 652.700195312 483 c 1
 579.818359375 478 l 1
 579.390625 589 520.734375 659 396.734375 659 c 0
 251.734375 659 135.456054688 544 101.954101562 354 c 0
 68.4521484375 164 144.52734375 51 289.52734375 51 c 0
 419.52734375 51 505.751953125 126 545.263671875 248 c 1
 616.381835938 243 l 1
 563.875 87 443.712890625 -16 277.712890625 -16 c 0
EndSplineSet
Validated: 524321
EndChar

StartChar: Ccaron
Encoding: 268 268 16
Width: 694
GlyphClass: 2
Flags: HMW
HStem: -16 67<286.5 424 286.5 442> 659 67<286.5 421> 782 130<233 392 233 322>
VStem: 47 71<259 449 259 469>
AnchorPoint: "Anchor-3" 403.197 710 basechar 0
AnchorPoint: "Anchor-0" 281.006 0 basechar 0
LayerCount: 2
Fore
SplineSet
314.815429688 912 m 1
 370.815429688 912 l 1
 422.416992188 819 l 1
 507.815429688 912 l 1
 563.815429688 912 l 1
 450.893554688 782 l 1
 380.893554688 782 l 1
 314.815429688 912 l 1
277.184570312 -16 m 0
 89.1845703125 -16 -10.1298828125 124 30.4248046875 354 c 0
 70.98046875 584 220.018554688 726 408.018554688 726 c 0
 574.018554688 726 649.267578125 631 652.171875 483 c 1
 579.290039062 478 l 1
 578.862304688 589 520.205078125 659 396.205078125 659 c 0
 251.205078125 659 134.927734375 544 101.424804688 354 c 0
 67.9228515625 164 143.998046875 51 288.998046875 51 c 0
 418.998046875 51 505.22265625 126 544.734375 248 c 1
 615.852539062 243 l 1
 563.345703125 87 443.184570312 -16 277.184570312 -16 c 0
EndSplineSet
Validated: 524321
EndChar

StartChar: Ccedilla
Encoding: 199 199 17
Width: 694
GlyphClass: 2
Flags: HMW
HStem: -215 46<331 367 331 382> -77 37<328 360> -15 66<327 327> 659 67<286.5 421>
VStem: 47 71<259 449 259 469> 407 50<-138.5 -110>
AnchorPoint: "Anchor-3" 437.141 710 basechar 0
AnchorPoint: "Anchor-0" 314.948 0 basechar 0
LayerCount: 2
Fore
SplineSet
268.038085938 -215 m 0
 208.038085938 -215 176.328125 -185 170.733398438 -143 c 1
 215.731445312 -126 l 1
 220.618164062 -155 238.149414062 -169 274.149414062 -169 c 0
 310.149414062 -169 334.970703125 -153 340.083984375 -124 c 0
 345.021484375 -96 333.37109375 -77 269.37109375 -77 c 1xdc
 250.956054688 -51 l 1
 279.303710938 -15 l 1
 112.125 1 26.10546875 137 64.3681640625 354 c 0
 104.923828125 584 253.961914062 726 441.961914062 726 c 0
 607.961914062 726 683.2109375 631 686.114257812 483 c 1
 613.232421875 478 l 1
 612.8046875 589 554.147460938 659 430.147460938 659 c 0
 285.147460938 659 168.870117188 544 135.368164062 354 c 0
 101.866210938 164 177.94140625 51 322.94140625 51 c 0xbc
 452.94140625 51 539.166015625 126 578.677734375 248 c 1
 649.795898438 243 l 1
 599.170898438 92 485.361328125 -9 328.126953125 -16 c 1
 307.895507812 -40 l 1
 371.366210938 -43 398.900390625 -74 389.731445312 -126 c 0
 380.209960938 -180 330.038085938 -215 268.038085938 -215 c 0
EndSplineSet
Validated: 524321
EndChar

StartChar: Ccircumflex
Encoding: 264 264 18
Width: 694
GlyphClass: 2
Flags: HMW
HStem: -16 67<286.5 424 286.5 442> 659 67<286.5 421> 782 130<233 393 233 393 323 426 323 482>
VStem: 47 71<259 449 259 469>
AnchorPoint: "Anchor-3" 403.197 710 basechar 0
AnchorPoint: "Anchor-0" 281.006 0 basechar 0
LayerCount: 2
Fore
SplineSet
291.893554688 782 m 1
 404.815429688 912 l 1
 474.815429688 912 l 1
 540.893554688 782 l 1
 484.893554688 782 l 1
 433.291992188 875 l 1
 347.893554688 782 l 1
 291.893554688 782 l 1
277.184570312 -16 m 0
 89.1845703125 -16 -10.1298828125 124 30.4248046875 354 c 0
 70.98046875 584 220.018554688 726 408.018554688 726 c 0
 574.018554688 726 649.267578125 631 652.171875 483 c 1
 579.290039062 478 l 1
 578.862304688 589 520.205078125 659 396.205078125 659 c 0
 251.205078125 659 134.927734375 544 101.424804688 354 c 0
 67.9228515625 164 143.998046875 51 288.998046875 51 c 0
 418.998046875 51 505.22265625 126 544.734375 248 c 1
 615.852539062 243 l 1
 563.345703125 87 443.184570312 -16 277.184570312 -16 c 0
EndSplineSet
Validated: 524321
EndChar

StartChar: Cdotaccent
Encoding: 266 266 19
Width: 694
GlyphClass: 2
Flags: HMW
HStem: -16 67<286.5 424 286.5 442> 659 67<286.5 421> 798 89<322 392 322 392>
VStem: 47 71<259 449 259 469> 322 70<798 887 798 887>
AnchorPoint: "Anchor-3" 405.401 710 basechar 0
AnchorPoint: "Anchor-0" 283.21 0 basechar 0
LayerCount: 2
Fore
SplineSet
385.918945312 798 m 1
 401.611328125 887 l 1
 471.611328125 887 l 1
 455.918945312 798 l 1
 385.918945312 798 l 1
279.388671875 -16 m 0
 91.388671875 -16 -7.92578125 124 32.62890625 354 c 0
 73.1845703125 584 222.22265625 726 410.22265625 726 c 0
 576.22265625 726 651.471679688 631 654.375976562 483 c 1
 581.494140625 478 l 1
 581.06640625 589 522.409179688 659 398.409179688 659 c 0
 253.409179688 659 137.131835938 544 103.62890625 354 c 0
 70.126953125 164 146.202148438 51 291.202148438 51 c 0
 421.202148438 51 507.426757812 126 546.938476562 248 c 1
 618.056640625 243 l 1
 565.549804688 87 445.388671875 -16 279.388671875 -16 c 0
EndSplineSet
Validated: 524321
Substitution2: "'ss08' Style Set 8 in Latin lookup 41 subtable" Cdotaccent.ss08
Substitution2: "'aalt' Access All Alternates in Latin lookup 0 subtable" Cdotaccent.ss08
EndChar

StartChar: D
Encoding: 68 68 20
Width: 691
GlyphClass: 2
Flags: HMW
HStem: 0 66<161 307 307 313> 644 66<161 307 161 161>
VStem: 93 68<66 66 66 644> 573 71<259.5 449.5>
AnchorPoint: "Anchor-3" 384.596 710 basechar 0
AnchorPoint: "Anchor-1" 200 355 basechar 0
AnchorPoint: "Anchor-0" 258.404 0 basechar 0
LayerCount: 2
Fore
SplineSet
30.404296875 0 m 1
 155.595703125 710 l 1
 369.595703125 710 l 2
 585.595703125 710 684.026367188 582 643.823242188 354 c 0
 603.797851562 127 463.404296875 0 250.404296875 0 c 2
 30.404296875 0 l 1
110.041015625 66 m 1
 256.041015625 66 l 2
 431.041015625 66 539.498046875 165 572.823242188 354 c 0
 606.501953125 545 532.958984375 644 357.958984375 644 c 2
 211.958984375 644 l 1
 110.041015625 66 l 1
EndSplineSet
Validated: 524321
EndChar

StartChar: Dcaron
Encoding: 270 270 21
Width: 691
GlyphClass: 2
Flags: HMW
HStem: 0 66<161 307 307 313> 644 66<161 307 161 161> 782 130<197 357 197 287>
VStem: 93 68<66 66 66 644> 573 71<259.5 449.5>
AnchorPoint: "Anchor-3" 366.787 710 basechar 0
AnchorPoint: "Anchor-1" 182.191 355 basechar 0
AnchorPoint: "Anchor-0" 240.595 0 basechar 0
LayerCount: 2
Fore
SplineSet
277.405273438 912 m 1
 333.405273438 912 l 1
 386.006835938 819 l 1
 470.405273438 912 l 1
 526.405273438 912 l 1
 414.482421875 782 l 1
 344.482421875 782 l 1
 277.405273438 912 l 1
12.5947265625 0 m 1
 137.787109375 710 l 1
 351.787109375 710 l 2
 567.787109375 710 666.216796875 582 626.014648438 354 c 0
 585.98828125 127 445.594726562 0 232.594726562 0 c 2
 12.5947265625 0 l 1
92.232421875 66 m 1
 238.232421875 66 l 2
 413.232421875 66 521.688476562 165 555.014648438 354 c 0
 588.693359375 545 515.149414062 644 340.149414062 644 c 2
 194.149414062 644 l 1
 92.232421875 66 l 1
EndSplineSet
Validated: 524321
EndChar

StartChar: Dcroat
Encoding: 272 272 22
Width: 691
GlyphClass: 2
Flags: HMW
HStem: 0 66<161 307 307 313> 324 62<17 93 17 93 161 383> 644 66<161 307 161 161>
VStem: 93 68<66 66 66 324 386 644> 573 71<259.5 449.5>
AnchorPoint: "Anchor-3" 384.596 710 basechar 0
AnchorPoint: "Anchor-1" 200 355 basechar 0
AnchorPoint: "Anchor-0" 258.404 0 basechar 0
LayerCount: 2
Fore
SplineSet
30.404296875 0 m 1
 87.5341796875 324 l 1
 11.5341796875 324 l 1
 22.4658203125 386 l 1
 98.4658203125 386 l 1
 155.595703125 710 l 1
 369.595703125 710 l 2
 585.595703125 710 684.026367188 582 643.823242188 354 c 0
 603.797851562 127 463.404296875 0 250.404296875 0 c 2
 30.404296875 0 l 1
110.041015625 66 m 1
 256.041015625 66 l 2
 431.041015625 66 539.498046875 165 572.823242188 354 c 0
 606.501953125 545 532.958984375 644 357.958984375 644 c 2
 211.958984375 644 l 1
 166.465820312 386 l 1
 388.465820312 386 l 1
 377.534179688 324 l 1
 155.534179688 324 l 1
 110.041015625 66 l 1
EndSplineSet
Validated: 524321
EndChar

StartChar: Eth
Encoding: 208 208 23
Width: 691
GlyphClass: 2
Flags: HMW
HStem: 0 66<161 307 307 313> 324 62<17 93 17 93 161 383> 644 66<161 307 161 161>
VStem: 93 68<66 66 66 324 386 644> 573 71<259.5 449.5>
AnchorPoint: "Anchor-3" 384.596 710 basechar 0
AnchorPoint: "Anchor-1" 200 355 basechar 0
AnchorPoint: "Anchor-0" 258.404 0 basechar 0
LayerCount: 2
Fore
SplineSet
30.404296875 0 m 1
 87.5341796875 324 l 1
 11.5341796875 324 l 1
 22.4658203125 386 l 1
 98.4658203125 386 l 1
 155.595703125 710 l 1
 369.595703125 710 l 2
 585.595703125 710 684.026367188 582 643.823242188 354 c 0
 603.797851562 127 463.404296875 0 250.404296875 0 c 2
 30.404296875 0 l 1
110.041015625 66 m 1
 256.041015625 66 l 2
 431.041015625 66 539.498046875 165 572.823242188 354 c 0
 606.501953125 545 532.958984375 644 357.958984375 644 c 2
 211.958984375 644 l 1
 166.465820312 386 l 1
 388.465820312 386 l 1
 377.534179688 324 l 1
 155.534179688 324 l 1
 110.041015625 66 l 1
EndSplineSet
Validated: 524321
EndChar

StartChar: E
Encoding: 69 69 24
Width: 593
GlyphClass: 2
Flags: HMW
HStem: 0 66<161 538 161 538> 323 65<161 518 161 518> 644 66<161 530 161 161>
VStem: 93 68<66 323 388 644>
AnchorPoint: "Anchor-3" 375.596 710 basechar 0
AnchorPoint: "Anchor-2" 475.404 0 basechar 0
AnchorPoint: "Anchor-0" 252.404 0 basechar 0
LayerCount: 2
Fore
SplineSet
30.404296875 0 m 1
 155.595703125 710 l 1
 592.595703125 710 l 1
 580.958984375 644 l 1
 211.958984375 644 l 1
 166.818359375 388 l 1
 523.818359375 388 l 1
 512.357421875 323 l 1
 155.357421875 323 l 1
 110.041015625 66 l 1
 487.041015625 66 l 1
 475.404296875 0 l 1
 30.404296875 0 l 1
EndSplineSet
Validated: 524289
EndChar

StartChar: Eacute
Encoding: 201 201 25
Width: 593
GlyphClass: 2
Flags: HMW
HStem: 0 66<161 538 161 538> 323 65<161 518 161 518> 644 66<161 530 161 161> 782 124<284 426 284 426>
VStem: 93 68<66 323 388 644>
AnchorPoint: "Anchor-3" 358.316 710 basechar 0
AnchorPoint: "Anchor-2" 458.124 0 basechar 0
AnchorPoint: "Anchor-0" 235.124 0 basechar 0
LayerCount: 2
Fore
SplineSet
342.01171875 782 m 1
 431.875976562 906 l 1
 505.875976562 906 l 1
 397.01171875 782 l 1
 342.01171875 782 l 1
13.1240234375 0 m 1
 138.31640625 710 l 1
 575.31640625 710 l 1
 563.678710938 644 l 1
 194.678710938 644 l 1
 149.5390625 388 l 1
 506.5390625 388 l 1
 495.077148438 323 l 1
 138.077148438 323 l 1
 92.76171875 66 l 1
 469.76171875 66 l 1
 458.124023438 0 l 1
 13.1240234375 0 l 1
EndSplineSet
Validated: 524289
EndChar

StartChar: Ecaron
Encoding: 282 282 26
Width: 593
GlyphClass: 2
Flags: HMW
HStem: 0 66<161 538 161 538> 323 65<161 518 161 518> 644 66<161 530 161 161> 782 130<189 348 189 278>
VStem: 93 68<66 323 388 644>
AnchorPoint: "Anchor-3" 357.787 710 basechar 0
AnchorPoint: "Anchor-2" 457.595 0 basechar 0
AnchorPoint: "Anchor-0" 234.595 0 basechar 0
LayerCount: 2
Fore
SplineSet
269.405273438 912 m 1
 325.405273438 912 l 1
 377.006835938 819 l 1
 462.405273438 912 l 1
 518.405273438 912 l 1
 405.482421875 782 l 1
 335.482421875 782 l 1
 269.405273438 912 l 1
12.5947265625 0 m 1
 137.787109375 710 l 1
 574.787109375 710 l 1
 563.149414062 644 l 1
 194.149414062 644 l 1
 149.009765625 388 l 1
 506.009765625 388 l 1
 494.548828125 323 l 1
 137.548828125 323 l 1
 92.232421875 66 l 1
 469.232421875 66 l 1
 457.594726562 0 l 1
 12.5947265625 0 l 1
EndSplineSet
Validated: 524289
EndChar

StartChar: Ecircumflex
Encoding: 202 202 27
Width: 593
GlyphClass: 2
Flags: HMW
HStem: 0 66<161 538 161 538> 323 65<161 518 161 518> 644 66<161 530 161 161> 782 130<189 349 189 349 279 382 279 438>
VStem: 93 68<66 323 388 644>
AnchorPoint: "Anchor-3" 357.787 710 basechar 0
AnchorPoint: "Anchor-2" 457.595 0 basechar 0
AnchorPoint: "Anchor-0" 234.595 0 basechar 0
LayerCount: 2
Fore
SplineSet
246.482421875 782 m 1
 359.405273438 912 l 1
 429.405273438 912 l 1
 495.482421875 782 l 1
 439.482421875 782 l 1
 387.880859375 875 l 1
 302.482421875 782 l 1
 246.482421875 782 l 1
12.5947265625 0 m 1
 137.787109375 710 l 1
 574.787109375 710 l 1
 563.149414062 644 l 1
 194.149414062 644 l 1
 149.009765625 388 l 1
 506.009765625 388 l 1
 494.548828125 323 l 1
 137.548828125 323 l 1
 92.232421875 66 l 1
 469.232421875 66 l 1
 457.594726562 0 l 1
 12.5947265625 0 l 1
EndSplineSet
Validated: 524289
EndChar

StartChar: Edieresis
Encoding: 203 203 28
Width: 593
GlyphClass: 2
Flags: HMW
HStem: 0 66<161 538 161 538> 323 65<161 518 161 518> 644 66<161 530 161 161> 798 89<199 269 199 269 358 428>
VStem: 93 68<66 323 388 644> 199 70<798 887 798 887> 358 70<798 887 798 887>
AnchorPoint: "Anchor-3" 359.991 710 basechar 0
AnchorPoint: "Anchor-2" 459.799 0 basechar 0
AnchorPoint: "Anchor-0" 236.799 0 basechar 0
LayerCount: 2
Fore
SplineSet
261.5078125 798 m 1
 277.201171875 887 l 1
 347.201171875 887 l 1
 331.5078125 798 l 1
 261.5078125 798 l 1
420.5078125 798 m 1
 436.201171875 887 l 1
 506.201171875 887 l 1
 490.5078125 798 l 1
 420.5078125 798 l 1
14.798828125 0 m 1
 139.991210938 710 l 1
 576.991210938 710 l 1
 565.353515625 644 l 1
 196.353515625 644 l 1
 151.213867188 388 l 1
 508.213867188 388 l 1
 496.752929688 323 l 1
 139.752929688 323 l 1
 94.4365234375 66 l 1
 471.436523438 66 l 1
 459.798828125 0 l 1
 14.798828125 0 l 1
EndSplineSet
Validated: 524289
Substitution2: "'ss08' Style Set 8 in Latin lookup 41 subtable" Edieresis.ss08
Substitution2: "'aalt' Access All Alternates in Latin lookup 0 subtable" Edieresis.ss08
EndChar

StartChar: Edotaccent
Encoding: 278 278 29
Width: 593
GlyphClass: 2
Flags: HMW
HStem: 0 66<161 538 161 538> 323 65<161 518 161 518> 644 66<161 530 161 161> 798 89<278 348 278 348>
VStem: 93 68<66 323 388 644> 278 70<798 887 798 887>
AnchorPoint: "Anchor-3" 359.991 710 basechar 0
AnchorPoint: "Anchor-2" 459.799 0 basechar 0
AnchorPoint: "Anchor-0" 236.799 0 basechar 0
LayerCount: 2
Fore
SplineSet
340.5078125 798 m 1
 356.201171875 887 l 1
 426.201171875 887 l 1
 410.5078125 798 l 1
 340.5078125 798 l 1
14.798828125 0 m 1
 139.991210938 710 l 1
 576.991210938 710 l 1
 565.353515625 644 l 1
 196.353515625 644 l 1
 151.213867188 388 l 1
 508.213867188 388 l 1
 496.752929688 323 l 1
 139.752929688 323 l 1
 94.4365234375 66 l 1
 471.436523438 66 l 1
 459.798828125 0 l 1
 14.798828125 0 l 1
EndSplineSet
Validated: 524289
Substitution2: "'ss08' Style Set 8 in Latin lookup 41 subtable" Edotaccent.ss08
Substitution2: "'aalt' Access All Alternates in Latin lookup 0 subtable" Edotaccent.ss08
EndChar

StartChar: Egrave
Encoding: 200 200 30
Width: 593
GlyphClass: 2
Flags: HMW
HStem: 0 66<161 538 161 538> 323 65<161 518 161 518> 644 66<161 530 161 161> 788 124<202 288 202 344>
VStem: 93 68<66 323 388 644>
AnchorPoint: "Anchor-3" 357.787 710 basechar 0
AnchorPoint: "Anchor-2" 457.595 0 basechar 0
AnchorPoint: "Anchor-0" 234.595 0 basechar 0
LayerCount: 2
Fore
SplineSet
346.541015625 788 m 1
 282.405273438 912 l 1
 356.405273438 912 l 1
 402.541015625 788 l 1
 346.541015625 788 l 1
12.5947265625 0 m 1
 137.787109375 710 l 1
 574.787109375 710 l 1
 563.149414062 644 l 1
 194.149414062 644 l 1
 149.009765625 388 l 1
 506.009765625 388 l 1
 494.548828125 323 l 1
 137.548828125 323 l 1
 92.232421875 66 l 1
 469.232421875 66 l 1
 457.594726562 0 l 1
 12.5947265625 0 l 1
EndSplineSet
Validated: 524289
EndChar

StartChar: Emacron
Encoding: 274 274 31
Width: 593
GlyphClass: 2
Flags: HMW
HStem: 0 66<161 538 161 538> 323 65<161 518 161 518> 644 66<161 530 161 161> 811 58<183 444 183 444>
VStem: 93 68<66 323 388 644> 183 261<811 869 811 869>
AnchorPoint: "Anchor-3" 361.578 710 basechar 0
AnchorPoint: "Anchor-2" 461.386 0 basechar 0
AnchorPoint: "Anchor-0" 238.386 0 basechar 0
LayerCount: 2
Fore
SplineSet
249.38671875 811 m 1
 259.614257812 869 l 1
 520.614257812 869 l 1
 510.38671875 811 l 1
 249.38671875 811 l 1
16.3857421875 0 m 1xf8
 141.578125 710 l 1
 578.578125 710 l 1
 566.940429688 644 l 1
 197.940429688 644 l 1
 152.80078125 388 l 1
 509.80078125 388 l 1
 498.33984375 323 l 1
 141.33984375 323 l 1
 96.0234375 66 l 1
 473.0234375 66 l 1
 461.385742188 0 l 1
 16.3857421875 0 l 1xf8
EndSplineSet
Validated: 524289
EndChar

StartChar: Eogonek
Encoding: 280 280 32
Width: 593
GlyphClass: 2
Flags: HMW
HStem: -204 54<497.5 514> 0 66<161 483 161 538> 323 65<161 518 161 518> 644 66<161 530 161 161>
VStem: 93 68<66 323 388 644> 412 62<-131 -119>
AnchorPoint: "Anchor-3" 393.581 710 basechar 0
AnchorPoint: "Anchor-2" 493.39 0 basechar 0
AnchorPoint: "Anchor-0" 270.39 0 basechar 0
LayerCount: 2
Fore
SplineSet
48.3896484375 0 m 1
 173.581054688 710 l 1
 610.581054688 710 l 1
 598.944335938 644 l 1
 229.944335938 644 l 1
 184.803710938 388 l 1
 541.803710938 388 l 1
 530.342773438 323 l 1
 173.342773438 323 l 1
 128.026367188 66 l 1
 505.026367188 66 l 1
 493.389648438 0 l 1
 453.454101562 -45 l 2
 424.458984375 -79 411.932617188 -99 408.053710938 -121 c 0
 404.52734375 -141 416.940429688 -150 435.940429688 -150 c 0
 454.940429688 -150 472.822265625 -145 486.409179688 -136 c 1
 499.650390625 -180 l 1
 481.181640625 -194 449.418945312 -204 417.418945312 -204 c 0
 366.418945312 -204 335.12109375 -183 343.232421875 -137 c 0
 349.580078125 -101 384.633789062 -61 417.333984375 -23 c 2
 438.389648438 0 l 1
 48.3896484375 0 l 1
EndSplineSet
Validated: 524321
EndChar

StartChar: uni1EBC
Encoding: 7868 7868 33
Width: 593
GlyphClass: 2
Flags: HMW
HStem: 0 66<161 538 161 538> 323 65<161 518 161 518> 644 66<161 530 161 161> 797 45<366 386.5 366 397> 853 45<237 261>
VStem: 93 68<66 323 388 644> 162 43<790 790> 416 44<908 908>
AnchorPoint: "Anchor-3" 358.14 710 basechar 0
AnchorPoint: "Anchor-2" 457.947 0 basechar 0
AnchorPoint: "Anchor-0" 234.947 0 basechar 0
LayerCount: 2
Fore
SplineSet
431.48046875 797 m 0
 404.48046875 797 386.243164062 807 368.59375 826 c 0
 350.944335938 845 342.354492188 853 320.354492188 853 c 0
 294.354492188 853 274.533203125 837 264.24609375 790 c 1
 221.24609375 790 l 1
 235.588867188 860 278.2890625 898 328.2890625 898 c 0xea
 360.2890625 898 379.172851562 886 397.646484375 866 c 0
 414.649414062 849 426.415039062 842 442.415039062 842 c 0
 467.415039062 842 483.236328125 858 496.052734375 908 c 1
 540.052734375 908 l 1
 523.709960938 838 483.48046875 797 431.48046875 797 c 0
12.947265625 0 m 1xec
 138.139648438 710 l 1
 575.139648438 710 l 1
 563.501953125 644 l 1
 194.501953125 644 l 1
 149.362304688 388 l 1
 506.362304688 388 l 1
 494.901367188 323 l 1
 137.901367188 323 l 1
 92.5849609375 66 l 1
 469.584960938 66 l 1
 457.947265625 0 l 1
 12.947265625 0 l 1xec
EndSplineSet
Validated: 524289
EndChar

StartChar: uni018F
Encoding: 399 399 34
Width: 709
GlyphClass: 1
Flags: HMW
HStem: -16 67<285 414 285 441> 316 66<119 591 119 119> 659 67<302.5 414.5>
VStem: 47 72<316 382 316 382> 591 71<316 316 382 382>
LayerCount: 2
Fore
SplineSet
662 355 m 0
 621.091796875 123 467.583007812 -16 283.583007812 -16 c 0
 120.583007812 -16 4.15234375 112 45.236328125 345 c 2
 51.7607421875 382 l 1
 595.760742188 382 l 1
 620.618164062 557 533.603515625 659 402.603515625 659 c 0
 309.603515625 659 221.905273438 604 167.625 506 c 1
 96.859375 513 l 1
 159.60546875 642 281.416992188 726 414.416992188 726 c 0
 603.416992188 726 702.026367188 582 662 355 c 0
295.396484375 51 m 0
 425.396484375 51 544.971679688 145 584.123046875 316 c 1
 112.123046875 316 l 1
 97.32421875 147 167.396484375 51 295.396484375 51 c 0
EndSplineSet
Validated: 524321
EndChar

StartChar: F
Encoding: 70 70 35
Width: 580
GlyphClass: 1
Flags: HMW
HStem: 0 21G<93 93 93 161> 317 65<161 512 161 512> 644 66<161 530 161 161>
VStem: 93 68<0 317 382 644>
LayerCount: 2
Fore
SplineSet
30.404296875 0 m 1
 155.595703125 710 l 1
 592.595703125 710 l 1
 580.958984375 644 l 1
 211.958984375 644 l 1
 165.760742188 382 l 1
 516.760742188 382 l 1
 505.299804688 317 l 1
 154.299804688 317 l 1
 98.404296875 0 l 1
 30.404296875 0 l 1
EndSplineSet
Validated: 524289
EndChar

StartChar: G
Encoding: 71 71 36
Width: 692
GlyphClass: 2
Flags: HMW
HStem: -16 67<278.5 412.5> 0 21G<588 640 588 588> 285 64<362 576 362 640> 659 67<277.5 421>
VStem: 47 71<265.5 440 265.5 463> 576 64<285 285> 586 54
AnchorPoint: "Anchor-3" 422.596 710 basechar 0
AnchorPoint: "Anchor-0" 299.404 0 basechar 0
LayerCount: 2
Fore
SplineSet
291.583007812 -16 m 0xba
 97.5830078125 -16 8.384765625 136 46.8232421875 354 c 0
 85.2626953125 572 227.416992188 726 425.416992188 726 c 0
 584.416992188 726 659.490234375 630 661.451171875 488 c 1
 589.5703125 483 l 1
 587.7890625 592 535.603515625 659 413.603515625 659 c 0
 248.603515625 659 148.15234375 526 117.823242188 354 c 0
 86.6142578125 177 145.396484375 51 304.396484375 51 c 0
 436.396484375 51 534.676757812 149 563.657226562 285 c 1xbc
 349.657226562 285 l 1
 360.942382812 349 l 1
 638.942382812 349 l 1
 577.404296875 0 l 1
 525.404296875 0 l 1x7a
 545.737304688 138 l 1
 498.043945312 49 402.583007812 -16 291.583007812 -16 c 0xba
EndSplineSet
Validated: 524321
Substitution2: "'ss06' Style Set 6 in Latin lookup 39 subtable" G.ss06
Substitution2: "'aalt' Access All Alternates in Latin lookup 0 subtable" G.ss06
EndChar

StartChar: Gbreve
Encoding: 286 286 37
Width: 692
GlyphClass: 2
Flags: HMW
HStem: -16 67<278.5 412.5> 0 21G<588 640 588 588> 285 64<362 576 362 640> 659 67<277.5 421> 788 51<336 384 336 399>
VStem: 47 71<265.5 440 265.5 463> 576 64<285 285> 586 54
AnchorPoint: "Anchor-3" 406.197 710 basechar 0
AnchorPoint: "Anchor-0" 283.006 0 basechar 0
LayerCount: 2
Fore
SplineSet
419.951171875 788 m 0xbd
 341.951171875 788 299.590820312 837 306.815429688 912 c 1
 354.815429688 912 l 1
 351.999023438 862 380.944335938 839 428.944335938 839 c 0
 476.944335938 839 512.999023438 862 528.815429688 912 c 1
 575.815429688 912 l 1
 556.590820312 837 497.951171875 788 419.951171875 788 c 0xbd
275.184570312 -16 m 0
 81.1845703125 -16 -8.013671875 136 30.4248046875 354 c 0
 68.8642578125 572 211.018554688 726 409.018554688 726 c 0
 568.018554688 726 643.091796875 630 645.052734375 488 c 1
 573.171875 483 l 1
 571.390625 592 519.205078125 659 397.205078125 659 c 0
 232.205078125 659 131.75390625 526 101.424804688 354 c 0
 70.2158203125 177 128.998046875 51 287.998046875 51 c 0
 419.998046875 51 518.278320312 149 547.258789062 285 c 1xbe
 333.258789062 285 l 1
 344.543945312 349 l 1
 622.543945312 349 l 1
 561.005859375 0 l 1
 509.005859375 0 l 1x7d
 529.338867188 138 l 1
 481.645507812 49 386.184570312 -16 275.184570312 -16 c 0
EndSplineSet
Validated: 524321
Substitution2: "'ss06' Style Set 6 in Latin lookup 39 subtable" Gbreve.ss06
Substitution2: "'aalt' Access All Alternates in Latin lookup 0 subtable" Gbreve.ss06
EndChar

StartChar: Gcaron
Encoding: 486 486 38
Width: 692
GlyphClass: 2
Flags: HMW
HStem: -16 67<278.5 412.5> 0 21G<588 640 588 588> 285 64<362 576 362 640> 659 67<277.5 421> 782 130<236 395 236 325>
VStem: 47 71<265.5 440 265.5 463> 576 64<285 285> 586 54
AnchorPoint: "Anchor-3" 406.197 710 basechar 0
AnchorPoint: "Anchor-0" 283.006 0 basechar 0
LayerCount: 2
Fore
SplineSet
317.815429688 912 m 1xbd
 373.815429688 912 l 1
 425.416992188 819 l 1
 509.815429688 912 l 1
 565.815429688 912 l 1
 453.893554688 782 l 1
 383.893554688 782 l 1
 317.815429688 912 l 1xbd
275.184570312 -16 m 0
 81.1845703125 -16 -8.013671875 136 30.4248046875 354 c 0
 68.8642578125 572 211.018554688 726 409.018554688 726 c 0
 568.018554688 726 643.091796875 630 645.052734375 488 c 1
 573.171875 483 l 1
 571.390625 592 519.205078125 659 397.205078125 659 c 0
 232.205078125 659 131.75390625 526 101.424804688 354 c 0
 70.2158203125 177 128.998046875 51 287.998046875 51 c 0
 419.998046875 51 518.278320312 149 547.258789062 285 c 1xb6
 333.258789062 285 l 1
 344.543945312 349 l 1
 622.543945312 349 l 1
 561.005859375 0 l 1
 509.005859375 0 l 1x75
 529.338867188 138 l 1
 481.645507812 49 386.184570312 -16 275.184570312 -16 c 0
EndSplineSet
Validated: 524321
EndChar

StartChar: Gcircumflex
Encoding: 284 284 39
Width: 692
GlyphClass: 2
Flags: HMW
HStem: -16 67<278.5 412.5> 0 21G<588 640 588 588> 285 64<362 576 362 640> 659 67<277.5 421> 782 130<236 395 236 395 325 429 325 485>
VStem: 47 71<265.5 440 265.5 463> 576 64<285 285> 586 54
AnchorPoint: "Anchor-3" 406.197 710 basechar 0
AnchorPoint: "Anchor-0" 283.006 0 basechar 0
LayerCount: 2
Fore
SplineSet
294.893554688 782 m 1xbd
 406.815429688 912 l 1
 476.815429688 912 l 1
 543.893554688 782 l 1
 487.893554688 782 l 1
 435.291992188 875 l 1
 350.893554688 782 l 1
 294.893554688 782 l 1xbd
275.184570312 -16 m 0
 81.1845703125 -16 -8.013671875 136 30.4248046875 354 c 0
 68.8642578125 572 211.018554688 726 409.018554688 726 c 0
 568.018554688 726 643.091796875 630 645.052734375 488 c 1
 573.171875 483 l 1
 571.390625 592 519.205078125 659 397.205078125 659 c 0
 232.205078125 659 131.75390625 526 101.424804688 354 c 0
 70.2158203125 177 128.998046875 51 287.998046875 51 c 0
 419.998046875 51 518.278320312 149 547.258789062 285 c 1xb6
 333.258789062 285 l 1
 344.543945312 349 l 1
 622.543945312 349 l 1
 561.005859375 0 l 1
 509.005859375 0 l 1x75
 529.338867188 138 l 1
 481.645507812 49 386.184570312 -16 275.184570312 -16 c 0
EndSplineSet
Validated: 524321
Substitution2: "'ss06' Style Set 6 in Latin lookup 39 subtable" Gcircumflex.ss06
Substitution2: "'aalt' Access All Alternates in Latin lookup 0 subtable" Gcircumflex.ss06
EndChar

StartChar: uni0122
Encoding: 290 290 40
Width: 692
GlyphClass: 2
Flags: HMW
HStem: -127 76<320 352 320 404> -16 67<278.5 412.5> 0 21G<588 640 588 588> 285 64<362 576 362 640> 659 67<277.5 421>
VStem: 47 71<265.5 440 265.5 463> 320 84<-120 -51 -120 -51 -120 -51> 576 64<285 285> 586 54
AnchorPoint: "Anchor-3" 440.229 710 basechar 0
AnchorPoint: "Anchor-0" 278.95 -216 basechar 0
LayerCount: 2
Fore
SplineSet
309.215820312 -16 m 0xde80
 115.215820312 -16 26.0166015625 136 64.4560546875 354 c 0
 102.895507812 572 245.049804688 726 443.049804688 726 c 0
 602.049804688 726 677.123046875 630 679.083984375 488 c 1
 607.202148438 483 l 1
 605.421875 592 553.236328125 659 431.236328125 659 c 0
 266.236328125 659 165.784179688 526 135.456054688 354 c 0
 104.24609375 177 163.029296875 51 322.029296875 51 c 0
 454.029296875 51 552.309570312 149 581.290039062 285 c 1xdf
 367.290039062 285 l 1
 378.575195312 349 l 1
 656.575195312 349 l 1
 595.036132812 0 l 1
 543.036132812 0 l 1xbe80
 563.370117188 138 l 1
 515.676757812 49 420.215820312 -16 309.215820312 -16 c 0xde80
220.950195312 -216 m 1
 284.643554688 -127 l 1
 252.643554688 -127 l 1
 266.043945312 -51 l 1
 350.043945312 -51 l 1
 337.876953125 -120 l 1
 266.950195312 -216 l 1
 220.950195312 -216 l 1
EndSplineSet
Validated: 524321
Substitution2: "'ss06' Style Set 6 in Latin lookup 39 subtable" uni0122.ss06
Substitution2: "'aalt' Access All Alternates in Latin lookup 0 subtable" uni0122.ss06
EndChar

StartChar: Gdotaccent
Encoding: 288 288 41
Width: 692
GlyphClass: 2
Flags: HMW
HStem: -16 67<278.5 412.5> 0 21G<588 640 588 588> 285 64<362 576 362 640> 659 67<277.5 421> 798 89<325 395 325 395>
VStem: 47 71<265.5 440 265.5 463> 325 70<798 887 798 887> 576 64<285 285> 586 54
AnchorPoint: "Anchor-3" 408.401 710 basechar 0
AnchorPoint: "Anchor-0" 285.21 0 basechar 0
LayerCount: 2
Fore
SplineSet
388.918945312 798 m 1xbe80
 404.611328125 887 l 1
 474.611328125 887 l 1
 458.918945312 798 l 1
 388.918945312 798 l 1xbe80
277.388671875 -16 m 0
 83.388671875 -16 -5.8095703125 136 32.62890625 354 c 0
 71.068359375 572 213.22265625 726 411.22265625 726 c 0
 570.22265625 726 645.295898438 630 647.256835938 488 c 1
 575.375976562 483 l 1
 573.594726562 592 521.409179688 659 399.409179688 659 c 0
 234.409179688 659 133.958007812 526 103.62890625 354 c 0
 72.419921875 177 131.202148438 51 290.202148438 51 c 0
 422.202148438 51 520.482421875 149 549.462890625 285 c 1xbf
 335.462890625 285 l 1
 346.748046875 349 l 1
 624.748046875 349 l 1
 563.209960938 0 l 1
 511.209960938 0 l 1x7e80
 531.54296875 138 l 1
 483.849609375 49 388.388671875 -16 277.388671875 -16 c 0
EndSplineSet
Validated: 524321
Substitution2: "'ss08' Style Set 8 in Latin lookup 41 subtable" Gdotaccent.ss08
Substitution2: "'ss06' Style Set 6 in Latin lookup 39 subtable" Gdotaccent.ss06
AlternateSubs2: "'aalt' Access All Alternates in Latin lookup 1 subtable" Gdotaccent.ss06 Gdotaccent.ss08
EndChar

StartChar: uni1E20
Encoding: 7712 7712 42
Width: 692
GlyphClass: 2
Flags: HMW
HStem: -16 67<278.5 412.5> 0 21G<588 640 588 588> 285 64<362 576 362 640> 659 67<277.5 421> 811 58<229 491 229 491>
VStem: 47 71<265.5 440 265.5 463> 229 262<811 869 811 869> 576 64<285 285> 586 54
AnchorPoint: "Anchor-3" 409.988 710 basechar 0
AnchorPoint: "Anchor-0" 286.797 0 basechar 0
LayerCount: 2
Fore
SplineSet
296.797851562 811 m 1xbe80
 307.024414062 869 l 1
 569.024414062 869 l 1
 558.797851562 811 l 1
 296.797851562 811 l 1xbe80
278.975585938 -16 m 0
 84.9755859375 -16 -4.22265625 136 34.2158203125 354 c 0
 72.6552734375 572 214.809570312 726 412.809570312 726 c 0
 571.809570312 726 646.8828125 630 648.84375 488 c 1
 576.962890625 483 l 1
 575.181640625 592 522.99609375 659 400.99609375 659 c 0
 235.99609375 659 135.544921875 526 105.215820312 354 c 0
 74.0068359375 177 132.7890625 51 291.7890625 51 c 0
 423.7890625 51 522.069335938 149 551.049804688 285 c 1xbd
 337.049804688 285 l 1
 348.334960938 349 l 1
 626.334960938 349 l 1
 564.796875 0 l 1
 512.796875 0 l 1x7c80
 533.129882812 138 l 1
 485.436523438 49 389.975585938 -16 278.975585938 -16 c 0
EndSplineSet
Validated: 524321
Substitution2: "'ss06' Style Set 6 in Latin lookup 39 subtable" uni1E20.ss06
Substitution2: "'aalt' Access All Alternates in Latin lookup 0 subtable" uni1E20.ss06
EndChar

StartChar: uni01E4
Encoding: 484 484 43
Width: 734
GlyphClass: 2
Flags: HMW
HStem: -16 67<276.5 401 276.5 420.5> 156 55<362 545 362 566 362 615 630 692> 285 64<362 576 362 640> 659 67<279.5 422.5>
VStem: 47 71<265 442 265 462.5> 576 64<285 312>
AnchorPoint: "Anchor-3" 423.596 710 basechar 0
AnchorPoint: "Anchor-0" 298.404 0 basechar 0
LayerCount: 2
Fore
SplineSet
290.583007812 -16 m 0
 92.5830078125 -16 9.08984375 140 46.8232421875 354 c 0
 85.0869140625 571 228.416992188 726 427.416992188 726 c 0
 580.416992188 726 658.1953125 634 661.451171875 488 c 1
 589.5703125 483 l 1
 588.260742188 589 536.603515625 659 415.603515625 659 c 0
 250.603515625 659 148.857421875 530 117.823242188 354 c 0
 86.4375 176 143.396484375 51 302.396484375 51 c 0
 392.396484375 51 463.44921875 91 509.911132812 156 c 1
 326.911132812 156 l 1
 336.609375 211 l 1
 540.609375 211 l 1
 550.6640625 234 558.072265625 259 563.657226562 285 c 1
 349.657226562 285 l 1
 360.942382812 349 l 1
 638.942382812 349 l 1
 632.41796875 312 l 2
 626.0703125 276 617.075195312 242 604.609375 211 c 1
 666.609375 211 l 1
 656.911132812 156 l 1
 579.911132812 156 l 1
 519.69140625 47 419.583007812 -16 290.583007812 -16 c 0
EndSplineSet
Validated: 524321
EndChar

StartChar: H
Encoding: 72 72 44
Width: 701
GlyphClass: 2
Flags: HMW
HStem: 0 21G<93 93 93 161 539 539 539 607> 326 66<161 539 161 539> 690 20G<93 161 161 161 539 607 607 607>
VStem: 93 68<0 326 392 710> 539 68<0 326 326 326 392 710 0 710>
AnchorPoint: "Anchor-3" 413.596 710 basechar 0
AnchorPoint: "Anchor-1" 388.028 565 basechar 0
AnchorPoint: "Anchor-0" 288.404 0 basechar 0
LayerCount: 2
Fore
SplineSet
30.404296875 0 m 1
 155.595703125 710 l 1
 223.595703125 710 l 1
 167.524414062 392 l 1
 545.524414062 392 l 1
 601.595703125 710 l 1
 669.595703125 710 l 1
 544.404296875 0 l 1
 476.404296875 0 l 1
 533.88671875 326 l 1
 155.88671875 326 l 1
 98.404296875 0 l 1
 30.404296875 0 l 1
EndSplineSet
Validated: 524289
EndChar

StartChar: Hbar
Encoding: 294 294 45
Width: 701
GlyphClass: 2
Flags: HMW
HStem: 0 21G<93 93 93 161 539 539 539 607> 326 66<161 539 161 539> 534 63<17 93 17 93 161 539 607 684> 534 176<17 161 17 161 93 161 93 539>
VStem: 93 68<0 326 392 534 597 710> 539 68<0 326 326 326 392 534 0 534 597 710>
AnchorPoint: "Anchor-3" 413.596 710 basechar 0
AnchorPoint: "Anchor-1" 388.028 565 basechar 0
AnchorPoint: "Anchor-0" 288.404 0 basechar 0
LayerCount: 2
Fore
SplineSet
30.404296875 0 m 1xec
 124.5625 534 l 1
 48.5625 534 l 1
 59.6708984375 597 l 1
 135.670898438 597 l 1xec
 155.595703125 710 l 1
 223.595703125 710 l 1xdc
 203.670898438 597 l 1
 581.670898438 597 l 1xec
 601.595703125 710 l 1
 669.595703125 710 l 1xdc
 649.670898438 597 l 1
 726.670898438 597 l 1
 715.5625 534 l 1
 638.5625 534 l 1
 544.404296875 0 l 1
 476.404296875 0 l 1
 533.88671875 326 l 1
 155.88671875 326 l 1
 98.404296875 0 l 1
 30.404296875 0 l 1xec
167.524414062 392 m 1
 545.524414062 392 l 1
 570.5625 534 l 1
 192.5625 534 l 1
 167.524414062 392 l 1
EndSplineSet
Validated: 524289
EndChar

StartChar: Hcircumflex
Encoding: 292 292 46
Width: 701
GlyphClass: 2
Flags: HMW
HStem: 0 21G<93 93 93 161 539 539 539 607> 326 66<161 539 161 539> 690 20G<93 161 161 161 539 607 607 607> 782 130<227 386 227 386 316 419 316 475>
VStem: 93 68<0 326 392 710> 539 68<0 326 326 326 392 710 0 710>
AnchorPoint: "Anchor-3" 395.787 710 basechar 0
AnchorPoint: "Anchor-1" 370.22 565 basechar 0
AnchorPoint: "Anchor-0" 270.595 0 basechar 0
LayerCount: 2
Fore
SplineSet
284.482421875 782 m 1
 396.405273438 912 l 1
 466.405273438 912 l 1
 532.482421875 782 l 1
 476.482421875 782 l 1
 424.880859375 875 l 1
 340.482421875 782 l 1
 284.482421875 782 l 1
12.5947265625 0 m 1
 137.787109375 710 l 1
 205.787109375 710 l 1
 149.71484375 392 l 1
 527.71484375 392 l 1
 583.787109375 710 l 1
 651.787109375 710 l 1
 526.594726562 0 l 1
 458.594726562 0 l 1
 516.077148438 326 l 1
 138.077148438 326 l 1
 80.5947265625 0 l 1
 12.5947265625 0 l 1
EndSplineSet
Validated: 524289
EndChar

StartChar: I
Encoding: 73 73 47
Width: 255
GlyphClass: 2
Flags: HMW
HStem: 0 21G<93 93 93 161> 690 20G<93 161 161 161>
VStem: 93 68<0 710 0 710>
AnchorPoint: "Anchor-3" 189.596 710 basechar 0
AnchorPoint: "Anchor-2" 98.4043 0 basechar 0
AnchorPoint: "Anchor-0" 64.4043 0 basechar 0
LayerCount: 2
Fore
SplineSet
30.404296875 0 m 1
 155.595703125 710 l 1
 223.595703125 710 l 1
 98.404296875 0 l 1
 30.404296875 0 l 1
EndSplineSet
Validated: 524289
Substitution2: "'ss05' Style Set 5 in Latin lookup 38 subtable" I.ss05
Substitution2: "'aalt' Access All Alternates in Latin lookup 0 subtable" I.ss05
EndChar

StartChar: IJ
Encoding: 306 306 48
Width: 819
GlyphClass: 2
Flags: HMW
HStem: -16 67<473.5 568 473.5 587.5> 0 21G<93 93 93 161> 690 20G<93 161 161 161 673 741 741 741>
VStem: 93 68<0 710 0 710> 300 70<232 237> 673 68<248 710>
AnchorPoint: "Anchor-3" 772.007 710 basechar 0
AnchorPoint: "Anchor-2" 99.8145 0 basechar 0
AnchorPoint: "Anchor-0" 65.8145 0 basechar 0
LayerCount: 2
Fore
SplineSet
31.814453125 0 m 1x7c
 157.006835938 710 l 1
 225.006835938 710 l 1
 99.814453125 0 l 1
 31.814453125 0 l 1x7c
455.993164062 -16 m 0
 326.993164062 -16 254.44921875 83 279.72265625 232 c 1
 350.604492188 237 l 1
 330.444335938 117 374.807617188 51 467.807617188 51 c 0
 563.807617188 51 632.973632812 120 655.543945312 248 c 2
 737.006835938 710 l 1
 805.006835938 710 l 1
 723.543945312 248 l 2xbc
 694.44921875 83 590.993164062 -16 455.993164062 -16 c 0
EndSplineSet
Validated: 524321
EndChar

StartChar: Iacute
Encoding: 205 205 49
Width: 255
GlyphClass: 2
Flags: HMW
HStem: 0 21G<93 93 93 161> 690 20G<93 161 161 161> 782 124<98 240 98 240>
VStem: 93 68<0 710 0 710>
AnchorPoint: "Anchor-3" 172.316 710 basechar 0
AnchorPoint: "Anchor-2" 81.124 0 basechar 0
AnchorPoint: "Anchor-0" 47.124 0 basechar 0
LayerCount: 2
Fore
SplineSet
156.01171875 782 m 1
 245.875976562 906 l 1
 319.875976562 906 l 1
 211.01171875 782 l 1
 156.01171875 782 l 1
13.1240234375 0 m 1
 138.31640625 710 l 1
 206.31640625 710 l 1
 81.1240234375 0 l 1
 13.1240234375 0 l 1
EndSplineSet
Validated: 524289
Substitution2: "'ss05' Style Set 5 in Latin lookup 38 subtable" Iacute.ss05
Substitution2: "'aalt' Access All Alternates in Latin lookup 0 subtable" Iacute.ss05
EndChar

StartChar: Icircumflex
Encoding: 206 206 50
Width: 255
GlyphClass: 2
Flags: HMW
HStem: 0 21G<93 93 93 161> 690 20G<93 161 161 161> 782 130<3 163 3 163 93 196 93 252>
VStem: 93 68<0 710 0 710>
AnchorPoint: "Anchor-3" 171.787 710 basechar 0
AnchorPoint: "Anchor-2" 80.5947 0 basechar 0
AnchorPoint: "Anchor-0" 46.5947 0 basechar 0
LayerCount: 2
Fore
SplineSet
60.482421875 782 m 1
 173.405273438 912 l 1
 243.405273438 912 l 1
 309.482421875 782 l 1
 253.482421875 782 l 1
 201.880859375 875 l 1
 116.482421875 782 l 1
 60.482421875 782 l 1
12.5947265625 0 m 1
 137.787109375 710 l 1
 205.787109375 710 l 1
 80.5947265625 0 l 1
 12.5947265625 0 l 1
EndSplineSet
Validated: 524289
Substitution2: "'ss05' Style Set 5 in Latin lookup 38 subtable" Icircumflex.ss05
Substitution2: "'aalt' Access All Alternates in Latin lookup 0 subtable" Icircumflex.ss05
EndChar

StartChar: Idieresis
Encoding: 207 207 51
Width: 255
GlyphClass: 2
Flags: HMW
HStem: 0 21G<93 93 93 161> 690 20G<93 161 161 161> 798 89<13 83 13 83 172 242>
VStem: 13 70<798 887 798 887> 93 68<0 710 0 710> 172 70<798 887 798 887>
AnchorPoint: "Anchor-3" 173.991 710 basechar 0
AnchorPoint: "Anchor-2" 82.7988 0 basechar 0
AnchorPoint: "Anchor-0" 48.7988 0 basechar 0
LayerCount: 2
Fore
SplineSet
75.5078125 798 m 1
 91.201171875 887 l 1
 161.201171875 887 l 1
 145.5078125 798 l 1
 75.5078125 798 l 1
234.5078125 798 m 1
 250.201171875 887 l 1
 320.201171875 887 l 1
 304.5078125 798 l 1
 234.5078125 798 l 1
14.798828125 0 m 1xe8
 139.991210938 710 l 1
 207.991210938 710 l 1
 82.798828125 0 l 1
 14.798828125 0 l 1xe8
EndSplineSet
Validated: 524289
Substitution2: "'ss08' Style Set 8 in Latin lookup 41 subtable" Idieresis.ss08
Substitution2: "'ss05' Style Set 5 in Latin lookup 38 subtable" Idieresis.ss05
AlternateSubs2: "'aalt' Access All Alternates in Latin lookup 1 subtable" Idieresis.ss05 Idieresis.ss08
EndChar

StartChar: Idotaccent
Encoding: 304 304 52
Width: 255
GlyphClass: 2
Flags: HMW
HStem: 0 21G<93 93 93 161> 690 20G<93 161 161 161> 798 89<92 162 92 162>
VStem: 92 70<798 887 798 887> 93 68<0 710 0 710>
AnchorPoint: "Anchor-3" 173.991 710 basechar 0
AnchorPoint: "Anchor-2" 82.7988 0 basechar 0
AnchorPoint: "Anchor-0" 48.7988 0 basechar 0
LayerCount: 2
Fore
SplineSet
154.5078125 798 m 1xf0
 170.201171875 887 l 1
 240.201171875 887 l 1
 224.5078125 798 l 1
 154.5078125 798 l 1xf0
14.798828125 0 m 1xe8
 139.991210938 710 l 1
 207.991210938 710 l 1
 82.798828125 0 l 1
 14.798828125 0 l 1xe8
EndSplineSet
Validated: 524289
Substitution2: "'ss08' Style Set 8 in Latin lookup 41 subtable" Idotaccent.ss08
Substitution2: "'ss05' Style Set 5 in Latin lookup 38 subtable" Idotaccent.ss05
AlternateSubs2: "'aalt' Access All Alternates in Latin lookup 1 subtable" Idotaccent.ss05 Idotaccent.ss08
EndChar

StartChar: Igrave
Encoding: 204 204 53
Width: 255
GlyphClass: 2
Flags: HMW
HStem: 0 21G<93 93 93 161> 690 20G<93 161 161 161> 788 124<16 102 16 158>
VStem: 93 68<0 710 0 710>
AnchorPoint: "Anchor-3" 171.787 710 basechar 0
AnchorPoint: "Anchor-2" 80.5947 0 basechar 0
AnchorPoint: "Anchor-0" 46.5947 0 basechar 0
LayerCount: 2
Fore
SplineSet
160.541015625 788 m 1
 96.4052734375 912 l 1
 170.405273438 912 l 1
 216.541015625 788 l 1
 160.541015625 788 l 1
12.5947265625 0 m 1
 137.787109375 710 l 1
 205.787109375 710 l 1
 80.5947265625 0 l 1
 12.5947265625 0 l 1
EndSplineSet
Validated: 524289
Substitution2: "'ss05' Style Set 5 in Latin lookup 38 subtable" Igrave.ss05
Substitution2: "'aalt' Access All Alternates in Latin lookup 0 subtable" Igrave.ss05
EndChar

StartChar: Imacron
Encoding: 298 298 54
Width: 255
GlyphClass: 2
Flags: HMW
HStem: 0 21G<93 93 93 161> 690 20G<93 161 161 161> 811 58<-3 258 -3 258>
VStem: 93 68<0 710 0 710>
AnchorPoint: "Anchor-3" 175.578 710 basechar 0
AnchorPoint: "Anchor-2" 84.3857 0 basechar 0
AnchorPoint: "Anchor-0" 50.3857 0 basechar 0
LayerCount: 2
Fore
SplineSet
63.38671875 811 m 1
 73.6142578125 869 l 1
 334.614257812 869 l 1
 324.38671875 811 l 1
 63.38671875 811 l 1
16.3857421875 0 m 1
 141.578125 710 l 1
 209.578125 710 l 1
 84.3857421875 0 l 1
 16.3857421875 0 l 1
EndSplineSet
Validated: 524289
Substitution2: "'ss05' Style Set 5 in Latin lookup 38 subtable" Imacron.ss05
Substitution2: "'aalt' Access All Alternates in Latin lookup 0 subtable" Imacron.ss05
EndChar

StartChar: Iogonek
Encoding: 302 302 55
Width: 255
GlyphClass: 2
Flags: HMW
HStem: -204 54<120.5 137> 0 21G<93 93 93 106 161 161> 690 20G<93 161 161 161>
VStem: 35 62<-131 -119> 93 68<0 710 0 710>
AnchorPoint: "Anchor-3" 207.581 710 basechar 0
AnchorPoint: "Anchor-2" 116.39 0 basechar 0
AnchorPoint: "Anchor-0" 82.3896 0 basechar 0
LayerCount: 2
Fore
SplineSet
48.3896484375 0 m 1xe8
 173.581054688 710 l 1
 241.581054688 710 l 1
 116.389648438 0 l 1xe8
 76.4541015625 -45 l 2
 47.458984375 -79 34.9326171875 -99 31.0537109375 -121 c 0
 27.52734375 -141 39.9404296875 -150 58.9404296875 -150 c 0
 77.9404296875 -150 95.822265625 -145 109.409179688 -136 c 1
 122.650390625 -180 l 1
 104.181640625 -194 72.4189453125 -204 40.4189453125 -204 c 0
 -10.5810546875 -204 -41.87890625 -183 -33.767578125 -137 c 0xf0
 -27.419921875 -101 7.6337890625 -61 40.333984375 -23 c 2
 61.3896484375 0 l 1
 48.3896484375 0 l 1xe8
EndSplineSet
Validated: 524321
Substitution2: "'ss05' Style Set 5 in Latin lookup 38 subtable" Iogonek.ss05
Substitution2: "'aalt' Access All Alternates in Latin lookup 0 subtable" Iogonek.ss05
EndChar

StartChar: Itilde
Encoding: 296 296 56
Width: 255
GlyphClass: 2
Flags: HMW
HStem: 0 21G<93 93 93 161> 690 20G<93 161 161 161> 797 45<180 200.5 180 211> 853 45<51 75>
VStem: -24 43<790 790> 93 68<0 710 0 710> 230 44<908 908>
AnchorPoint: "Anchor-3" 172.14 710 basechar 0
AnchorPoint: "Anchor-2" 80.9473 0 basechar 0
AnchorPoint: "Anchor-0" 46.9473 0 basechar 0
LayerCount: 2
Fore
SplineSet
245.48046875 797 m 0
 218.48046875 797 200.243164062 807 182.59375 826 c 0
 164.944335938 845 156.354492188 853 134.354492188 853 c 0
 108.354492188 853 88.533203125 837 78.24609375 790 c 1
 35.24609375 790 l 1
 49.5888671875 860 92.2890625 898 142.2890625 898 c 0xde
 174.2890625 898 193.172851562 886 211.646484375 866 c 0
 228.649414062 849 240.415039062 842 256.415039062 842 c 0
 281.415039062 842 297.236328125 858 310.052734375 908 c 1
 354.052734375 908 l 1
 337.709960938 838 297.48046875 797 245.48046875 797 c 0
12.947265625 0 m 1
 138.139648438 710 l 1
 206.139648438 710 l 1
 80.947265625 0 l 1
 12.947265625 0 l 1
EndSplineSet
Validated: 524289
Substitution2: "'ss05' Style Set 5 in Latin lookup 38 subtable" Itilde.ss05
Substitution2: "'aalt' Access All Alternates in Latin lookup 0 subtable" Itilde.ss05
EndChar

StartChar: J
Encoding: 74 74 57
Width: 588
GlyphClass: 2
Flags: HMW
HStem: -16 67<242 336.5 242 355.5> 690 20G<442 510 510 510>
VStem: 68 70<232 237> 442 68<248 710>
AnchorPoint: "Anchor-3" 540.007 710 basechar 0
LayerCount: 2
Fore
SplineSet
223.993164062 -16 m 0
 95.9931640625 -16 23.44921875 83 47.72265625 232 c 1
 118.604492188 237 l 1
 99.4443359375 117 143.807617188 51 235.807617188 51 c 0
 332.807617188 51 401.973632812 120 424.543945312 248 c 2
 506.006835938 710 l 1
 574.006835938 710 l 1
 492.543945312 248 l 2
 463.44921875 83 358.993164062 -16 223.993164062 -16 c 0
EndSplineSet
Validated: 524321
Substitution2: "Single Substitution lookup 16 subtable" uni004A0301
Substitution2: "'aalt' Access All Alternates in Latin lookup 0 subtable" uni004A0301
EndChar

StartChar: uni004A0301
Encoding: 65537 -1 58
Width: 588
GlyphClass: 2
Flags: HMW
HStem: -16 67<242 336.5 242 355.5> 690 20G<442 510 510 510> 782 124<447 589 447 589>
VStem: 68 70<232 237> 442 68<248 710>
AnchorPoint: "Anchor-3" 522.727 710 basechar 0
LayerCount: 2
Fore
SplineSet
506.421875 782 m 1
 596.287109375 906 l 1
 670.287109375 906 l 1
 561.421875 782 l 1
 506.421875 782 l 1
206.712890625 -16 m 0
 78.712890625 -16 6.169921875 83 30.4423828125 232 c 1
 101.32421875 237 l 1
 82.1650390625 117 126.52734375 51 218.52734375 51 c 0
 315.52734375 51 384.693359375 120 407.263671875 248 c 2
 488.7265625 710 l 1
 556.7265625 710 l 1
 475.263671875 248 l 2
 446.169921875 83 341.712890625 -16 206.712890625 -16 c 0
EndSplineSet
Validated: 524321
EndChar

StartChar: Jcircumflex
Encoding: 308 308 59
Width: 588
GlyphClass: 2
Flags: HMW
HStem: -16 67<242 336.5 242 355.5> 690 20G<442 510 510 510> 782 130<352 512 352 512 442 545 442 601>
VStem: 68 70<232 237> 442 68<248 710>
AnchorPoint: "Anchor-3" 522.197 710 basechar 0
LayerCount: 2
Fore
SplineSet
410.893554688 782 m 1
 523.815429688 912 l 1
 593.815429688 912 l 1
 659.893554688 782 l 1
 603.893554688 782 l 1
 552.291992188 875 l 1
 466.893554688 782 l 1
 410.893554688 782 l 1
206.184570312 -16 m 0
 78.1845703125 -16 5.640625 83 29.9130859375 232 c 1
 100.794921875 237 l 1
 81.6357421875 117 125.998046875 51 217.998046875 51 c 0
 314.998046875 51 384.165039062 120 406.734375 248 c 2
 488.197265625 710 l 1
 556.197265625 710 l 1
 474.734375 248 l 2
 445.640625 83 341.184570312 -16 206.184570312 -16 c 0
EndSplineSet
Validated: 524321
EndChar

StartChar: K
Encoding: 75 75 60
Width: 632
GlyphClass: 2
Flags: HMW
HStem: 0 21G<93 93 93 161 533 533 533 615> 690 20G<93 161 161 161 509 595 595 595>
VStem: 93 68<0 236 330 710>
AnchorPoint: "Anchor-3" 386.596 710 basechar 0
AnchorPoint: "Anchor-0" 277.404 0 basechar 0
LayerCount: 2
Fore
SplineSet
30.404296875 0 m 1
 155.595703125 710 l 1
 223.595703125 710 l 1
 156.591796875 330 l 1
 571.595703125 710 l 1
 657.595703125 710 l 1
 321.287109375 402 l 1
 552.404296875 0 l 1
 470.404296875 0 l 1
 267.470703125 352 l 1
 140.016601562 236 l 1
 98.404296875 0 l 1
 30.404296875 0 l 1
EndSplineSet
Validated: 524289
EndChar

StartChar: uni01E8
Encoding: 488 488 61
Width: 632
GlyphClass: 2
Flags: HMW
HStem: 0 21G<93 93 93 161 533 533 533 615> 690 20G<93 161 161 161 509 595 595 595> 782 130<200 359 200 289>
VStem: 93 68<0 236 330 710>
AnchorPoint: "Anchor-3" 368.787 710 basechar 0
AnchorPoint: "Anchor-0" 259.595 0 basechar 0
LayerCount: 2
Fore
SplineSet
280.405273438 912 m 1
 336.405273438 912 l 1
 388.006835938 819 l 1
 473.405273438 912 l 1
 529.405273438 912 l 1
 416.482421875 782 l 1
 346.482421875 782 l 1
 280.405273438 912 l 1
12.5947265625 0 m 1
 137.787109375 710 l 1
 205.787109375 710 l 1
 138.783203125 330 l 1
 553.787109375 710 l 1
 639.787109375 710 l 1
 303.478515625 402 l 1
 534.594726562 0 l 1
 452.594726562 0 l 1
 249.662109375 352 l 1
 122.208007812 236 l 1
 80.5947265625 0 l 1
 12.5947265625 0 l 1
EndSplineSet
Validated: 524289
EndChar

StartChar: uni0136
Encoding: 310 310 62
Width: 632
GlyphClass: 2
Flags: HMW
HStem: -127 76<299 331 299 382> 0 21G<93 93 93 161 533 533 533 615> 690 20G<93 161 161 161 509 595 595 595>
VStem: 93 68<0 236 330 710> 299 83<-120 -51 -120 -51 -120 -51>
AnchorPoint: "Anchor-3" 405.64 710 basechar 0
AnchorPoint: "Anchor-0" 258.36 -216 basechar 0
LayerCount: 2
Fore
SplineSet
49.447265625 0 m 1
 174.639648438 710 l 1
 242.639648438 710 l 1
 175.634765625 330 l 1
 590.639648438 710 l 1
 676.639648438 710 l 1
 340.331054688 402 l 1
 571.447265625 0 l 1
 489.447265625 0 l 1
 286.514648438 352 l 1
 159.060546875 236 l 1
 117.447265625 0 l 1
 49.447265625 0 l 1
200.360351562 -216 m 1
 265.053710938 -127 l 1
 233.053710938 -127 l 1
 246.454101562 -51 l 1
 329.454101562 -51 l 1
 317.288085938 -120 l 1
 246.360351562 -216 l 1
 200.360351562 -216 l 1
EndSplineSet
Validated: 524289
EndChar

StartChar: L
Encoding: 76 76 63
Width: 570
GlyphClass: 2
Flags: HMW
HStem: 0 66<161 525 161 525> 690 20G<93 161 161 161>
VStem: 93 68<66 710 66 710 66 710>
AnchorPoint: "Anchor-4" 397.857 530 basechar 0
AnchorPoint: "Anchor-3" 189.596 710 basechar 0
AnchorPoint: "Anchor-1" 167.408 380 basechar 0
AnchorPoint: "Anchor-0" 247.404 0 basechar 0
LayerCount: 2
Fore
SplineSet
30.404296875 0 m 1
 155.595703125 710 l 1
 223.595703125 710 l 1
 110.041015625 66 l 1
 474.041015625 66 l 1
 462.404296875 0 l 1
 30.404296875 0 l 1
EndSplineSet
Validated: 524289
EndChar

StartChar: Lacute
Encoding: 313 313 64
Width: 570
GlyphClass: 2
Flags: HMW
HStem: 0 66<161 525 161 525> 690 20G<93 161 161 161> 782 124<98 240 98 240>
VStem: 93 68<66 710 66 710 66 710>
AnchorPoint: "Anchor-4" 380.577 530 basechar 0
AnchorPoint: "Anchor-3" 172.316 710 basechar 0
AnchorPoint: "Anchor-1" 150.128 380 basechar 0
AnchorPoint: "Anchor-0" 230.124 0 basechar 0
LayerCount: 2
Fore
SplineSet
156.01171875 782 m 1
 245.875976562 906 l 1
 319.875976562 906 l 1
 211.01171875 782 l 1
 156.01171875 782 l 1
13.1240234375 0 m 1
 138.31640625 710 l 1
 206.31640625 710 l 1
 92.76171875 66 l 1
 456.76171875 66 l 1
 445.124023438 0 l 1
 13.1240234375 0 l 1
EndSplineSet
Validated: 524289
EndChar

StartChar: Lcaron
Encoding: 317 317 65
Width: 570
GlyphClass: 2
Flags: HMW
HStem: 0 66<161 525 161 525> 690 20G<93 161 161 161 418 485 485 485>
VStem: 93 68<66 710 66 710 66 710>
AnchorPoint: "Anchor-4" 397.857 530 basechar 0
AnchorPoint: "Anchor-3" 189.596 710 basechar 0
AnchorPoint: "Anchor-1" 167.408 380 basechar 0
AnchorPoint: "Anchor-0" 247.404 0 basechar 0
LayerCount: 2
Fore
SplineSet
30.404296875 0 m 1
 155.595703125 710 l 1
 223.595703125 710 l 1
 110.041015625 66 l 1
 474.041015625 66 l 1
 462.404296875 0 l 1
 30.404296875 0 l 1
407.454101562 471 m 1
 480.595703125 710 l 1
 547.595703125 710 l 1
 457.454101562 471 l 1
 407.454101562 471 l 1
EndSplineSet
Validated: 524289
EndChar

StartChar: uni013B
Encoding: 315 315 66
Width: 570
GlyphClass: 2
Flags: HMW
HStem: -127 76<268 300 268 351> 0 66<161 525 161 525> 690 20G<93 161 161 161>
VStem: 93 68<66 710 66 710 66 710> 268 83<-120 -51 -120 -51 -120 -51>
AnchorPoint: "Anchor-4" 416.9 530 basechar 0
AnchorPoint: "Anchor-3" 208.64 710 basechar 0
AnchorPoint: "Anchor-1" 186.451 380 basechar 0
AnchorPoint: "Anchor-0" 228.36 -216 basechar 0
LayerCount: 2
Fore
SplineSet
49.447265625 0 m 1
 174.639648438 710 l 1
 242.639648438 710 l 1
 129.084960938 66 l 1
 493.084960938 66 l 1
 481.447265625 0 l 1
 49.447265625 0 l 1
169.360351562 -216 m 1
 234.053710938 -127 l 1
 202.053710938 -127 l 1
 215.454101562 -51 l 1
 298.454101562 -51 l 1
 286.288085938 -120 l 1
 215.360351562 -216 l 1
 169.360351562 -216 l 1
EndSplineSet
Validated: 524289
Substitution2: "'locl' Localized Forms in Latin lookup 11 subtable" uni013B.loclMAH
Substitution2: "'aalt' Access All Alternates in Latin lookup 0 subtable" uni013B.loclMAH
EndChar

StartChar: Lslash
Encoding: 321 321 67
Width: 570
GlyphClass: 2
Flags: HMW
HStem: 0 66<161 525 161 525> 690 20G<93 161 161 161>
VStem: 93 68<66 315 315 315 409 710>
AnchorPoint: "Anchor-4" 397.857 530 basechar 0
AnchorPoint: "Anchor-3" 189.596 710 basechar 0
AnchorPoint: "Anchor-1" 167.408 380 basechar 0
AnchorPoint: "Anchor-0" 247.404 0 basechar 0
LayerCount: 2
Fore
SplineSet
30.404296875 0 m 1
 85.947265625 315 l 1
 8.775390625 280 l 1
 19.1787109375 339 l 1
 96.5263671875 375 l 1
 155.595703125 710 l 1
 223.595703125 710 l 1
 170.521484375 409 l 1
 325.041015625 480 l 1
 314.637695312 421 l 1
 160.118164062 350 l 1
 110.041015625 66 l 1
 474.041015625 66 l 1
 462.404296875 0 l 1
 30.404296875 0 l 1
EndSplineSet
Validated: 524289
EndChar

StartChar: M
Encoding: 77 77 68
Width: 868
GlyphClass: 2
Flags: HMW
HStem: 0 21G<93 93 93 161 390 390 390 478 707 707 707 775> 0 74<390 434 434 434 434 478> 593 117<161 161 707 707> 690 20G<93 191 191 191 677 775 775 775>
VStem: 93 68<0 593 0 710> 707 68<0 593 593 593>
AnchorPoint: "Anchor-3" 496.596 710 basechar 0
AnchorPoint: "Anchor-0" 371.404 0 basechar 0
LayerCount: 2
Fore
SplineSet
30.404296875 0 m 1xac
 155.595703125 710 l 1
 253.595703125 710 l 1
 384.452148438 74 l 1x5c
 739.595703125 710 l 1
 837.595703125 710 l 1
 712.404296875 0 l 1
 644.404296875 0 l 1
 748.965820312 593 l 1
 415.404296875 0 l 1
 327.404296875 0 l 1
 202.965820312 593 l 1
 98.404296875 0 l 1
 30.404296875 0 l 1xac
EndSplineSet
Validated: 524289
EndChar

StartChar: N
Encoding: 78 78 69
Width: 732
GlyphClass: 2
Flags: HMW
HStem: 0 67<538 571 571 571 571 639> 635 75<161 161>
VStem: 93 68<0 635 0 710> 571 68<67 710 0 710>
AnchorPoint: "Anchor-3" 438.596 710 basechar 0
AnchorPoint: "Anchor-0" 304.404 0 basechar 0
LayerCount: 2
Fore
SplineSet
30.404296875 0 m 1
 155.595703125 710 l 1
 252.595703125 710 l 1
 520.217773438 67 l 1
 633.595703125 710 l 1
 701.595703125 710 l 1
 576.404296875 0 l 1
 475.404296875 0 l 1
 210.37109375 635 l 1
 98.404296875 0 l 1
 30.404296875 0 l 1
EndSplineSet
Validated: 524289
EndChar

StartChar: Nacute
Encoding: 323 323 70
Width: 732
GlyphClass: 2
Flags: HMW
HStem: 0 67<538 571 571 571 571 639> 635 75<161 161> 782 124<347 489 347 489>
VStem: 93 68<0 635 0 710> 571 68<67 710 0 710>
AnchorPoint: "Anchor-3" 421.316 710 basechar 0
AnchorPoint: "Anchor-0" 287.124 0 basechar 0
LayerCount: 2
Fore
SplineSet
405.01171875 782 m 1
 494.875976562 906 l 1
 568.875976562 906 l 1
 460.01171875 782 l 1
 405.01171875 782 l 1
13.1240234375 0 m 1
 138.31640625 710 l 1
 235.31640625 710 l 1
 502.9375 67 l 1
 616.31640625 710 l 1
 684.31640625 710 l 1
 559.124023438 0 l 1
 458.124023438 0 l 1
 193.091796875 635 l 1
 81.1240234375 0 l 1
 13.1240234375 0 l 1
EndSplineSet
Validated: 524289
EndChar

StartChar: Ncaron
Encoding: 327 327 71
Width: 732
GlyphClass: 2
Flags: HMW
HStem: 0 67<538 571 571 571 571 639> 635 75<161 161> 782 130<252 411 252 341>
VStem: 93 68<0 635 0 710> 571 68<67 710 0 710>
AnchorPoint: "Anchor-3" 420.787 710 basechar 0
AnchorPoint: "Anchor-0" 286.595 0 basechar 0
LayerCount: 2
Fore
SplineSet
332.405273438 912 m 1
 388.405273438 912 l 1
 440.006835938 819 l 1
 524.405273438 912 l 1
 580.405273438 912 l 1
 468.482421875 782 l 1
 398.482421875 782 l 1
 332.405273438 912 l 1
12.5947265625 0 m 1
 137.787109375 710 l 1
 234.787109375 710 l 1
 502.409179688 67 l 1
 615.787109375 710 l 1
 683.787109375 710 l 1
 558.594726562 0 l 1
 457.594726562 0 l 1
 192.5625 635 l 1
 80.5947265625 0 l 1
 12.5947265625 0 l 1
EndSplineSet
Validated: 524289
EndChar

StartChar: uni0145
Encoding: 325 325 72
Width: 732
GlyphClass: 2
Flags: HMW
HStem: -127 76<326 358 326 409> 0 67<538 571 571 571 571 639> 635 75<161 161>
VStem: 93 68<0 635 0 710> 326 83<-120 -51 -120 -51 -120 -51> 571 68<67 710 0 710>
AnchorPoint: "Anchor-3" 457.64 710 basechar 0
AnchorPoint: "Anchor-0" 285.36 -216 basechar 0
LayerCount: 2
Fore
SplineSet
49.447265625 0 m 1
 174.639648438 710 l 1
 271.639648438 710 l 1
 539.260742188 67 l 1
 652.639648438 710 l 1
 720.639648438 710 l 1
 595.447265625 0 l 1
 494.447265625 0 l 1
 229.415039062 635 l 1
 117.447265625 0 l 1
 49.447265625 0 l 1
227.360351562 -216 m 1
 292.053710938 -127 l 1
 260.053710938 -127 l 1
 273.454101562 -51 l 1
 356.454101562 -51 l 1
 344.288085938 -120 l 1
 273.360351562 -216 l 1
 227.360351562 -216 l 1
EndSplineSet
Validated: 524289
Substitution2: "'locl' Localized Forms in Latin lookup 11 subtable" uni0145.loclMAH
Substitution2: "'aalt' Access All Alternates in Latin lookup 0 subtable" uni0145.loclMAH
EndChar

StartChar: Ntilde
Encoding: 209 209 73
Width: 732
GlyphClass: 2
Flags: HMW
HStem: 0 67<538 571 571 571 571 639> 635 75<161 161> 690 20G<93 190 190 190 571 639 639 639> 797 45<428 449 428 460> 853 45<300 323.5>
VStem: 93 68<0 635 0 710> 224 44<790 790> 479 43<908 908> 571 68<67 710 0 710>
AnchorPoint: "Anchor-3" 421.14 710 basechar 0
AnchorPoint: "Anchor-0" 286.947 0 basechar 0
LayerCount: 2
Fore
SplineSet
494.48046875 797 m 0xb580
 467.48046875 797 449.243164062 807 431.59375 826 c 0
 413.944335938 845 404.354492188 853 383.354492188 853 c 0
 357.354492188 853 337.533203125 837 327.24609375 790 c 1
 283.24609375 790 l 1
 298.588867188 860 341.2890625 898 391.2890625 898 c 0xce80
 423.2890625 898 442.172851562 886 460.646484375 866 c 0
 477.649414062 849 488.415039062 842 504.415039062 842 c 0
 530.415039062 842 546.236328125 858 559.052734375 908 c 1
 602.052734375 908 l 1
 585.709960938 838 546.48046875 797 494.48046875 797 c 0xb580
12.947265625 0 m 1
 138.139648438 710 l 1
 235.139648438 710 l 1
 502.76171875 67 l 1
 616.139648438 710 l 1
 684.139648438 710 l 1
 558.947265625 0 l 1
 457.947265625 0 l 1
 192.915039062 635 l 1
 80.947265625 0 l 1
 12.947265625 0 l 1
EndSplineSet
Validated: 524289
EndChar

StartChar: Eng
Encoding: 330 330 74
Width: 732
GlyphClass: 2
Flags: HMW
HStem: -150 63<397 498 397 499> 0 21G<93 93 93 161 538 538 538 571> 0 68<538 571 538 571> 634 76<161 161> 690 20G<93 190 190 190 571 639 639 639>
VStem: 93 68<0 634 0 710> 571 68<-15 0 0 0 68 710>
AnchorPoint: "Anchor-3" 442.82 710 basechar 0
AnchorPoint: "Anchor-0" 291.18 -150 basechar 0
LayerCount: 2
Fore
SplineSet
43.62890625 0 m 1xd6
 168.8203125 710 l 1
 265.8203125 710 l 1
 533.619140625 68 l 1xae
 646.8203125 710 l 1
 714.8203125 710 l 1
 586.983398438 -15 l 2
 572.701171875 -96 509.1796875 -150 422.1796875 -150 c 2
 321.1796875 -150 l 1
 332.288085938 -87 l 1
 434.288085938 -87 l 2
 481.288085938 -87 511.401367188 -58 518.983398438 -15 c 2
 521.62890625 0 l 1
 488.62890625 0 l 1
 223.419921875 634 l 1
 111.62890625 0 l 1
 43.62890625 0 l 1xd6
EndSplineSet
Validated: 524289
EndChar

StartChar: O
Encoding: 79 79 75
Width: 731
GlyphClass: 2
Flags: HMW
HStem: -16 67<288 442 288 464.5> 659 67<288 442>
VStem: 47 71<259.5 449 259.5 469> 613 71<259.5 449>
AnchorPoint: "Anchor-3" 427.596 710 basechar 0
AnchorPoint: "Anchor-1" 366 355 basechar 0
AnchorPoint: "Anchor-0" 302.404 0 basechar 0
LayerCount: 2
Fore
SplineSet
299.583007812 -16 m 0
 101.583007812 -16 6.4443359375 125 46.8232421875 354 c 0
 87.37890625 584 232.416992188 726 430.416992188 726 c 0
 629.416992188 726 724.37890625 584 683.823242188 354 c 0
 643.444335938 125 498.583007812 -16 299.583007812 -16 c 0
311.396484375 51 m 0
 465.396484375 51 579.498046875 165 612.823242188 354 c 0
 646.326171875 544 572.603515625 659 418.603515625 659 c 0
 264.603515625 659 151.326171875 544 117.823242188 354 c 0
 84.498046875 165 157.396484375 51 311.396484375 51 c 0
EndSplineSet
Validated: 524321
Substitution2: "Single Substitution lookup 27 subtable" ordmasculine
Substitution2: "'aalt' Access All Alternates in Latin lookup 0 subtable" ordmasculine
EndChar

StartChar: Oacute
Encoding: 211 211 76
Width: 731
GlyphClass: 2
Flags: HMW
HStem: -16 67<288 442 288 464.5> 659 67<288 442> 782 124<336 478 336 478>
VStem: 47 71<259.5 449 259.5 469> 613 71<259.5 449>
AnchorPoint: "Anchor-3" 411.727 710 basechar 0
AnchorPoint: "Anchor-1" 350.131 355 basechar 0
AnchorPoint: "Anchor-0" 286.534 0 basechar 0
LayerCount: 2
Fore
SplineSet
395.421875 782 m 1
 485.287109375 906 l 1
 559.287109375 906 l 1
 450.421875 782 l 1
 395.421875 782 l 1
283.712890625 -16 m 0
 85.712890625 -16 -9.4248046875 125 30.9541015625 354 c 0
 71.509765625 584 216.547851562 726 414.547851562 726 c 0
 613.547851562 726 708.509765625 584 667.954101562 354 c 0
 627.575195312 125 482.712890625 -16 283.712890625 -16 c 0
295.52734375 51 m 0
 449.52734375 51 563.62890625 165 596.954101562 354 c 0
 630.456054688 544 556.734375 659 402.734375 659 c 0
 248.734375 659 135.456054688 544 101.954101562 354 c 0
 68.62890625 165 141.52734375 51 295.52734375 51 c 0
EndSplineSet
Validated: 524321
EndChar

StartChar: Ocircumflex
Encoding: 212 212 77
Width: 731
GlyphClass: 2
Flags: HMW
HStem: -16 67<288 442 288 464.5> 659 67<288 442> 782 130<241 400 241 400 330 434 330 490>
VStem: 47 71<259.5 449 259.5 469> 613 71<259.5 449>
AnchorPoint: "Anchor-3" 411.197 710 basechar 0
AnchorPoint: "Anchor-1" 349.602 355 basechar 0
AnchorPoint: "Anchor-0" 286.006 0 basechar 0
LayerCount: 2
Fore
SplineSet
299.893554688 782 m 1
 411.815429688 912 l 1
 481.815429688 912 l 1
 548.893554688 782 l 1
 492.893554688 782 l 1
 440.291992188 875 l 1
 355.893554688 782 l 1
 299.893554688 782 l 1
283.184570312 -16 m 0
 85.1845703125 -16 -9.9541015625 125 30.4248046875 354 c 0
 70.98046875 584 216.018554688 726 414.018554688 726 c 0
 613.018554688 726 707.98046875 584 667.424804688 354 c 0
 627.045898438 125 482.184570312 -16 283.184570312 -16 c 0
294.998046875 51 m 0
 448.998046875 51 563.099609375 165 596.424804688 354 c 0
 629.927734375 544 556.205078125 659 402.205078125 659 c 0
 248.205078125 659 134.927734375 544 101.424804688 354 c 0
 68.099609375 165 140.998046875 51 294.998046875 51 c 0
EndSplineSet
Validated: 524321
EndChar

StartChar: Odieresis
Encoding: 214 214 78
Width: 731
GlyphClass: 2
Flags: HMW
HStem: -16 67<288 442 288 464.5> 659 67<288 442> 798 89<251 321 251 321 409 479 251 409>
VStem: 47 71<259.5 449 259.5 469> 251 70<798 887 798 887> 409 70<798 887 798 887> 613 71<259.5 449>
AnchorPoint: "Anchor-3" 413.401 710 basechar 0
AnchorPoint: "Anchor-1" 351.806 355 basechar 0
AnchorPoint: "Anchor-0" 288.21 0 basechar 0
LayerCount: 2
Fore
SplineSet
314.918945312 798 m 1
 330.611328125 887 l 1
 400.611328125 887 l 1
 384.918945312 798 l 1
 314.918945312 798 l 1
472.918945312 798 m 1
 488.611328125 887 l 1
 558.611328125 887 l 1
 542.918945312 798 l 1
 472.918945312 798 l 1
285.388671875 -16 m 0
 87.388671875 -16 -7.75 125 32.62890625 354 c 0
 73.1845703125 584 218.22265625 726 416.22265625 726 c 0
 615.22265625 726 710.184570312 584 669.62890625 354 c 0
 629.25 125 484.388671875 -16 285.388671875 -16 c 0
297.202148438 51 m 0
 451.202148438 51 565.303710938 165 598.62890625 354 c 0
 632.131835938 544 558.409179688 659 404.409179688 659 c 0
 250.409179688 659 137.131835938 544 103.62890625 354 c 0
 70.3037109375 165 143.202148438 51 297.202148438 51 c 0
EndSplineSet
Validated: 524321
Substitution2: "'ss08' Style Set 8 in Latin lookup 41 subtable" Odieresis.ss08
Substitution2: "'aalt' Access All Alternates in Latin lookup 0 subtable" Odieresis.ss08
EndChar

StartChar: Ograve
Encoding: 210 210 79
Width: 731
GlyphClass: 2
Flags: HMW
HStem: -16 67<288 442 288 464.5> 659 67<288 442> 788 124<253 340 253 395>
VStem: 47 71<259.5 449 259.5 469> 613 71<259.5 449>
AnchorPoint: "Anchor-3" 411.197 710 basechar 0
AnchorPoint: "Anchor-1" 349.602 355 basechar 0
AnchorPoint: "Anchor-0" 286.006 0 basechar 0
LayerCount: 2
Fore
SplineSet
399.951171875 788 m 1
 334.815429688 912 l 1
 408.815429688 912 l 1
 454.951171875 788 l 1
 399.951171875 788 l 1
283.184570312 -16 m 0
 85.1845703125 -16 -9.9541015625 125 30.4248046875 354 c 0
 70.98046875 584 216.018554688 726 414.018554688 726 c 0
 613.018554688 726 707.98046875 584 667.424804688 354 c 0
 627.045898438 125 482.184570312 -16 283.184570312 -16 c 0
294.998046875 51 m 0
 448.998046875 51 563.099609375 165 596.424804688 354 c 0
 629.927734375 544 556.205078125 659 402.205078125 659 c 0
 248.205078125 659 134.927734375 544 101.424804688 354 c 0
 68.099609375 165 140.998046875 51 294.998046875 51 c 0
EndSplineSet
Validated: 524321
EndChar

StartChar: Ohungarumlaut
Encoding: 336 336 80
Width: 731
GlyphClass: 2
Flags: HMW
HStem: -16 67<288 442 288 464.5> 659 67<288 442> 782 124<276 418 276 418 394 418 344 450 394 394>
VStem: 47 71<259.5 449 259.5 469> 613 71<259.5 449>
AnchorPoint: "Anchor-3" 411.727 710 basechar 0
AnchorPoint: "Anchor-1" 350.131 355 basechar 0
AnchorPoint: "Anchor-0" 286.534 0 basechar 0
LayerCount: 2
Fore
SplineSet
335.421875 782 m 1
 425.287109375 906 l 1
 499.287109375 906 l 1
 390.421875 782 l 1
 335.421875 782 l 1
453.421875 782 m 1
 543.287109375 906 l 1
 617.287109375 906 l 1
 509.421875 782 l 1
 453.421875 782 l 1
283.712890625 -16 m 0
 85.712890625 -16 -9.4248046875 125 30.9541015625 354 c 0
 71.509765625 584 216.547851562 726 414.547851562 726 c 0
 613.547851562 726 708.509765625 584 667.954101562 354 c 0
 627.575195312 125 482.712890625 -16 283.712890625 -16 c 0
295.52734375 51 m 0
 449.52734375 51 563.62890625 165 596.954101562 354 c 0
 630.456054688 544 556.734375 659 402.734375 659 c 0
 248.734375 659 135.456054688 544 101.954101562 354 c 0
 68.62890625 165 141.52734375 51 295.52734375 51 c 0
EndSplineSet
Validated: 524321
EndChar

StartChar: Omacron
Encoding: 332 332 81
Width: 731
GlyphClass: 2
Flags: HMW
HStem: -16 67<288 442 288 464.5> 659 67<288 442> 811 58<234 496 234 496>
VStem: 47 71<259.5 449 259.5 469> 234 262<811 869 811 869> 613 71<259.5 449>
AnchorPoint: "Anchor-3" 414.988 710 basechar 0
AnchorPoint: "Anchor-1" 353.393 355 basechar 0
AnchorPoint: "Anchor-0" 289.797 0 basechar 0
LayerCount: 2
Fore
SplineSet
301.797851562 811 m 1
 312.024414062 869 l 1
 574.024414062 869 l 1
 563.797851562 811 l 1
 301.797851562 811 l 1
286.975585938 -16 m 0
 88.9755859375 -16 -6.162109375 125 34.2158203125 354 c 0
 74.771484375 584 219.809570312 726 417.809570312 726 c 0
 616.809570312 726 711.771484375 584 671.215820312 354 c 0
 630.837890625 125 485.975585938 -16 286.975585938 -16 c 0
298.7890625 51 m 0
 452.7890625 51 566.890625 165 600.215820312 354 c 0
 633.71875 544 559.99609375 659 405.99609375 659 c 0
 251.99609375 659 138.71875 544 105.215820312 354 c 0
 71.890625 165 144.7890625 51 298.7890625 51 c 0
EndSplineSet
Validated: 524321
EndChar

StartChar: Oslash
Encoding: 216 216 82
Width: 731
GlyphClass: 2
Flags: HMW
HStem: -16 67<336.5 442 336.5 464.5> 659 67<288 393.5>
VStem: 47 71<308 449 308 469> 613 71<259.5 400.5>
AnchorPoint: "Anchor-3" 427.596 710 basechar 0
AnchorPoint: "Anchor-1" 366 355 basechar 0
AnchorPoint: "Anchor-0" 302.404 0 basechar 0
LayerCount: 2
Fore
SplineSet
11.5830078125 -16 m 1
 89.62890625 75 l 1
 40.9130859375 139 25.6640625 234 46.8232421875 354 c 0
 87.37890625 584 232.416992188 726 430.416992188 726 c 0
 503.416992188 726 562.067382812 707 604.895507812 672 c 1
 652.416992188 726 l 1
 719.416992188 726 l 1
 640.37109375 635 l 1
 688.91015625 570 704.983398438 474 683.823242188 354 c 0
 643.444335938 125 498.583007812 -16 299.583007812 -16 c 0
 227.583007812 -16 168.932617188 3 125.104492188 38 c 1
 78.5830078125 -16 l 1
 11.5830078125 -16 l 1
117.823242188 354 m 0
 101.6015625 262 110.376953125 187 142.208007812 135 c 1
 555.668945312 614 l 1
 521.782226562 643 475.603515625 659 418.603515625 659 c 0
 264.603515625 659 151.326171875 544 117.823242188 354 c 0
311.396484375 51 m 0
 465.396484375 51 579.498046875 165 612.823242188 354 c 0
 629.221679688 447 619.446289062 522 588.615234375 574 c 1
 175.331054688 96 l 1
 208.041015625 66 254.396484375 51 311.396484375 51 c 0
EndSplineSet
Validated: 524321
EndChar

StartChar: Otilde
Encoding: 213 213 83
Width: 731
GlyphClass: 2
Flags: HMW
HStem: -16 67<288 442 288 464.5> 659 67<288 442> 797 45<417 438 417 449> 853 45<289 312.5>
VStem: 47 71<259.5 449 259.5 469> 213 44<790 790> 468 43<908 908> 613 71<259.5 449>
AnchorPoint: "Anchor-3" 411.551 710 basechar 0
AnchorPoint: "Anchor-1" 349.954 355 basechar 0
AnchorPoint: "Anchor-0" 286.358 0 basechar 0
LayerCount: 2
Fore
SplineSet
484.890625 797 m 0
 457.890625 797 439.654296875 807 422.00390625 826 c 0
 404.354492188 845 394.764648438 853 373.764648438 853 c 0
 347.764648438 853 327.944335938 837 317.65625 790 c 1
 273.65625 790 l 1
 288.999023438 860 331.700195312 898 381.700195312 898 c 0xdd
 413.700195312 898 432.583984375 886 451.057617188 866 c 0
 468.059570312 849 478.825195312 842 494.825195312 842 c 0
 520.825195312 842 536.646484375 858 549.462890625 908 c 1
 592.462890625 908 l 1
 576.120117188 838 536.890625 797 484.890625 797 c 0
283.537109375 -16 m 0
 85.537109375 -16 -9.6005859375 125 30.7783203125 354 c 0
 71.3330078125 584 216.37109375 726 414.37109375 726 c 0
 613.37109375 726 708.333007812 584 667.778320312 354 c 0
 627.399414062 125 482.537109375 -16 283.537109375 -16 c 0
295.350585938 51 m 0
 449.350585938 51 563.452148438 165 596.778320312 354 c 0
 630.280273438 544 556.557617188 659 402.557617188 659 c 0
 248.557617188 659 135.280273438 544 101.778320312 354 c 0
 68.4521484375 165 141.350585938 51 295.350585938 51 c 0
EndSplineSet
Validated: 524321
EndChar

StartChar: OE
Encoding: 338 338 84
Width: 1084
GlyphClass: 2
Flags: HMW
HStem: -16 67<284 421> 0 66<683 1030 683 1030> 323 65<683 1010 683 1010> 644 66<683 1022 683 683> 659 67<283.5 421 264 445>
VStem: 47 71<263 444 263 464.5> 613 70<263 323 388 444> 615 68<66 124 124 124 585 644>
AnchorPoint: "Anchor-3" 603.596 710 basechar 0
AnchorPoint: "Anchor-0" 478.404 0 basechar 0
LayerCount: 2
Fore
SplineSet
298.583007812 -16 m 0xb5
 99.5830078125 -16 8.03125 134 46.8232421875 354 c 0
 85.7919921875 575 229.416992188 726 429.416992188 726 c 0xae
 543.416992188 726 620.424804688 675 655.555664062 585 c 1
 677.595703125 710 l 1
 1084.59570312 710 l 1
 1072.95898438 644 l 1
 733.958984375 644 l 1
 688.818359375 388 l 1
 1015.81835938 388 l 1
 1004.35742188 323 l 1
 677.357421875 323 l 1
 632.041015625 66 l 1
 979.041015625 66 l 1
 967.404296875 0 l 1
 552.404296875 0 l 1x75
 574.268554688 124 l 1
 507.751953125 36 412.583007812 -16 298.583007812 -16 c 0xb5
310.396484375 51 m 0
 471.396484375 51 580.732421875 172 612.823242188 354 c 0
 644.5625 534 579.603515625 659 417.603515625 659 c 0
 256.603515625 659 149.5625 534 117.823242188 354 c 0
 85.732421875 172 150.396484375 51 310.396484375 51 c 0
EndSplineSet
Validated: 524321
EndChar

StartChar: P
Encoding: 80 80 85
Width: 639
GlyphClass: 2
Flags: HMW
HStem: 0 21G<93 93 93 161> 286 66<161 342 161 342> 644 66<161 342 161 161>
VStem: 93 68<0 286 352 644> 518 72<450.5 546>
AnchorPoint: "Anchor-3" 382.596 710 basechar 0
AnchorPoint: "Anchor-0" 257.404 0 basechar 0
LayerCount: 2
Fore
SplineSet
30.404296875 0 m 1
 155.595703125 710 l 1
 404.595703125 710 l 2
 560.595703125 710 638.490234375 630 615.21484375 498 c 0
 591.939453125 366 485.833007812 286 329.833007812 286 c 2
 148.833007812 286 l 1
 98.404296875 0 l 1
 30.404296875 0 l 1
160.470703125 352 m 1
 341.470703125 352 l 2
 457.470703125 352 526.463867188 403 543.21484375 498 c 0
 560.142578125 594 508.958984375 644 392.958984375 644 c 2
 211.958984375 644 l 1
 160.470703125 352 l 1
EndSplineSet
Validated: 524321
EndChar

StartChar: Thorn
Encoding: 222 222 86
Width: 609
GlyphClass: 2
Flags: HMW
HStem: 0 21G<93 93 93 161> 155 66<161 308 161 308> 512 66<161 308 161 308> 690 20G<93 161 161 161>
VStem: 93 68<0 155 0 221 221 512 578 710> 488 72<316 414.5>
AnchorPoint: "Anchor-3" 367.596 710 basechar 0
AnchorPoint: "Anchor-0" 242.404 0 basechar 0
LayerCount: 2
Fore
SplineSet
30.404296875 0 m 1
 155.595703125 710 l 1
 223.595703125 710 l 1
 200.321289062 578 l 1
 347.321289062 578 l 2
 507.321289062 578 585.21484375 498 561.763671875 365 c 0
 538.311523438 232 432.734375 155 272.734375 155 c 2
 125.734375 155 l 1
 98.404296875 0 l 1
 30.404296875 0 l 1
335.68359375 512 m 2
 188.68359375 512 l 1
 137.372070312 221 l 1
 284.372070312 221 l 2
 401.372070312 221 472.483398438 267 489.763671875 365 c 0
 507.219726562 464 452.68359375 512 335.68359375 512 c 2
EndSplineSet
Validated: 524321
EndChar

StartChar: Q
Encoding: 81 81 87
Width: 725
GlyphClass: 2
Flags: HMW
HStem: -16 67<283 379.5 283 386.5> 659 67<282.5 441.5>
VStem: 47 71<267.5 441 267.5 460.5> 607 71<295 441>
AnchorPoint: "Anchor-3" 429.269 710 basechar 0
AnchorPoint: "Anchor-0" 304.076 0 basechar 0
LayerCount: 2
Fore
SplineSet
484.91015625 -69 m 1
 437.192382812 12 l 1
 398.018554688 -6 350.254882812 -16 301.254882812 -16 c 0
 104.254882812 -16 14.115234375 142 51.49609375 354 c 0
 89.0537109375 567 234.08984375 726 432.08984375 726 c 0
 632.08984375 726 720.053710938 567 682.49609375 354 c 0
 658.33984375 217 589.590820312 105 492.129882812 40 c 1
 558.91015625 -69 l 1
 484.91015625 -69 l 1
313.069335938 51 m 0
 348.069335938 51 378.951171875 56 404.06640625 68 c 1
 317.752929688 208 l 1
 391.752929688 208 l 1
 460.474609375 93 l 1
 537.8203125 146 590.689453125 236 611.49609375 354 c 0
 642.176757812 528 579.276367188 659 420.276367188 659 c 0
 261.276367188 659 153.176757812 528 122.49609375 354 c 0
 91.9921875 181 155.069335938 51 313.069335938 51 c 0
EndSplineSet
Validated: 524321
EndChar

StartChar: R
Encoding: 82 82 88
Width: 658
GlyphClass: 2
Flags: HMW
HStem: 0 21G<93 93 93 161 529 529 529 598> 294 66<161 364 364 377 161 364> 644 66<161 352 161 161>
VStem: 93 68<0 294 360 644> 522 72<456.5 546.5>
AnchorPoint: "Anchor-3" 395.596 710 basechar 0
AnchorPoint: "Anchor-0" 276.404 0 basechar 0
LayerCount: 2
Fore
SplineSet
30.404296875 0 m 1
 155.595703125 710 l 1
 415.595703125 710 l 2
 566.595703125 710 642.490234375 630 619.390625 499 c 0
 604.403320312 414 536.294921875 351 462.768554688 331 c 1
 528.828125 320 559.599609375 279 553.375 204 c 2
 535.404296875 0 l 1
 466.404296875 0 l 1
 484.31640625 198 l 2
 490.954101562 264 457.244140625 294 366.244140625 294 c 2
 150.244140625 294 l 1
 98.404296875 0 l 1
 30.404296875 0 l 1
161.881835938 360 m 1
 364.881835938 360 l 2
 461.881835938 360 531.698242188 410 547.567382812 500 c 0
 563.965820312 593 514.958984375 644 402.958984375 644 c 2
 211.958984375 644 l 1
 161.881835938 360 l 1
EndSplineSet
Validated: 524321
Substitution2: "'ss04' Style Set 4 in Latin lookup 37 subtable" R.ss04
Substitution2: "'aalt' Access All Alternates in Latin lookup 0 subtable" R.ss04
EndChar

StartChar: Racute
Encoding: 340 340 89
Width: 658
GlyphClass: 2
Flags: HMW
HStem: 0 21G<93 93 93 161 529 529 529 598> 294 66<161 364 364 377 161 364> 644 66<161 352 161 161> 782 124<303 445 303 445>
VStem: 93 68<0 294 360 644> 522 72<456.5 546.5>
AnchorPoint: "Anchor-3" 378.316 710 basechar 0
AnchorPoint: "Anchor-0" 259.124 0 basechar 0
LayerCount: 2
Fore
SplineSet
361.01171875 782 m 1
 450.875976562 906 l 1
 524.875976562 906 l 1
 417.01171875 782 l 1
 361.01171875 782 l 1
13.1240234375 0 m 1
 138.31640625 710 l 1
 398.31640625 710 l 2
 549.31640625 710 625.209960938 630 602.111328125 499 c 0
 587.123046875 414 519.014648438 351 445.48828125 331 c 1
 511.548828125 320 542.319335938 279 536.094726562 204 c 2
 518.124023438 0 l 1
 449.124023438 0 l 1
 467.036132812 198 l 2
 473.673828125 264 439.963867188 294 348.963867188 294 c 2
 132.963867188 294 l 1
 81.1240234375 0 l 1
 13.1240234375 0 l 1
144.6015625 360 m 1
 347.6015625 360 l 2
 444.6015625 360 514.41796875 410 530.287109375 500 c 0
 546.685546875 593 497.678710938 644 385.678710938 644 c 2
 194.678710938 644 l 1
 144.6015625 360 l 1
EndSplineSet
Validated: 524321
Substitution2: "'ss04' Style Set 4 in Latin lookup 37 subtable" Racute.ss04
Substitution2: "'aalt' Access All Alternates in Latin lookup 0 subtable" Racute.ss04
EndChar

StartChar: Rcaron
Encoding: 344 344 90
Width: 658
GlyphClass: 2
Flags: HMW
HStem: 0 21G<93 93 93 161 529 529 529 598> 294 66<161 364 364 377 161 364> 644 66<161 352 161 161> 782 130<208 368 208 298>
VStem: 93 68<0 294 360 644> 522 72<456.5 546.5>
AnchorPoint: "Anchor-3" 377.787 710 basechar 0
AnchorPoint: "Anchor-0" 258.595 0 basechar 0
LayerCount: 2
Fore
SplineSet
288.405273438 912 m 1
 344.405273438 912 l 1
 397.006835938 819 l 1
 481.405273438 912 l 1
 537.405273438 912 l 1
 425.482421875 782 l 1
 355.482421875 782 l 1
 288.405273438 912 l 1
12.5947265625 0 m 1
 137.787109375 710 l 1
 397.787109375 710 l 2
 548.787109375 710 624.680664062 630 601.58203125 499 c 0
 586.594726562 414 518.485351562 351 444.958984375 331 c 1
 511.01953125 320 541.790039062 279 535.565429688 204 c 2
 517.594726562 0 l 1
 448.594726562 0 l 1
 466.5078125 198 l 2
 473.145507812 264 439.434570312 294 348.434570312 294 c 2
 132.434570312 294 l 1
 80.5947265625 0 l 1
 12.5947265625 0 l 1
144.072265625 360 m 1
 347.072265625 360 l 2
 444.072265625 360 513.888671875 410 529.758789062 500 c 0
 546.157226562 593 497.149414062 644 385.149414062 644 c 2
 194.149414062 644 l 1
 144.072265625 360 l 1
EndSplineSet
Validated: 524321
Substitution2: "'ss04' Style Set 4 in Latin lookup 37 subtable" Rcaron.ss04
Substitution2: "'aalt' Access All Alternates in Latin lookup 0 subtable" Rcaron.ss04
EndChar

StartChar: uni0156
Encoding: 342 342 91
Width: 658
GlyphClass: 2
Flags: HMW
HStem: -127 76<298 330 298 381> 0 21G<93 93 93 161 529 529 529 598> 294 66<161 364 364 377 161 364> 644 66<161 352 161 161>
VStem: 93 68<0 294 360 644> 298 83<-120 -51 -120 -51 -120 -51> 522 72<456.5 546.5>
AnchorPoint: "Anchor-3" 414.64 710 basechar 0
AnchorPoint: "Anchor-0" 257.36 -216 basechar 0
LayerCount: 2
Fore
SplineSet
49.447265625 0 m 1
 174.639648438 710 l 1
 434.639648438 710 l 2
 585.639648438 710 661.533203125 630 638.434570312 499 c 0
 623.446289062 414 555.337890625 351 481.811523438 331 c 1
 547.872070312 320 578.642578125 279 572.41796875 204 c 2
 554.447265625 0 l 1
 485.447265625 0 l 1
 503.360351562 198 l 2
 509.998046875 264 476.287109375 294 385.287109375 294 c 2
 169.287109375 294 l 1
 117.447265625 0 l 1
 49.447265625 0 l 1
180.924804688 360 m 1
 383.924804688 360 l 2
 480.924804688 360 550.741210938 410 566.610351562 500 c 0
 583.008789062 593 534.001953125 644 422.001953125 644 c 2
 231.001953125 644 l 1
 180.924804688 360 l 1
199.360351562 -216 m 1
 264.053710938 -127 l 1
 232.053710938 -127 l 1
 245.454101562 -51 l 1
 328.454101562 -51 l 1
 316.288085938 -120 l 1
 245.360351562 -216 l 1
 199.360351562 -216 l 1
EndSplineSet
Validated: 524321
Substitution2: "'ss04' Style Set 4 in Latin lookup 37 subtable" uni0156.ss04
Substitution2: "'aalt' Access All Alternates in Latin lookup 0 subtable" uni0156.ss04
EndChar

StartChar: S
Encoding: 83 83 92
Width: 634
GlyphClass: 2
Flags: HMW
HStem: -16 67<272 385.5 272 401.5> 659 67<254 361.5>
VStem: 57 71<224 229> 72 71<494.5 569 494.5 586> 490 71<498 503> 506 72<138.5 214.5>
AnchorPoint: "Anchor-3" 367.596 710 basechar 0
AnchorPoint: "Anchor-0" 258.404 0 basechar 0
LayerCount: 2
Fore
SplineSet
265.583007812 -16 m 0xd4
 106.583007812 -16 17.3916015625 85 33.9013671875 224 c 1
 105.783203125 229 l 1
 95.916015625 122 157.396484375 51 279.396484375 51 c 0
 384.396484375 51 460.5078125 97 475.142578125 180 c 0xe4
 487.309570312 249 460.067382812 293 290.649414062 336 c 0
 136.526367188 375 83.6376953125 421 102.680664062 529 c 0
 122.782226562 643 224.416992188 726 371.416992188 726 c 0
 527.416992188 726 598.608398438 625 587.096679688 503 c 1
 515.21484375 498 l 1xd8
 523.260742188 589 472.603515625 659 357.603515625 659 c 0
 257.603515625 659 187.434570312 607 174.033203125 531 c 0
 161.162109375 458 194.400390625 431 339.876953125 394 c 0
 518.942382812 349 565.3046875 283 547.671875 183 c 0
 526.16015625 61 406.583007812 -16 265.583007812 -16 c 0xd4
EndSplineSet
Validated: 524321
EndChar

StartChar: Sacute
Encoding: 346 346 93
Width: 634
GlyphClass: 2
Flags: HMW
HStem: -16 67<272 385.5 272 401.5> 659 67<254 361.5> 782 124<276 418 276 418>
VStem: 57 71<224 229> 72 71<494.5 569 494.5 586> 490 71<498 503> 506 72<138.5 214.5>
AnchorPoint: "Anchor-3" 351.727 710 basechar 0
AnchorPoint: "Anchor-0" 242.534 0 basechar 0
LayerCount: 2
Fore
SplineSet
335.421875 782 m 1xea
 425.287109375 906 l 1
 499.287109375 906 l 1
 390.421875 782 l 1
 335.421875 782 l 1xea
249.712890625 -16 m 0
 90.712890625 -16 1.5224609375 85 18.03125 224 c 1
 89.9130859375 229 l 1
 80.0458984375 122 141.52734375 51 263.52734375 51 c 0
 368.52734375 51 444.638671875 97 459.2734375 180 c 0xd2
 471.439453125 249 444.198242188 293 274.780273438 336 c 0
 120.657226562 375 67.7685546875 421 86.8115234375 529 c 0
 106.913085938 643 208.547851562 726 355.547851562 726 c 0
 511.547851562 726 582.739257812 625 571.2265625 503 c 1
 499.345703125 498 l 1xcc
 507.390625 589 456.734375 659 341.734375 659 c 0
 241.734375 659 171.565429688 607 158.1640625 531 c 0
 145.291992188 458 178.53125 431 324.006835938 394 c 0
 503.072265625 349 549.434570312 283 531.802734375 183 c 0
 510.290039062 61 390.712890625 -16 249.712890625 -16 c 0
EndSplineSet
Validated: 524321
EndChar

StartChar: Scaron
Encoding: 352 352 94
Width: 634
GlyphClass: 2
Flags: HMW
HStem: -16 67<272 385.5 272 401.5> 659 67<254 361.5> 782 130<181 340 181 270>
VStem: 57 71<224 229> 72 71<494.5 569 494.5 586> 490 71<498 503> 506 72<138.5 214.5>
AnchorPoint: "Anchor-3" 351.197 710 basechar 0
AnchorPoint: "Anchor-0" 242.006 0 basechar 0
LayerCount: 2
Fore
SplineSet
262.815429688 912 m 1xea
 318.815429688 912 l 1
 370.416992188 819 l 1
 455.815429688 912 l 1
 511.815429688 912 l 1
 398.893554688 782 l 1
 328.893554688 782 l 1
 262.815429688 912 l 1xea
249.184570312 -16 m 0
 90.1845703125 -16 0.9931640625 85 17.5029296875 224 c 1
 89.384765625 229 l 1
 79.517578125 122 140.998046875 51 262.998046875 51 c 0
 367.998046875 51 444.109375 97 458.744140625 180 c 0xd2
 470.911132812 249 443.668945312 293 274.250976562 336 c 0
 120.127929688 375 67.2392578125 421 86.2822265625 529 c 0
 106.383789062 643 208.018554688 726 355.018554688 726 c 0
 511.018554688 726 582.209960938 625 570.698242188 503 c 1
 498.81640625 498 l 1xcc
 506.862304688 589 456.205078125 659 341.205078125 659 c 0
 241.205078125 659 171.036132812 607 157.634765625 531 c 0
 144.763671875 458 178.001953125 431 323.478515625 394 c 0
 502.543945312 349 548.90625 283 531.2734375 183 c 0
 509.76171875 61 390.184570312 -16 249.184570312 -16 c 0
EndSplineSet
Validated: 524321
EndChar

StartChar: Scedilla
Encoding: 350 350 95
Width: 634
GlyphClass: 2
Flags: HMW
HStem: -215 46<292 328.5 292 343> -77 37<289 321> -16 67<337 385.5 272 404.5> -13 21G<289 289> 659 67<254 361.5>
VStem: 57 71<224 229> 72 71<494.5 569 494.5 586> 369 49<-138.5 -110> 490 71<498 503> 506 72<138.5 214.5>
AnchorPoint: "Anchor-3" 385.141 710 basechar 0
AnchorPoint: "Anchor-0" 275.948 0 basechar 0
LayerCount: 2
Fore
SplineSet
229.038085938 -215 m 0xcb40
 170.038085938 -215 137.328125 -185 131.733398438 -143 c 1
 176.731445312 -126 l 1
 182.618164062 -155 199.149414062 -169 235.149414062 -169 c 0
 272.149414062 -169 296.970703125 -153 302.083984375 -124 c 0
 307.021484375 -96 294.37109375 -77 230.37109375 -77 c 1xcb40
 211.956054688 -51 l 1
 241.65625 -13 l 1x9d40
 108.477539062 3 36.228515625 98 51.4453125 224 c 1
 123.327148438 229 l 1
 113.459960938 122 174.94140625 51 296.94140625 51 c 0
 401.94140625 51 478.051757812 97 492.6875 180 c 0xad40
 504.853515625 249 477.612304688 293 308.194335938 336 c 0
 154.071289062 375 101.181640625 421 120.225585938 529 c 0
 140.327148438 643 241.961914062 726 388.961914062 726 c 0
 544.961914062 726 616.15234375 625 604.640625 503 c 1
 532.759765625 498 l 1xab80
 540.8046875 589 490.147460938 659 375.147460938 659 c 0
 275.147460938 659 204.978515625 607 191.578125 531 c 0
 178.706054688 458 211.9453125 431 357.420898438 394 c 0
 536.486328125 349 582.848632812 283 565.215820312 183 c 0
 543.704101562 61 424.126953125 -16 289.126953125 -16 c 1xab40
 268.895507812 -40 l 1
 332.366210938 -43 359.900390625 -74 350.731445312 -126 c 0
 341.209960938 -180 291.038085938 -215 229.038085938 -215 c 0xcb40
EndSplineSet
Validated: 524321
Substitution2: "'locl' Localized Forms in Latin lookup 10 subtable" uni0218
Substitution2: "'aalt' Access All Alternates in Latin lookup 0 subtable" uni0218
EndChar

StartChar: Scircumflex
Encoding: 348 348 96
Width: 634
GlyphClass: 2
Flags: HMW
HStem: -16 67<272 385.5 272 401.5> 659 67<254 361.5> 782 130<181 341 181 341 271 374 271 430>
VStem: 57 71<224 229> 72 71<494.5 569 494.5 586> 490 71<498 503> 506 72<138.5 214.5>
AnchorPoint: "Anchor-3" 351.197 710 basechar 0
AnchorPoint: "Anchor-0" 242.006 0 basechar 0
LayerCount: 2
Fore
SplineSet
239.893554688 782 m 1xea
 352.815429688 912 l 1
 422.815429688 912 l 1
 488.893554688 782 l 1
 432.893554688 782 l 1
 381.291992188 875 l 1
 295.893554688 782 l 1
 239.893554688 782 l 1xea
249.184570312 -16 m 0
 90.1845703125 -16 0.9931640625 85 17.5029296875 224 c 1
 89.384765625 229 l 1
 79.517578125 122 140.998046875 51 262.998046875 51 c 0
 367.998046875 51 444.109375 97 458.744140625 180 c 0xd2
 470.911132812 249 443.668945312 293 274.250976562 336 c 0
 120.127929688 375 67.2392578125 421 86.2822265625 529 c 0
 106.383789062 643 208.018554688 726 355.018554688 726 c 0
 511.018554688 726 582.209960938 625 570.698242188 503 c 1
 498.81640625 498 l 1xcc
 506.862304688 589 456.205078125 659 341.205078125 659 c 0
 241.205078125 659 171.036132812 607 157.634765625 531 c 0
 144.763671875 458 178.001953125 431 323.478515625 394 c 0
 502.543945312 349 548.90625 283 531.2734375 183 c 0
 509.76171875 61 390.184570312 -16 249.184570312 -16 c 0
EndSplineSet
Validated: 524321
EndChar

StartChar: uni0218
Encoding: 536 536 97
Width: 634
GlyphClass: 2
Flags: HMW
HStem: -127 76<280 312 280 363> -16 67<272 385.5 272 401.5> 659 67<254 361.5>
VStem: 57 71<224 229> 72 71<494.5 569 494.5 586> 280 83<-120 -51 -120 -51 -120 -51> 490 71<498 503> 506 72<138.5 214.5>
AnchorPoint: "Anchor-3" 385.229 710 basechar 0
AnchorPoint: "Anchor-0" 237.95 -216 basechar 0
LayerCount: 2
Fore
SplineSet
283.215820312 -16 m 0xed
 124.215820312 -16 35.0244140625 85 51.5341796875 224 c 1
 123.415039062 229 l 1
 113.548828125 122 175.029296875 51 297.029296875 51 c 0
 402.029296875 51 478.140625 97 492.775390625 180 c 0xf5
 504.942382812 249 477.700195312 293 308.282226562 336 c 0
 154.159179688 375 101.270507812 421 120.313476562 529 c 0
 140.415039062 643 242.049804688 726 389.049804688 726 c 0
 545.049804688 726 616.241210938 625 604.729492188 503 c 1
 532.84765625 498 l 1xee
 540.893554688 589 490.236328125 659 375.236328125 659 c 0
 275.236328125 659 205.067382812 607 191.666015625 531 c 0
 178.793945312 458 212.033203125 431 357.509765625 394 c 0
 536.575195312 349 582.9375 283 565.3046875 183 c 0
 543.79296875 61 424.215820312 -16 283.215820312 -16 c 0xed
179.950195312 -216 m 1
 244.643554688 -127 l 1
 212.643554688 -127 l 1
 226.043945312 -51 l 1
 309.043945312 -51 l 1
 296.876953125 -120 l 1
 225.950195312 -216 l 1
 179.950195312 -216 l 1
EndSplineSet
Validated: 524321
EndChar

StartChar: uni1E9E
Encoding: 7838 7838 98
Width: 679
GlyphClass: 2
Flags: HMW
HStem: 0 66<238 372 238 372> 361 60<261 346> 644 66<285 286 286 492>
VStem: 93 68<0 511 0 574.5> 548 72<166 260.5>
AnchorPoint: "Anchor-3" 402.596 710 basechar 0
AnchorPoint: "Anchor-0" 277.404 0 basechar 0
LayerCount: 2
Fore
SplineSet
30.404296875 0 m 1
 120.506835938 511 l 2
 142.900390625 638 225.595703125 710 347.595703125 710 c 2
 638.595703125 710 l 1
 625.37109375 635 l 1
 357.637695312 421 l 1
 537.932617188 417 618.236328125 345 595.137695312 214 c 0
 571.862304688 82 457.404296875 0 309.404296875 0 c 2
 175.404296875 0 l 1
 187.041015625 66 l 1
 321.041015625 66 l 2
 427.041015625 66 506.563476562 120 522.78515625 212 c 0
 539.888671875 309 475.057617188 361 342.057617188 361 c 2
 262.057617188 361 l 1
 273.166992188 424 l 1
 542.958984375 644 l 1
 336.958984375 644 l 2
 252.958984375 644 204.375976562 601 188.506835938 511 c 2
 98.404296875 0 l 1
 30.404296875 0 l 1
EndSplineSet
Validated: 524321
EndChar

StartChar: T
Encoding: 84 84 99
Width: 549
GlyphClass: 2
Flags: HMW
HStem: 0 21G<241 241 241 309> 644 66<13 241 13 537 309 309 309 537>
VStem: 241 68<0 644 0 644>
AnchorPoint: "Anchor-3" 337.596 710 basechar 0
AnchorPoint: "Anchor-1" 273.766 348 basechar 0
AnchorPoint: "Anchor-0" 212.404 0 basechar 0
LayerCount: 2
Fore
SplineSet
178.404296875 0 m 1
 291.958984375 644 l 1
 63.958984375 644 l 1
 75.595703125 710 l 1
 599.595703125 710 l 1
 587.958984375 644 l 1
 359.958984375 644 l 1
 246.404296875 0 l 1
 178.404296875 0 l 1
EndSplineSet
Validated: 524289
EndChar

StartChar: Tbar
Encoding: 358 358 100
Width: 549
GlyphClass: 2
Flags: HMW
HStem: 0 21G<241 241 241 309> 317 62<91 241 91 241 309 458> 644 66<13 241 13 537 309 309 309 537>
VStem: 241 68<0 317 0 317 379 644>
AnchorPoint: "Anchor-3" 337.596 710 basechar 0
AnchorPoint: "Anchor-1" 273.766 348 basechar 0
AnchorPoint: "Anchor-0" 212.404 0 basechar 0
LayerCount: 2
Fore
SplineSet
178.404296875 0 m 1
 234.299804688 317 l 1
 84.2998046875 317 l 1
 95.2314453125 379 l 1
 245.231445312 379 l 1
 291.958984375 644 l 1
 63.958984375 644 l 1
 75.595703125 710 l 1
 599.595703125 710 l 1
 587.958984375 644 l 1
 359.958984375 644 l 1
 313.231445312 379 l 1
 462.231445312 379 l 1
 451.299804688 317 l 1
 302.299804688 317 l 1
 246.404296875 0 l 1
 178.404296875 0 l 1
EndSplineSet
Validated: 524289
EndChar

StartChar: Tcaron
Encoding: 356 356 101
Width: 549
GlyphClass: 2
Flags: HMW
HStem: 0 21G<241 241 241 309> 644 66<13 241 13 537 309 309 309 537> 782 130<150 310 150 240>
VStem: 241 68<0 644 0 644>
AnchorPoint: "Anchor-3" 319.787 710 basechar 0
AnchorPoint: "Anchor-1" 255.957 348 basechar 0
AnchorPoint: "Anchor-0" 194.595 0 basechar 0
LayerCount: 2
Fore
SplineSet
230.405273438 912 m 1
 286.405273438 912 l 1
 339.006835938 819 l 1
 423.405273438 912 l 1
 479.405273438 912 l 1
 367.482421875 782 l 1
 297.482421875 782 l 1
 230.405273438 912 l 1
160.594726562 0 m 1
 274.149414062 644 l 1
 46.1494140625 644 l 1
 57.787109375 710 l 1
 581.787109375 710 l 1
 570.149414062 644 l 1
 342.149414062 644 l 1
 228.594726562 0 l 1
 160.594726562 0 l 1
EndSplineSet
Validated: 524289
EndChar

StartChar: uni0162
Encoding: 354 354 102
Width: 549
GlyphClass: 2
Flags: HMW
HStem: -215 46<245 281.5 245 296> -77 37<243 275> 0 21G<241 241 241 250 301 301 301 309> 644 66<13 241 13 537 309 309 309 537>
VStem: 241 68<0 644 0 644> 322 49<-138.5 -110>
AnchorPoint: "Anchor-3" 356.551 710 basechar 0
AnchorPoint: "Anchor-1" 292.721 348 basechar 0
AnchorPoint: "Anchor-0" 231.359 0 basechar 0
LayerCount: 2
Fore
SplineSet
197.359375 0 m 1
 310.9140625 644 l 1
 82.9140625 644 l 1
 94.55078125 710 l 1
 618.55078125 710 l 1
 606.9140625 644 l 1
 378.9140625 644 l 1
 265.359375 0 l 1
 257.359375 0 l 1xf8
 224.305664062 -40 l 1
 287.77734375 -43 314.310546875 -74 305.141601562 -126 c 0
 295.620117188 -180 245.44921875 -215 183.44921875 -215 c 0
 124.44921875 -215 92.73828125 -185 86.14453125 -143 c 1
 131.141601562 -126 l 1
 137.028320312 -155 153.559570312 -169 189.559570312 -169 c 0
 226.559570312 -169 251.380859375 -153 256.494140625 -124 c 0xf4
 261.431640625 -96 248.782226562 -77 185.782226562 -77 c 1
 166.366210938 -51 l 1
 206.359375 0 l 1
 197.359375 0 l 1
EndSplineSet
Validated: 524321
Substitution2: "'locl' Localized Forms in Latin lookup 10 subtable" uni021A
Substitution2: "'aalt' Access All Alternates in Latin lookup 0 subtable" uni021A
EndChar

StartChar: uni021A
Encoding: 538 538 103
Width: 549
GlyphClass: 2
Flags: HMW
HStem: -127 76<233 265 233 316> 0 21G<241 241 241 309> 644 66<13 241 13 537 309 309 309 537>
VStem: 233 76<-127 644 -51 644> 241 68<0 644 0 644> 241 75<-120 644>
AnchorPoint: "Anchor-3" 356.64 710 basechar 0
AnchorPoint: "Anchor-1" 292.809 348 basechar 0
AnchorPoint: "Anchor-0" 193.36 -216 basechar 0
LayerCount: 2
Fore
SplineSet
197.447265625 0 m 1xe8
 311.001953125 644 l 1
 83.001953125 644 l 1
 94.6396484375 710 l 1
 618.639648438 710 l 1
 607.001953125 644 l 1
 379.001953125 644 l 1
 265.447265625 0 l 1
 197.447265625 0 l 1xe8
134.360351562 -216 m 1
 199.053710938 -127 l 1
 167.053710938 -127 l 1
 180.454101562 -51 l 1xf0
 263.454101562 -51 l 1
 251.288085938 -120 l 1xe4
 180.360351562 -216 l 1
 134.360351562 -216 l 1
EndSplineSet
Validated: 524289
EndChar

StartChar: U
Encoding: 85 85 104
Width: 680
GlyphClass: 2
Flags: HMW
HStem: -16 67<278 402 278 421.5> 691 20G<78 146 146 146 534 602 602 602>
VStem: 78 68<248 711> 534 68<248 711>
AnchorPoint: "Anchor-3" 403.919 710 basechar 0
AnchorPoint: "Anchor-2" 389.079 2 basechar 0
AnchorPoint: "Anchor-0" 278.727 0 basechar 0
LayerCount: 2
Fore
SplineSet
275.905273438 -16 m 0
 112.905273438 -16 31.5380859375 84 60.455078125 248 c 2
 142.094726562 711 l 1
 210.094726562 711 l 1
 128.455078125 248 l 2
 106.23828125 122 163.71875 51 287.71875 51 c 0
 411.71875 51 494.23828125 122 516.455078125 248 c 2
 598.094726562 711 l 1
 666.094726562 711 l 1
 584.455078125 248 l 2
 555.538085938 84 438.905273438 -16 275.905273438 -16 c 0
EndSplineSet
Validated: 524321
EndChar

StartChar: Uacute
Encoding: 218 218 105
Width: 680
GlyphClass: 2
Flags: HMW
HStem: -16 67<278 402 278 421.5> 691 20G<78 146 146 146 534 602 602 602> 782 124<311 453 311 453>
VStem: 78 68<248 711> 534 68<248 711>
AnchorPoint: "Anchor-3" 386.727 710 basechar 0
AnchorPoint: "Anchor-2" 371.887 2 basechar 0
AnchorPoint: "Anchor-0" 261.534 0 basechar 0
LayerCount: 2
Fore
SplineSet
370.421875 782 m 1
 460.287109375 906 l 1
 534.287109375 906 l 1
 425.421875 782 l 1
 370.421875 782 l 1
258.712890625 -16 m 0
 95.712890625 -16 14.345703125 84 43.263671875 248 c 2
 124.903320312 711 l 1
 192.903320312 711 l 1
 111.263671875 248 l 2
 89.0458984375 122 146.52734375 51 270.52734375 51 c 0
 394.52734375 51 477.045898438 122 499.263671875 248 c 2
 580.903320312 711 l 1
 648.903320312 711 l 1
 567.263671875 248 l 2
 538.345703125 84 421.712890625 -16 258.712890625 -16 c 0
EndSplineSet
Validated: 524321
EndChar

StartChar: Ubreve
Encoding: 364 364 106
Width: 680
GlyphClass: 2
Flags: HMW
HStem: -16 67<278 402 278 421.5> 691 20G<78 146 146 146 534 602 602 602> 788 51<316 364 316 379>
VStem: 78 68<248 711> 534 68<248 711>
AnchorPoint: "Anchor-3" 386.197 710 basechar 0
AnchorPoint: "Anchor-2" 371.358 2 basechar 0
AnchorPoint: "Anchor-0" 261.006 0 basechar 0
LayerCount: 2
Fore
SplineSet
399.951171875 788 m 0
 321.951171875 788 280.590820312 837 287.815429688 912 c 1
 334.815429688 912 l 1
 332.999023438 862 360.944335938 839 408.944335938 839 c 0
 456.944335938 839 492.999023438 862 508.815429688 912 c 1
 555.815429688 912 l 1
 536.590820312 837 477.951171875 788 399.951171875 788 c 0
258.184570312 -16 m 0
 95.1845703125 -16 13.8173828125 84 42.734375 248 c 2
 124.374023438 711 l 1
 192.374023438 711 l 1
 110.734375 248 l 2
 88.517578125 122 145.998046875 51 269.998046875 51 c 0
 393.998046875 51 476.517578125 122 498.734375 248 c 2
 580.374023438 711 l 1
 648.374023438 711 l 1
 566.734375 248 l 2
 537.817382812 84 421.184570312 -16 258.184570312 -16 c 0
EndSplineSet
Validated: 524321
EndChar

StartChar: Ucircumflex
Encoding: 219 219 107
Width: 680
GlyphClass: 2
Flags: HMW
HStem: -16 67<278 402 278 421.5> 691 20G<78 146 146 146 534 602 602 602> 782 130<216 376 216 376 306 409 306 465>
VStem: 78 68<248 711> 534 68<248 711>
AnchorPoint: "Anchor-3" 386.197 710 basechar 0
AnchorPoint: "Anchor-2" 371.358 2 basechar 0
AnchorPoint: "Anchor-0" 261.006 0 basechar 0
LayerCount: 2
Fore
SplineSet
274.893554688 782 m 1
 387.815429688 912 l 1
 457.815429688 912 l 1
 523.893554688 782 l 1
 467.893554688 782 l 1
 416.291992188 875 l 1
 330.893554688 782 l 1
 274.893554688 782 l 1
258.184570312 -16 m 0
 95.1845703125 -16 13.8173828125 84 42.734375 248 c 2
 124.374023438 711 l 1
 192.374023438 711 l 1
 110.734375 248 l 2
 88.517578125 122 145.998046875 51 269.998046875 51 c 0
 393.998046875 51 476.517578125 122 498.734375 248 c 2
 580.374023438 711 l 1
 648.374023438 711 l 1
 566.734375 248 l 2
 537.817382812 84 421.184570312 -16 258.184570312 -16 c 0
EndSplineSet
Validated: 524321
EndChar

StartChar: Udieresis
Encoding: 220 220 108
Width: 680
GlyphClass: 2
Flags: HMW
HStem: -16 67<278 402 278 421.5> 691 20G<78 146 146 146 534 602 602 602> 798 89<226 296 226 296 385 455>
VStem: 78 68<248 711> 226 70<798 887 798 887> 385 70<798 887 798 887> 534 68<248 711>
AnchorPoint: "Anchor-3" 388.401 710 basechar 0
AnchorPoint: "Anchor-2" 373.562 2 basechar 0
AnchorPoint: "Anchor-0" 263.21 0 basechar 0
LayerCount: 2
Fore
SplineSet
289.918945312 798 m 1
 305.611328125 887 l 1
 375.611328125 887 l 1
 359.918945312 798 l 1
 289.918945312 798 l 1
448.918945312 798 m 1
 464.611328125 887 l 1
 534.611328125 887 l 1
 518.918945312 798 l 1
 448.918945312 798 l 1
260.388671875 -16 m 0
 97.388671875 -16 16.021484375 84 44.9384765625 248 c 2
 126.578125 711 l 1
 194.578125 711 l 1
 112.938476562 248 l 2
 90.7216796875 122 148.202148438 51 272.202148438 51 c 0
 396.202148438 51 478.721679688 122 500.938476562 248 c 2
 582.578125 711 l 1
 650.578125 711 l 1
 568.938476562 248 l 2
 540.021484375 84 423.388671875 -16 260.388671875 -16 c 0
EndSplineSet
Validated: 524321
Substitution2: "'ss08' Style Set 8 in Latin lookup 41 subtable" Udieresis.ss08
Substitution2: "'aalt' Access All Alternates in Latin lookup 0 subtable" Udieresis.ss08
EndChar

StartChar: Ugrave
Encoding: 217 217 109
Width: 680
GlyphClass: 2
Flags: HMW
HStem: -16 67<278 402 278 421.5> 691 20G<78 146 146 146 534 602 602 602> 788 124<229 315 229 371>
VStem: 78 68<248 711> 534 68<248 711>
AnchorPoint: "Anchor-3" 386.197 710 basechar 0
AnchorPoint: "Anchor-2" 371.358 2 basechar 0
AnchorPoint: "Anchor-0" 261.006 0 basechar 0
LayerCount: 2
Fore
SplineSet
374.951171875 788 m 1
 310.815429688 912 l 1
 384.815429688 912 l 1
 430.951171875 788 l 1
 374.951171875 788 l 1
258.184570312 -16 m 0
 95.1845703125 -16 13.8173828125 84 42.734375 248 c 2
 124.374023438 711 l 1
 192.374023438 711 l 1
 110.734375 248 l 2
 88.517578125 122 145.998046875 51 269.998046875 51 c 0
 393.998046875 51 476.517578125 122 498.734375 248 c 2
 580.374023438 711 l 1
 648.374023438 711 l 1
 566.734375 248 l 2
 537.817382812 84 421.184570312 -16 258.184570312 -16 c 0
EndSplineSet
Validated: 524321
EndChar

StartChar: Uhungarumlaut
Encoding: 368 368 110
Width: 680
GlyphClass: 2
Flags: HMW
HStem: -16 67<278 402 278 421.5> 691 20G<78 146 146 146 534 602 602 602> 782 124<251 393 251 393 370 393 319 425 370 370>
VStem: 78 68<248 711> 534 68<248 711>
AnchorPoint: "Anchor-3" 386.727 710 basechar 0
AnchorPoint: "Anchor-2" 371.887 2 basechar 0
AnchorPoint: "Anchor-0" 261.534 0 basechar 0
LayerCount: 2
Fore
SplineSet
310.421875 782 m 1
 400.287109375 906 l 1
 474.287109375 906 l 1
 365.421875 782 l 1
 310.421875 782 l 1
429.421875 782 m 1
 519.287109375 906 l 1
 593.287109375 906 l 1
 484.421875 782 l 1
 429.421875 782 l 1
258.712890625 -16 m 0
 95.712890625 -16 14.345703125 84 43.263671875 248 c 2
 124.903320312 711 l 1
 192.903320312 711 l 1
 111.263671875 248 l 2
 89.0458984375 122 146.52734375 51 270.52734375 51 c 0
 394.52734375 51 477.045898438 122 499.263671875 248 c 2
 580.903320312 711 l 1
 648.903320312 711 l 1
 567.263671875 248 l 2
 538.345703125 84 421.712890625 -16 258.712890625 -16 c 0
EndSplineSet
Validated: 524321
EndChar

StartChar: Umacron
Encoding: 362 362 111
Width: 680
GlyphClass: 2
Flags: HMW
HStem: -16 67<278 402 278 421.5> 691 20G<78 146 146 146 534 602 602 602> 811 58<210 471 210 471>
VStem: 78 68<248 711> 210 261<811 869 811 869> 534 68<248 711>
AnchorPoint: "Anchor-3" 389.988 710 basechar 0
AnchorPoint: "Anchor-2" 375.149 2 basechar 0
AnchorPoint: "Anchor-0" 264.797 0 basechar 0
LayerCount: 2
Fore
SplineSet
277.797851562 811 m 1
 288.024414062 869 l 1
 549.024414062 869 l 1
 538.797851562 811 l 1
 277.797851562 811 l 1
261.975585938 -16 m 0
 98.9755859375 -16 17.6083984375 84 46.525390625 248 c 2
 128.165039062 711 l 1
 196.165039062 711 l 1
 114.525390625 248 l 2
 92.30859375 122 149.7890625 51 273.7890625 51 c 0
 397.7890625 51 480.30859375 122 502.525390625 248 c 2
 584.165039062 711 l 1
 652.165039062 711 l 1
 570.525390625 248 l 2
 541.608398438 84 424.975585938 -16 261.975585938 -16 c 0
EndSplineSet
Validated: 524321
EndChar

StartChar: Uogonek
Encoding: 370 370 112
Width: 680
GlyphClass: 2
Flags: HMW
HStem: -202 54<409.5 425> -16 67<278 347.5> 691 20G<78 146 146 146 534 602 602 602>
VStem: 78 68<248 711> 324 62<-128.5 -117> 534 68<248 711>
AnchorPoint: "Anchor-3" 420.317 710 basechar 0
AnchorPoint: "Anchor-2" 405.478 2 basechar 0
AnchorPoint: "Anchor-0" 295.125 0 basechar 0
LayerCount: 2
Fore
SplineSet
292.303710938 -16 m 0
 129.303710938 -16 47.9365234375 84 76.853515625 248 c 2
 158.493164062 711 l 1
 226.493164062 711 l 1
 144.853515625 248 l 2
 122.63671875 122 180.1171875 51 304.1171875 51 c 0
 428.1171875 51 510.63671875 122 532.853515625 248 c 2
 614.493164062 711 l 1
 682.493164062 711 l 1
 600.853515625 248 l 2
 579.166015625 125 507.825195312 38 405.477539062 2 c 1
 365.54296875 -43 l 2
 336.723632812 -76 324.021484375 -97 320.318359375 -118 c 0
 316.615234375 -139 329.028320312 -148 348.028320312 -148 c 0
 367.028320312 -148 384.0859375 -142 398.672851562 -133 c 1
 411.73828125 -178 l 1
 393.26953125 -192 360.506835938 -202 328.506835938 -202 c 0
 278.506835938 -202 247.385742188 -180 255.3203125 -135 c 0
 261.66796875 -99 295.721679688 -59 329.421875 -21 c 2
 335.65625 -14 l 1
 322.479492188 -15 307.303710938 -16 292.303710938 -16 c 0
EndSplineSet
Validated: 524321
EndChar

StartChar: Uring
Encoding: 366 366 113
Width: 680
GlyphClass: 2
Flags: HMW
HStem: -16 67<278 402 278 421.5> 691 20G<78 146 146 146 534 602 602 602> 761 42<327.5 353 327.5 364.5> 889 42<327.5 353>
VStem: 78 68<248 711> 255 42<833.5 859 833.5 870.5> 383 42<833.5 859> 534 68<248 711>
AnchorPoint: "Anchor-3" 384.522 710 basechar 0
AnchorPoint: "Anchor-2" 369.683 2 basechar 0
AnchorPoint: "Anchor-0" 259.33 0 basechar 0
LayerCount: 2
Fore
SplineSet
393.515625 761 m 0
 345.515625 761 315.0390625 798 323.502929688 846 c 0
 332.142578125 895 375.491210938 931 423.491210938 931 c 0
 472.491210938 931 502.142578125 895 493.502929688 846 c 0
 485.0390625 798 442.515625 761 393.515625 761 c 0
400.920898438 803 m 0
 426.920898438 803 447.094726562 821 451.502929688 846 c 0
 456.087890625 872 442.084960938 889 416.084960938 889 c 0
 391.084960938 889 370.087890625 872 365.502929688 846 c 0
 361.094726562 821 375.920898438 803 400.920898438 803 c 0
256.508789062 -16 m 0
 93.5087890625 -16 12.1416015625 84 41.0595703125 248 c 2
 122.69921875 711 l 1
 190.69921875 711 l 1
 109.059570312 248 l 2
 86.8427734375 122 144.323242188 51 268.323242188 51 c 0
 392.323242188 51 474.842773438 122 497.059570312 248 c 2
 578.69921875 711 l 1
 646.69921875 711 l 1
 565.059570312 248 l 2
 536.141601562 84 419.508789062 -16 256.508789062 -16 c 0
EndSplineSet
Validated: 524321
EndChar

StartChar: Utilde
Encoding: 360 360 114
Width: 680
GlyphClass: 2
Flags: HMW
HStem: -16 67<278 402 278 421.5> 691 20G<78 146 146 146 534 602 602 602> 797 45<393 413.5 393 424> 853 45<264 288>
VStem: 78 68<248 711> 189 43<790 790> 443 44<908 908> 534 68<248 711>
AnchorPoint: "Anchor-3" 386.551 710 basechar 0
AnchorPoint: "Anchor-2" 371.711 2 basechar 0
AnchorPoint: "Anchor-0" 261.358 0 basechar 0
LayerCount: 2
Fore
SplineSet
459.890625 797 m 0
 432.890625 797 414.654296875 807 397.00390625 826 c 0
 379.354492188 845 370.764648438 853 348.764648438 853 c 0
 322.764648438 853 302.944335938 837 292.65625 790 c 1
 249.65625 790 l 1
 263.999023438 860 306.700195312 898 356.700195312 898 c 0xdf
 388.700195312 898 407.583984375 886 426.057617188 866 c 0
 443.059570312 849 454.825195312 842 470.825195312 842 c 0
 495.825195312 842 511.646484375 858 524.462890625 908 c 1
 568.462890625 908 l 1
 552.120117188 838 511.890625 797 459.890625 797 c 0
258.537109375 -16 m 0
 95.537109375 -16 14.169921875 84 43.0869140625 248 c 2
 124.7265625 711 l 1
 192.7265625 711 l 1
 111.086914062 248 l 2
 88.8701171875 122 146.350585938 51 270.350585938 51 c 0
 394.350585938 51 476.870117188 122 499.086914062 248 c 2
 580.7265625 711 l 1
 648.7265625 711 l 1
 567.086914062 248 l 2
 538.169921875 84 421.537109375 -16 258.537109375 -16 c 0
EndSplineSet
Validated: 524321
EndChar

StartChar: V
Encoding: 86 86 115
Width: 659
GlyphClass: 2
Flags: HMW
HStem: 0 21G<286 286 286 373> 0 74<286 330 330 330 330 373> 690 20G<21 96 96 96 563 637 637 637>
VStem: 21 616<710 710>
AnchorPoint: "Anchor-3" 392.596 710 basechar 0
AnchorPoint: "Anchor-0" 267.404 0 basechar 0
LayerCount: 2
Fore
SplineSet
223.404296875 0 m 1xb0
 83.595703125 710 l 1
 158.595703125 710 l 1
 280.452148438 74 l 1x70
 625.595703125 710 l 1
 699.595703125 710 l 1
 310.404296875 0 l 1
 223.404296875 0 l 1xb0
EndSplineSet
Validated: 524289
EndChar

StartChar: W
Encoding: 87 87 116
Width: 935
GlyphClass: 2
Flags: HMW
HStem: 0 90<230 273 273 273 273 318> 592 118<467 467>
VStem: 39 856<710 710>
AnchorPoint: "Anchor-3" 529.596 710 basechar 0
AnchorPoint: "Anchor-0" 404.404 0 basechar 0
LayerCount: 2
Fore
SplineSet
167.404296875 0 m 1
 101.595703125 710 l 1
 175.595703125 710 l 1
 226.2734375 90 l 1
 489.595703125 710 l 1
 569.595703125 710 l 1
 614.2734375 90 l 1
 883.595703125 710 l 1
 957.595703125 710 l 1
 641.404296875 0 l 1
 553.404296875 0 l 1
 508.7890625 592 l 1
 255.404296875 0 l 1
 167.404296875 0 l 1
EndSplineSet
Validated: 524289
EndChar

StartChar: Wacute
Encoding: 7810 7810 117
Width: 935
GlyphClass: 2
Flags: HMW
HStem: 0 90<230 273 273 273 273 318> 592 118<467 467> 782 124<438 580 438 580>
VStem: 39 856<710 710>
AnchorPoint: "Anchor-3" 512.316 710 basechar 0
AnchorPoint: "Anchor-0" 387.124 0 basechar 0
LayerCount: 2
Fore
SplineSet
496.01171875 782 m 1
 585.875976562 906 l 1
 659.875976562 906 l 1
 551.01171875 782 l 1
 496.01171875 782 l 1
150.124023438 0 m 1
 84.31640625 710 l 1
 158.31640625 710 l 1
 208.993164062 90 l 1
 472.31640625 710 l 1
 552.31640625 710 l 1
 596.993164062 90 l 1
 866.31640625 710 l 1
 940.31640625 710 l 1
 624.124023438 0 l 1
 536.124023438 0 l 1
 491.509765625 592 l 1
 238.124023438 0 l 1
 150.124023438 0 l 1
EndSplineSet
Validated: 524289
EndChar

StartChar: Wcircumflex
Encoding: 372 372 118
Width: 935
GlyphClass: 2
Flags: HMW
HStem: 0 90<230 273 273 273 273 318> 592 118<467 467> 782 130<343 502 343 502 432 536 432 592>
VStem: 39 856<710 710>
AnchorPoint: "Anchor-3" 511.787 710 basechar 0
AnchorPoint: "Anchor-0" 386.595 0 basechar 0
LayerCount: 2
Fore
SplineSet
400.482421875 782 m 1
 512.405273438 912 l 1
 582.405273438 912 l 1
 649.482421875 782 l 1
 593.482421875 782 l 1
 540.880859375 875 l 1
 456.482421875 782 l 1
 400.482421875 782 l 1
149.594726562 0 m 1
 83.787109375 710 l 1
 157.787109375 710 l 1
 208.463867188 90 l 1
 471.787109375 710 l 1
 551.787109375 710 l 1
 596.463867188 90 l 1
 865.787109375 710 l 1
 939.787109375 710 l 1
 623.594726562 0 l 1
 535.594726562 0 l 1
 490.98046875 592 l 1
 237.594726562 0 l 1
 149.594726562 0 l 1
EndSplineSet
Validated: 524289
EndChar

StartChar: Wdieresis
Encoding: 7812 7812 119
Width: 935
GlyphClass: 2
Flags: HMW
HStem: 0 90<230 273 273 273 273 318> 592 118<467 467> 798 89<353 423 353 423 511 581 353 511>
VStem: 353 70<798 887 798 887> 511 70<798 887 798 887>
AnchorPoint: "Anchor-3" 513.991 710 basechar 0
AnchorPoint: "Anchor-0" 388.799 0 basechar 0
LayerCount: 2
Fore
SplineSet
415.5078125 798 m 1
 431.201171875 887 l 1
 501.201171875 887 l 1
 485.5078125 798 l 1
 415.5078125 798 l 1
573.5078125 798 m 1
 589.201171875 887 l 1
 659.201171875 887 l 1
 643.5078125 798 l 1
 573.5078125 798 l 1
151.798828125 0 m 1
 85.9912109375 710 l 1
 159.991210938 710 l 1
 210.66796875 90 l 1
 473.991210938 710 l 1
 553.991210938 710 l 1
 598.66796875 90 l 1
 867.991210938 710 l 1
 941.991210938 710 l 1
 625.798828125 0 l 1
 537.798828125 0 l 1
 493.184570312 592 l 1
 239.798828125 0 l 1
 151.798828125 0 l 1
EndSplineSet
Validated: 524289
Substitution2: "'ss08' Style Set 8 in Latin lookup 41 subtable" Wdieresis.ss08
Substitution2: "'aalt' Access All Alternates in Latin lookup 0 subtable" Wdieresis.ss08
EndChar

StartChar: Wgrave
Encoding: 7808 7808 120
Width: 935
GlyphClass: 2
Flags: HMW
HStem: 0 90<230 273 273 273 273 318> 592 118<467 467> 788 124<355 442 355 497>
VStem: 39 856<710 710>
AnchorPoint: "Anchor-3" 511.787 710 basechar 0
AnchorPoint: "Anchor-0" 386.595 0 basechar 0
LayerCount: 2
Fore
SplineSet
500.541015625 788 m 1
 435.405273438 912 l 1
 509.405273438 912 l 1
 555.541015625 788 l 1
 500.541015625 788 l 1
149.594726562 0 m 1
 83.787109375 710 l 1
 157.787109375 710 l 1
 208.463867188 90 l 1
 471.787109375 710 l 1
 551.787109375 710 l 1
 596.463867188 90 l 1
 865.787109375 710 l 1
 939.787109375 710 l 1
 623.594726562 0 l 1
 535.594726562 0 l 1
 490.98046875 592 l 1
 237.594726562 0 l 1
 149.594726562 0 l 1
EndSplineSet
Validated: 524289
EndChar

StartChar: X
Encoding: 88 88 121
Width: 603
GlyphClass: 2
Flags: HMW
HStem: 0 21G<17 17 17 96 506 506 506 587> 690 20G<20 101 101 101 502 582 582 582>
VStem: 17 570<0 0>
AnchorPoint: "Anchor-3" 364.596 710 basechar 0
AnchorPoint: "Anchor-0" 239.404 0 basechar 0
LayerCount: 2
Fore
SplineSet
-45.595703125 0 m 1
 258.352539062 357 l 1
 82.595703125 710 l 1
 163.595703125 710 l 1
 311.698242188 410 l 1
 564.595703125 710 l 1
 644.595703125 710 l 1
 344.352539062 357 l 1
 524.404296875 0 l 1
 443.404296875 0 l 1
 292.006835938 304 l 1
 33.404296875 0 l 1
 -45.595703125 0 l 1
EndSplineSet
Validated: 524289
EndChar

StartChar: Y
Encoding: 89 89 122
Width: 564
GlyphClass: 2
Flags: HMW
HStem: 0 21G<248 248 248 316> 690 20G<-5 76 76 76 488 569 569 569>
VStem: 248 68<0 290 0 290>
AnchorPoint: "Anchor-3" 344.596 710 basechar 0
AnchorPoint: "Anchor-0" 219.404 0 basechar 0
LayerCount: 2
Fore
SplineSet
185.404296875 0 m 1
 236.5390625 290 l 1
 57.595703125 710 l 1
 138.595703125 710 l 1
 282.705078125 359 l 1
 550.595703125 710 l 1
 631.595703125 710 l 1
 304.5390625 290 l 1
 253.404296875 0 l 1
 185.404296875 0 l 1
EndSplineSet
Validated: 524289
EndChar

StartChar: Yacute
Encoding: 221 221 123
Width: 564
GlyphClass: 2
Flags: HMW
HStem: 0 21G<248 248 248 316> 690 20G<-5 76 76 76 488 569 569 569> 782 124<253 395 253 395>
VStem: 248 68<0 290 0 290>
AnchorPoint: "Anchor-3" 327.316 710 basechar 0
AnchorPoint: "Anchor-0" 202.124 0 basechar 0
LayerCount: 2
Fore
SplineSet
311.01171875 782 m 1
 400.875976562 906 l 1
 474.875976562 906 l 1
 366.01171875 782 l 1
 311.01171875 782 l 1
168.124023438 0 m 1
 219.258789062 290 l 1
 40.31640625 710 l 1
 121.31640625 710 l 1
 265.424804688 359 l 1
 533.31640625 710 l 1
 614.31640625 710 l 1
 287.258789062 290 l 1
 236.124023438 0 l 1
 168.124023438 0 l 1
EndSplineSet
Validated: 524289
EndChar

StartChar: Ycircumflex
Encoding: 374 374 124
Width: 564
GlyphClass: 2
Flags: HMW
HStem: 0 21G<248 248 248 316> 690 20G<-5 76 76 76 488 569 569 569> 782 130<158 318 158 318 248 351 248 407>
VStem: 248 68<0 290 0 290>
AnchorPoint: "Anchor-3" 326.787 710 basechar 0
AnchorPoint: "Anchor-0" 201.595 0 basechar 0
LayerCount: 2
Fore
SplineSet
215.482421875 782 m 1
 328.405273438 912 l 1
 398.405273438 912 l 1
 464.482421875 782 l 1
 408.482421875 782 l 1
 356.880859375 875 l 1
 271.482421875 782 l 1
 215.482421875 782 l 1
167.594726562 0 m 1
 218.729492188 290 l 1
 39.787109375 710 l 1
 120.787109375 710 l 1
 264.896484375 359 l 1
 532.787109375 710 l 1
 613.787109375 710 l 1
 286.729492188 290 l 1
 235.594726562 0 l 1
 167.594726562 0 l 1
EndSplineSet
Validated: 524289
EndChar

StartChar: Ydieresis
Encoding: 376 376 125
Width: 564
GlyphClass: 2
Flags: HMW
HStem: 0 21G<248 248 248 316> 690 20G<-5 76 76 76 488 569 569 569> 798 89<168 238 168 238 327 397>
VStem: 168 70<798 887 798 887> 248 68<0 290 0 290> 327 70<798 887 798 887>
AnchorPoint: "Anchor-3" 328.991 710 basechar 0
AnchorPoint: "Anchor-0" 203.799 0 basechar 0
LayerCount: 2
Fore
SplineSet
230.5078125 798 m 1
 246.201171875 887 l 1
 316.201171875 887 l 1
 300.5078125 798 l 1
 230.5078125 798 l 1
389.5078125 798 m 1
 405.201171875 887 l 1
 475.201171875 887 l 1
 459.5078125 798 l 1
 389.5078125 798 l 1
169.798828125 0 m 1xe8
 220.93359375 290 l 1
 41.9912109375 710 l 1
 122.991210938 710 l 1
 267.100585938 359 l 1
 534.991210938 710 l 1
 615.991210938 710 l 1
 288.93359375 290 l 1
 237.798828125 0 l 1
 169.798828125 0 l 1xe8
EndSplineSet
Validated: 524289
Substitution2: "'ss08' Style Set 8 in Latin lookup 41 subtable" Ydieresis.ss08
Substitution2: "'aalt' Access All Alternates in Latin lookup 0 subtable" Ydieresis.ss08
EndChar

StartChar: Ygrave
Encoding: 7922 7922 126
Width: 564
GlyphClass: 2
Flags: HMW
HStem: 0 21G<248 248 248 316> 690 20G<-5 76 76 76 488 569 569 569> 788 124<171 257 171 313>
VStem: 248 68<0 290 0 290>
AnchorPoint: "Anchor-3" 326.787 710 basechar 0
AnchorPoint: "Anchor-0" 201.595 0 basechar 0
LayerCount: 2
Fore
SplineSet
315.541015625 788 m 1
 251.405273438 912 l 1
 325.405273438 912 l 1
 371.541015625 788 l 1
 315.541015625 788 l 1
167.594726562 0 m 1
 218.729492188 290 l 1
 39.787109375 710 l 1
 120.787109375 710 l 1
 264.896484375 359 l 1
 532.787109375 710 l 1
 613.787109375 710 l 1
 286.729492188 290 l 1
 235.594726562 0 l 1
 167.594726562 0 l 1
EndSplineSet
Validated: 524289
EndChar

StartChar: uni1EF8
Encoding: 7928 7928 127
Width: 564
GlyphClass: 2
Flags: HMW
HStem: 0 21G<248 248 248 316> 690 20G<-5 76 76 76 488 569 569 569> 797 45<335 355.5 335 366> 853 45<206 230>
VStem: 131 43<790 790> 248 68<0 290 0 290> 385 44<908 908>
AnchorPoint: "Anchor-3" 327.14 710 basechar 0
AnchorPoint: "Anchor-0" 201.947 0 basechar 0
LayerCount: 2
Fore
SplineSet
400.48046875 797 m 0
 373.48046875 797 355.243164062 807 337.59375 826 c 0
 319.944335938 845 311.354492188 853 289.354492188 853 c 0
 263.354492188 853 243.533203125 837 233.24609375 790 c 1
 190.24609375 790 l 1
 204.588867188 860 247.2890625 898 297.2890625 898 c 0xde
 329.2890625 898 348.172851562 886 366.646484375 866 c 0
 383.649414062 849 395.415039062 842 411.415039062 842 c 0
 436.415039062 842 452.236328125 858 465.052734375 908 c 1
 509.052734375 908 l 1
 492.709960938 838 452.48046875 797 400.48046875 797 c 0
167.947265625 0 m 1
 219.08203125 290 l 1
 40.1396484375 710 l 1
 121.139648438 710 l 1
 265.249023438 359 l 1
 533.139648438 710 l 1
 614.139648438 710 l 1
 287.08203125 290 l 1
 235.947265625 0 l 1
 167.947265625 0 l 1
EndSplineSet
Validated: 524289
EndChar

StartChar: Z
Encoding: 90 90 128
Width: 537
GlyphClass: 2
Flags: HMW
HStem: 0 66<106 508 106 508> 644 66<42 421 42 498>
VStem: 29 479<0 66 0 69 0 69>
AnchorPoint: "Anchor-3" 337.596 710 basechar 0
AnchorPoint: "Anchor-0" 212.404 0 basechar 0
LayerCount: 2
Fore
SplineSet
-33.595703125 0 m 1
 -21.4296875 69 l 1
 471.958984375 644 l 1
 92.958984375 644 l 1
 104.595703125 710 l 1
 560.595703125 710 l 1
 548.4296875 641 l 1
 55.041015625 66 l 1
 457.041015625 66 l 1
 445.404296875 0 l 1
 -33.595703125 0 l 1
EndSplineSet
Validated: 524289
EndChar

StartChar: Zacute
Encoding: 377 377 129
Width: 537
GlyphClass: 2
Flags: HMW
HStem: 0 66<106 508 106 508> 644 66<42 421 42 498> 782 124<246 388 246 388>
VStem: 29 479<0 66 0 69 0 69>
AnchorPoint: "Anchor-3" 320.316 710 basechar 0
AnchorPoint: "Anchor-0" 195.124 0 basechar 0
LayerCount: 2
Fore
SplineSet
304.01171875 782 m 1
 393.875976562 906 l 1
 467.875976562 906 l 1
 359.01171875 782 l 1
 304.01171875 782 l 1
-50.8759765625 0 m 1
 -38.7099609375 69 l 1
 454.678710938 644 l 1
 75.6787109375 644 l 1
 87.31640625 710 l 1
 543.31640625 710 l 1
 531.149414062 641 l 1
 37.76171875 66 l 1
 439.76171875 66 l 1
 428.124023438 0 l 1
 -50.8759765625 0 l 1
EndSplineSet
Validated: 524289
EndChar

StartChar: Zcaron
Encoding: 381 381 130
Width: 537
GlyphClass: 2
Flags: HMW
HStem: 0 66<106 508 106 508> 644 66<42 421 42 498> 782 130<151 310 151 240>
VStem: 29 479<0 66 0 69 0 69>
AnchorPoint: "Anchor-3" 319.787 710 basechar 0
AnchorPoint: "Anchor-0" 194.595 0 basechar 0
LayerCount: 2
Fore
SplineSet
231.405273438 912 m 1
 287.405273438 912 l 1
 339.006835938 819 l 1
 424.405273438 912 l 1
 480.405273438 912 l 1
 367.482421875 782 l 1
 297.482421875 782 l 1
 231.405273438 912 l 1
-51.4052734375 0 m 1
 -39.23828125 69 l 1
 454.149414062 644 l 1
 75.1494140625 644 l 1
 86.787109375 710 l 1
 542.787109375 710 l 1
 530.620117188 641 l 1
 37.232421875 66 l 1
 439.232421875 66 l 1
 427.594726562 0 l 1
 -51.4052734375 0 l 1
EndSplineSet
Validated: 524289
EndChar

StartChar: Zdotaccent
Encoding: 379 379 131
Width: 537
GlyphClass: 2
Flags: HMW
HStem: 0 66<106 508 106 508> 644 66<42 421 42 498> 798 89<240 310 240 310>
VStem: 240 70<798 887 798 887>
AnchorPoint: "Anchor-3" 321.991 710 basechar 0
AnchorPoint: "Anchor-0" 196.799 0 basechar 0
LayerCount: 2
Fore
SplineSet
302.5078125 798 m 1
 318.201171875 887 l 1
 388.201171875 887 l 1
 372.5078125 798 l 1
 302.5078125 798 l 1
-49.201171875 0 m 1
 -37.0341796875 69 l 1
 456.353515625 644 l 1
 77.353515625 644 l 1
 88.9912109375 710 l 1
 544.991210938 710 l 1
 532.82421875 641 l 1
 39.4365234375 66 l 1
 441.436523438 66 l 1
 429.798828125 0 l 1
 -49.201171875 0 l 1
EndSplineSet
Validated: 524289
Substitution2: "'ss08' Style Set 8 in Latin lookup 41 subtable" Zdotaccent.ss08
Substitution2: "'aalt' Access All Alternates in Latin lookup 0 subtable" Zdotaccent.ss08
EndChar

StartChar: uniA78B
Encoding: 42891 42891 132
Width: 162
GlyphClass: 1
Flags: HMW
HStem: 690 20G<47 115 115 115>
VStem: 47 68<610 710 610 710>
LayerCount: 2
Fore
SplineSet
24.8779296875 357 m 1
 60.4892578125 610 l 1
 78.1220703125 710 l 1
 146.122070312 710 l 1
 128.489257812 610 l 1
 74.8779296875 357 l 1
 24.8779296875 357 l 1
EndSplineSet
Validated: 524289
EndChar

StartChar: uni013B.loclMAH
Encoding: 65538 -1 133
Width: 570
GlyphClass: 2
Flags: HMW
HStem: -127 76<268 300 268 351> 0 66<161 525 161 525> 690 20G<93 161 161 161>
VStem: 93 68<66 710 66 710 66 710> 268 83<-120 -51 -120 -51 -120 -51>
AnchorPoint: "Anchor-4" 416.9 530 basechar 0
AnchorPoint: "Anchor-3" 208.64 710 basechar 0
AnchorPoint: "Anchor-1" 186.451 380 basechar 0
AnchorPoint: "Anchor-0" 228.36 -216 basechar 0
LayerCount: 2
Fore
SplineSet
49.447265625 0 m 1
 174.639648438 710 l 1
 242.639648438 710 l 1
 129.084960938 66 l 1
 493.084960938 66 l 1
 481.447265625 0 l 1
 49.447265625 0 l 1
169.360351562 -216 m 1
 234.053710938 -127 l 1
 202.053710938 -127 l 1
 215.454101562 -51 l 1
 298.454101562 -51 l 1
 286.288085938 -120 l 1
 215.360351562 -216 l 1
 169.360351562 -216 l 1
EndSplineSet
Validated: 524289
EndChar

StartChar: uni0145.loclMAH
Encoding: 65539 -1 134
Width: 732
GlyphClass: 2
Flags: HMW
HStem: -127 76<324 356 324 407> 0 67<538 571 571 571 571 639> 635 75<161 161>
VStem: 93 68<0 635 0 710> 324 83<-120 -51 -120 -51 -120 -51> 571 68<67 710 0 710>
AnchorPoint: "Anchor-3" 457.64 710 basechar 0
AnchorPoint: "Anchor-0" 283.36 -216 basechar 0
LayerCount: 2
Fore
SplineSet
49.447265625 0 m 1
 174.639648438 710 l 1
 271.639648438 710 l 1
 539.260742188 67 l 1
 652.639648438 710 l 1
 720.639648438 710 l 1
 595.447265625 0 l 1
 494.447265625 0 l 1
 229.415039062 635 l 1
 117.447265625 0 l 1
 49.447265625 0 l 1
225.360351562 -216 m 1
 290.053710938 -127 l 1
 258.053710938 -127 l 1
 271.454101562 -51 l 1
 354.454101562 -51 l 1
 342.288085938 -120 l 1
 271.360351562 -216 l 1
 225.360351562 -216 l 1
EndSplineSet
Validated: 524289
EndChar

StartChar: R.ss04
Encoding: 65540 -1 135
Width: 661
GlyphClass: 2
Flags: HMW
HStem: 0 21G<93 93 93 161 527 527 527 602> 294 66<161 342 161 342> 644 66<161 342 161 161>
VStem: 93 68<0 294 360 644> 518 72<455 546>
AnchorPoint: "Anchor-3" 389.596 710 basechar 0
AnchorPoint: "Anchor-0" 264.404 0 basechar 0
LayerCount: 2
Fore
SplineSet
30.404296875 0 m 1
 155.595703125 710 l 1
 404.595703125 710 l 2
 559.595703125 710 638.490234375 630 615.21484375 498 c 0
 597.58203125 398 526.239257812 328 419.006835938 304 c 1
 539.404296875 0 l 1
 464.404296875 0 l 1
 348.419921875 295 l 1
 342.244140625 294 337.244140625 294 331.244140625 294 c 2
 150.244140625 294 l 1
 98.404296875 0 l 1
 30.404296875 0 l 1
161.881835938 360 m 1
 342.881835938 360 l 2
 456.881835938 360 527.698242188 410 543.567382812 500 c 0
 559.7890625 592 506.958984375 644 392.958984375 644 c 2
 211.958984375 644 l 1
 161.881835938 360 l 1
EndSplineSet
Validated: 524321
EndChar

StartChar: Racute.ss04
Encoding: 65541 -1 136
Width: 661
GlyphClass: 2
Flags: HMW
HStem: 0 21G<93 93 93 161 527 527 527 602> 294 66<161 342 161 342> 644 66<161 342 161 161> 782 124<298 440 298 440>
VStem: 93 68<0 294 360 644> 518 72<455 546>
AnchorPoint: "Anchor-3" 372.316 710 basechar 0
AnchorPoint: "Anchor-0" 247.124 0 basechar 0
LayerCount: 2
Fore
SplineSet
356.01171875 782 m 1
 445.875976562 906 l 1
 519.875976562 906 l 1
 411.01171875 782 l 1
 356.01171875 782 l 1
13.1240234375 0 m 1
 138.31640625 710 l 1
 387.31640625 710 l 2
 542.31640625 710 621.209960938 630 597.934570312 498 c 0
 580.301757812 398 508.958984375 328 401.727539062 304 c 1
 522.124023438 0 l 1
 447.124023438 0 l 1
 331.140625 295 l 1
 324.963867188 294 319.963867188 294 313.963867188 294 c 2
 132.963867188 294 l 1
 81.1240234375 0 l 1
 13.1240234375 0 l 1
144.6015625 360 m 1
 325.6015625 360 l 2
 439.6015625 360 510.41796875 410 526.287109375 500 c 0
 542.509765625 592 489.678710938 644 375.678710938 644 c 2
 194.678710938 644 l 1
 144.6015625 360 l 1
EndSplineSet
Validated: 524321
EndChar

StartChar: Rcaron.ss04
Encoding: 65542 -1 137
Width: 661
GlyphClass: 2
Flags: HMW
HStem: 0 21G<93 93 93 161 527 527 527 602> 294 66<161 342 161 342> 644 66<161 342 161 161> 782 130<203 362 203 292>
VStem: 93 68<0 294 360 644> 518 72<455 546>
AnchorPoint: "Anchor-3" 371.787 710 basechar 0
AnchorPoint: "Anchor-0" 246.595 0 basechar 0
LayerCount: 2
Fore
SplineSet
283.405273438 912 m 1
 339.405273438 912 l 1
 391.006835938 819 l 1
 476.405273438 912 l 1
 532.405273438 912 l 1
 419.482421875 782 l 1
 349.482421875 782 l 1
 283.405273438 912 l 1
12.5947265625 0 m 1
 137.787109375 710 l 1
 386.787109375 710 l 2
 541.787109375 710 620.680664062 630 597.405273438 498 c 0
 579.7734375 398 508.4296875 328 401.198242188 304 c 1
 521.594726562 0 l 1
 446.594726562 0 l 1
 330.611328125 295 l 1
 324.434570312 294 319.434570312 294 313.434570312 294 c 2
 132.434570312 294 l 1
 80.5947265625 0 l 1
 12.5947265625 0 l 1
144.072265625 360 m 1
 325.072265625 360 l 2
 439.072265625 360 509.888671875 410 525.758789062 500 c 0
 541.98046875 592 489.149414062 644 375.149414062 644 c 2
 194.149414062 644 l 1
 144.072265625 360 l 1
EndSplineSet
Validated: 524321
EndChar

StartChar: uni0156.ss04
Encoding: 65543 -1 138
Width: 661
GlyphClass: 2
Flags: HMW
HStem: -127 76<286 318 286 369> 0 21G<93 93 93 161 527 527 527 602> 294 66<161 342 161 342> 644 66<161 342 161 161>
VStem: 93 68<0 294 360 644> 286 83<-120 -51 -120 -51 -120 -51> 518 72<455 546>
AnchorPoint: "Anchor-3" 408.64 710 basechar 0
AnchorPoint: "Anchor-0" 245.36 -216 basechar 0
LayerCount: 2
Fore
SplineSet
49.447265625 0 m 1
 174.639648438 710 l 1
 423.639648438 710 l 2
 578.639648438 710 657.533203125 630 634.2578125 498 c 0
 616.625 398 545.282226562 328 438.05078125 304 c 1
 558.447265625 0 l 1
 483.447265625 0 l 1
 367.463867188 295 l 1
 361.287109375 294 356.287109375 294 350.287109375 294 c 2
 169.287109375 294 l 1
 117.447265625 0 l 1
 49.447265625 0 l 1
180.924804688 360 m 1
 361.924804688 360 l 2
 475.924804688 360 546.741210938 410 562.610351562 500 c 0
 578.833007812 592 526.001953125 644 412.001953125 644 c 2
 231.001953125 644 l 1
 180.924804688 360 l 1
187.360351562 -216 m 1
 252.053710938 -127 l 1
 220.053710938 -127 l 1
 233.454101562 -51 l 1
 316.454101562 -51 l 1
 304.288085938 -120 l 1
 233.360351562 -216 l 1
 187.360351562 -216 l 1
EndSplineSet
Validated: 524321
EndChar

StartChar: I.ss05
Encoding: 65544 -1 139
Width: 391
GlyphClass: 2
Flags: HMW
HStem: 0 66<47 161 47 161 229 344> 644 66<53 161 53 338 229 229 229 338>
VStem: 47 182<0 644 66 644> 53 176<66 710 66 710> 161 68<66 644 66 644> 161 177<66 710 644 710> 161 183<0 644>
AnchorPoint: "Anchor-3" 257.596 710 basechar 0
AnchorPoint: "Anchor-2" 281.404 0 basechar 0
AnchorPoint: "Anchor-0" 132.404 0 basechar 0
LayerCount: 2
Fore
SplineSet
-15.595703125 0 m 1xe0
 -3.958984375 66 l 1xe0
 110.041015625 66 l 1
 211.958984375 644 l 1xc8
 103.958984375 644 l 1
 115.595703125 710 l 1xd0
 400.595703125 710 l 1
 388.958984375 644 l 1xc4
 279.958984375 644 l 1
 178.041015625 66 l 1xc8
 293.041015625 66 l 1
 281.404296875 0 l 1xc2
 -15.595703125 0 l 1xe0
EndSplineSet
Validated: 524289
EndChar

StartChar: Iacute.ss05
Encoding: 65545 -1 140
Width: 391
GlyphClass: 2
Flags: HMW
HStem: 0 66<47 161 47 161 229 344> 644 66<53 161 53 338 229 229 229 338> 782 124<166 308 166 308>
VStem: 47 182<0 644 66 644> 53 176<66 710 66 710> 161 68<66 644 66 644> 161 177<66 710 644 710> 161 183<0 644>
AnchorPoint: "Anchor-3" 240.316 710 basechar 0
AnchorPoint: "Anchor-2" 264.124 0 basechar 0
AnchorPoint: "Anchor-0" 115.124 0 basechar 0
LayerCount: 2
Fore
SplineSet
224.01171875 782 m 1xf0
 313.875976562 906 l 1
 387.875976562 906 l 1
 279.01171875 782 l 1
 224.01171875 782 l 1xf0
-32.8759765625 0 m 1
 -21.23828125 66 l 1xd0
 92.76171875 66 l 1
 194.678710938 644 l 1xc4
 86.6787109375 644 l 1
 98.31640625 710 l 1xc8
 383.31640625 710 l 1
 371.678710938 644 l 1xc2
 262.678710938 644 l 1
 160.76171875 66 l 1xc4
 275.76171875 66 l 1
 264.124023438 0 l 1xc1
 -32.8759765625 0 l 1
EndSplineSet
Validated: 524289
EndChar

StartChar: Icircumflex.ss05
Encoding: 65546 -1 141
Width: 391
GlyphClass: 2
Flags: HMW
HStem: 0 66<47 161 47 161 229 344> 644 66<53 161 53 338 229 229 229 338> 782 130<71 231 71 231 161 264 161 320>
VStem: 47 182<0 644 66 644> 53 176<66 710 66 710> 161 68<66 644 66 644> 161 177<66 710 644 710> 161 183<0 644>
AnchorPoint: "Anchor-3" 239.787 710 basechar 0
AnchorPoint: "Anchor-2" 263.595 0 basechar 0
AnchorPoint: "Anchor-0" 114.595 0 basechar 0
LayerCount: 2
Fore
SplineSet
128.482421875 782 m 1xf0
 241.405273438 912 l 1
 311.405273438 912 l 1
 377.482421875 782 l 1
 321.482421875 782 l 1
 269.880859375 875 l 1
 184.482421875 782 l 1
 128.482421875 782 l 1xf0
-33.4052734375 0 m 1
 -21.767578125 66 l 1xd0
 92.232421875 66 l 1
 194.149414062 644 l 1xc4
 86.1494140625 644 l 1
 97.787109375 710 l 1xc8
 382.787109375 710 l 1
 371.149414062 644 l 1xc2
 262.149414062 644 l 1
 160.232421875 66 l 1xc4
 275.232421875 66 l 1
 263.594726562 0 l 1xc1
 -33.4052734375 0 l 1
EndSplineSet
Validated: 524289
EndChar

StartChar: Idieresis.ss05
Encoding: 65547 -1 142
Width: 391
GlyphClass: 2
Flags: HMW
HStem: 0 66<47 161 47 161 229 344> 644 66<53 161 53 338 229 229 229 338> 798 89<81 151 81 151 240 310>
VStem: 47 182<0 644 66 644> 53 176<66 710 66 710> 81 70<798 887 798 887> 161 68<66 644 66 644> 161 177<66 710 644 710> 161 183<0 644> 240 70<798 887 798 887>
AnchorPoint: "Anchor-3" 241.991 710 basechar 0
AnchorPoint: "Anchor-2" 265.799 0 basechar 0
AnchorPoint: "Anchor-0" 116.799 0 basechar 0
LayerCount: 2
Fore
SplineSet
143.5078125 798 m 1xe440
 159.201171875 887 l 1
 229.201171875 887 l 1
 213.5078125 798 l 1
 143.5078125 798 l 1xe440
302.5078125 798 m 1
 318.201171875 887 l 1
 388.201171875 887 l 1
 372.5078125 798 l 1
 302.5078125 798 l 1
-31.201171875 0 m 1xf0
 -19.5634765625 66 l 1xf0
 94.4365234375 66 l 1
 196.353515625 644 l 1xe2
 88.353515625 644 l 1
 99.9912109375 710 l 1xe8
 384.991210938 710 l 1
 373.353515625 644 l 1xe1
 264.353515625 644 l 1
 162.436523438 66 l 1xe2
 277.436523438 66 l 1
 265.798828125 0 l 1xe080
 -31.201171875 0 l 1xf0
EndSplineSet
Validated: 524289
Substitution2: "'ss08' Style Set 8 in Latin lookup 41 subtable" Idieresis.ss05.ss08
Substitution2: "'aalt' Access All Alternates in Latin lookup 0 subtable" Idieresis.ss05.ss08
EndChar

StartChar: Idotaccent.ss05
Encoding: 65548 -1 143
Width: 391
GlyphClass: 2
Flags: HMW
HStem: 0 66<47 161 47 161 229 344> 644 66<53 161 53 338 229 229 229 338> 798 89<160 230 160 230>
VStem: 47 182<0 644 66 644> 53 176<66 710 66 710> 160 70<798 887 798 887> 161 68<66 644 66 644> 161 177<66 710 644 710> 161 183<0 644>
AnchorPoint: "Anchor-3" 241.991 710 basechar 0
AnchorPoint: "Anchor-2" 265.799 0 basechar 0
AnchorPoint: "Anchor-0" 116.799 0 basechar 0
LayerCount: 2
Fore
SplineSet
222.5078125 798 m 1xe4
 238.201171875 887 l 1
 308.201171875 887 l 1
 292.5078125 798 l 1
 222.5078125 798 l 1xe4
-31.201171875 0 m 1xf0
 -19.5634765625 66 l 1xf0
 94.4365234375 66 l 1
 196.353515625 644 l 1xe2
 88.353515625 644 l 1
 99.9912109375 710 l 1xe8
 384.991210938 710 l 1
 373.353515625 644 l 1xe1
 264.353515625 644 l 1
 162.436523438 66 l 1xe2
 277.436523438 66 l 1
 265.798828125 0 l 1xe080
 -31.201171875 0 l 1xf0
EndSplineSet
Validated: 524289
Substitution2: "'ss08' Style Set 8 in Latin lookup 41 subtable" Idotaccent.ss05.ss08
Substitution2: "'aalt' Access All Alternates in Latin lookup 0 subtable" Idotaccent.ss05.ss08
EndChar

StartChar: Igrave.ss05
Encoding: 65549 -1 144
Width: 391
GlyphClass: 2
Flags: HMW
HStem: 0 66<47 161 47 161 229 344> 644 66<53 161 53 338 229 229 229 338> 788 124<84 170 84 226>
VStem: 47 182<0 644 66 644> 53 176<66 710 66 710> 161 68<66 644 66 644> 161 177<66 710 644 710> 161 183<0 644>
AnchorPoint: "Anchor-3" 239.787 710 basechar 0
AnchorPoint: "Anchor-2" 263.595 0 basechar 0
AnchorPoint: "Anchor-0" 114.595 0 basechar 0
LayerCount: 2
Fore
SplineSet
228.541015625 788 m 1xf0
 164.405273438 912 l 1
 238.405273438 912 l 1
 284.541015625 788 l 1
 228.541015625 788 l 1xf0
-33.4052734375 0 m 1
 -21.767578125 66 l 1xd0
 92.232421875 66 l 1
 194.149414062 644 l 1xc4
 86.1494140625 644 l 1
 97.787109375 710 l 1xc8
 382.787109375 710 l 1
 371.149414062 644 l 1xc2
 262.149414062 644 l 1
 160.232421875 66 l 1xc4
 275.232421875 66 l 1
 263.594726562 0 l 1xc1
 -33.4052734375 0 l 1
EndSplineSet
Validated: 524289
EndChar

StartChar: Imacron.ss05
Encoding: 65550 -1 145
Width: 391
GlyphClass: 2
Flags: HMW
HStem: 0 66<47 161 47 161 229 344> 644 66<53 161 53 338 229 229 229 338> 811 58<65 326 65 326>
VStem: 47 182<0 644 66 644> 53 176<66 710 66 710> 65 261<811 869 811 869> 161 68<66 644 66 644> 161 177<66 710 644 710> 161 183<0 644>
AnchorPoint: "Anchor-3" 243.578 710 basechar 0
AnchorPoint: "Anchor-2" 267.386 0 basechar 0
AnchorPoint: "Anchor-0" 118.386 0 basechar 0
LayerCount: 2
Fore
SplineSet
131.38671875 811 m 1xe4
 141.614257812 869 l 1
 402.614257812 869 l 1
 392.38671875 811 l 1
 131.38671875 811 l 1xe4
-29.6142578125 0 m 1xf0
 -17.9765625 66 l 1xf0
 96.0234375 66 l 1
 197.940429688 644 l 1xe2
 89.9404296875 644 l 1
 101.578125 710 l 1xe8
 386.578125 710 l 1
 374.940429688 644 l 1xe1
 265.940429688 644 l 1
 164.0234375 66 l 1xe2
 279.0234375 66 l 1
 267.385742188 0 l 1xe080
 -29.6142578125 0 l 1xf0
EndSplineSet
Validated: 524289
EndChar

StartChar: Iogonek.ss05
Encoding: 65551 -1 146
Width: 391
GlyphClass: 2
Flags: HMW
HStem: -204 54<303.5 319> 0 66<47 161 47 161 229 289> 644 66<53 161 53 338 229 229 229 338>
VStem: 47 182<0 644 66 644> 53 176<66 710 66 710> 161 68<66 644 66 644> 161 177<66 710 644 710> 161 183<0 644> 218 62<-131 -119>
AnchorPoint: "Anchor-3" 275.581 710 basechar 0
AnchorPoint: "Anchor-2" 299.39 0 basechar 0
AnchorPoint: "Anchor-0" 150.39 0 basechar 0
LayerCount: 2
Fore
SplineSet
2.3896484375 0 m 1x70
 14.0263671875 66 l 1x70
 128.026367188 66 l 1
 229.944335938 644 l 1x64
 121.944335938 644 l 1
 133.581054688 710 l 1x68
 418.581054688 710 l 1
 406.944335938 644 l 1x62
 297.944335938 644 l 1
 196.026367188 66 l 1x64
 311.026367188 66 l 1
 299.389648438 0 l 1x61
 259.454101562 -45 l 2
 230.458984375 -79 217.932617188 -99 214.053710938 -121 c 0
 210.52734375 -141 222.940429688 -150 241.940429688 -150 c 0
 260.940429688 -150 277.822265625 -145 292.409179688 -136 c 1
 305.650390625 -180 l 1
 287.181640625 -194 254.418945312 -204 222.418945312 -204 c 0
 172.418945312 -204 141.12109375 -183 149.232421875 -137 c 0xe080
 155.580078125 -101 189.633789062 -61 223.333984375 -23 c 2
 244.389648438 0 l 1
 2.3896484375 0 l 1x70
EndSplineSet
Validated: 524321
EndChar

StartChar: Itilde.ss05
Encoding: 65552 -1 147
Width: 391
GlyphClass: 2
Flags: HMW
HStem: 0 66<47 161 47 161 229 344> 644 66<53 161 53 338 229 229 229 338> 797 45<248 268.5 248 279> 853 45<119 143>
VStem: 44 43<790 790> 47 182<0 644 66 644> 53 176<66 710 66 710> 161 68<66 644 66 644> 161 177<66 710 644 710> 161 183<0 644> 298 44<908 908>
AnchorPoint: "Anchor-3" 240.14 710 basechar 0
AnchorPoint: "Anchor-2" 263.947 0 basechar 0
AnchorPoint: "Anchor-0" 114.947 0 basechar 0
LayerCount: 2
Fore
SplineSet
313.48046875 797 m 0xe920
 286.48046875 797 268.243164062 807 250.59375 826 c 0
 232.944335938 845 224.354492188 853 202.354492188 853 c 0
 176.354492188 853 156.533203125 837 146.24609375 790 c 1
 103.24609375 790 l 1
 117.588867188 860 160.2890625 898 210.2890625 898 c 0xd920
 242.2890625 898 261.172851562 886 279.646484375 866 c 0
 296.649414062 849 308.415039062 842 324.415039062 842 c 0
 349.415039062 842 365.236328125 858 378.052734375 908 c 1
 422.052734375 908 l 1
 405.709960938 838 365.48046875 797 313.48046875 797 c 0xe920
-33.052734375 0 m 1xd420
 -21.4150390625 66 l 1xd420
 92.5849609375 66 l 1
 194.501953125 644 l 1xd920
 86.501953125 644 l 1
 98.1396484375 710 l 1xd220
 383.139648438 710 l 1
 371.501953125 644 l 1xd880
 262.501953125 644 l 1
 160.584960938 66 l 1xd920
 275.584960938 66 l 1
 263.947265625 0 l 1xd840
 -33.052734375 0 l 1xd420
EndSplineSet
Validated: 524289
EndChar

StartChar: G.ss06
Encoding: 65553 -1 148
Width: 682
GlyphClass: 2
Flags: HMW
HStem: -16 67<276.5 426.5 276.5 447> 285 64<362 576 362 640> 659 67<279.5 422.5>
VStem: 47 71<265 442 265 462.5> 576 64<285 285>
AnchorPoint: "Anchor-3" 423.596 710 basechar 0
AnchorPoint: "Anchor-0" 298.404 0 basechar 0
LayerCount: 2
Fore
SplineSet
290.583007812 -16 m 0
 92.5830078125 -16 9.08984375 140 46.8232421875 354 c 0
 85.0869140625 571 228.416992188 726 427.416992188 726 c 0
 580.416992188 726 658.1953125 634 661.451171875 488 c 1
 589.5703125 483 l 1
 588.260742188 589 536.603515625 659 415.603515625 659 c 0
 250.603515625 659 148.857421875 530 117.823242188 354 c 0
 86.4375 176 143.396484375 51 302.396484375 51 c 0
 443.396484375 51 537.029296875 151 563.657226562 285 c 1
 349.657226562 285 l 1
 360.942382812 349 l 1
 638.942382812 349 l 1
 632.41796875 312 l 2
 596.624023438 109 472.583007812 -16 290.583007812 -16 c 0
EndSplineSet
Validated: 524321
EndChar

StartChar: Gbreve.ss06
Encoding: 65554 -1 149
Width: 682
GlyphClass: 2
Flags: HMW
HStem: -16 67<276.5 426.5 276.5 447> 285 64<362 576 362 640> 659 67<279.5 422.5> 788 51<337 385 337 400>
VStem: 47 71<265 442 265 462.5> 576 64<285 285>
AnchorPoint: "Anchor-3" 407.197 710 basechar 0
AnchorPoint: "Anchor-0" 282.006 0 basechar 0
LayerCount: 2
Fore
SplineSet
420.951171875 788 m 0
 342.951171875 788 300.590820312 837 307.815429688 912 c 1
 355.815429688 912 l 1
 352.999023438 862 381.944335938 839 429.944335938 839 c 0
 477.944335938 839 513.999023438 862 529.815429688 912 c 1
 576.815429688 912 l 1
 557.590820312 837 498.951171875 788 420.951171875 788 c 0
274.184570312 -16 m 0
 76.1845703125 -16 -7.30859375 140 30.4248046875 354 c 0
 68.6884765625 571 212.018554688 726 411.018554688 726 c 0
 564.018554688 726 641.796875 634 645.052734375 488 c 1
 573.171875 483 l 1
 571.862304688 589 520.205078125 659 399.205078125 659 c 0
 234.205078125 659 132.458984375 530 101.424804688 354 c 0
 70.0390625 176 126.998046875 51 285.998046875 51 c 0
 426.998046875 51 520.630859375 151 547.258789062 285 c 1
 333.258789062 285 l 1
 344.543945312 349 l 1
 622.543945312 349 l 1
 616.01953125 312 l 2
 580.225585938 109 456.184570312 -16 274.184570312 -16 c 0
EndSplineSet
Validated: 524321
EndChar

StartChar: Gcircumflex.ss06
Encoding: 65555 -1 150
Width: 682
GlyphClass: 2
Flags: HMW
HStem: -16 67<276.5 426.5 276.5 447> 285 64<362 576 362 640> 659 67<279.5 422.5> 782 130<237 396 237 396 326 430 326 486>
VStem: 47 71<265 442 265 462.5> 576 64<285 285>
AnchorPoint: "Anchor-3" 407.197 710 basechar 0
AnchorPoint: "Anchor-0" 282.006 0 basechar 0
LayerCount: 2
Fore
SplineSet
295.893554688 782 m 1
 407.815429688 912 l 1
 477.815429688 912 l 1
 544.893554688 782 l 1
 488.893554688 782 l 1
 436.291992188 875 l 1
 351.893554688 782 l 1
 295.893554688 782 l 1
274.184570312 -16 m 0
 76.1845703125 -16 -7.30859375 140 30.4248046875 354 c 0
 68.6884765625 571 212.018554688 726 411.018554688 726 c 0
 564.018554688 726 641.796875 634 645.052734375 488 c 1
 573.171875 483 l 1
 571.862304688 589 520.205078125 659 399.205078125 659 c 0
 234.205078125 659 132.458984375 530 101.424804688 354 c 0
 70.0390625 176 126.998046875 51 285.998046875 51 c 0
 426.998046875 51 520.630859375 151 547.258789062 285 c 1
 333.258789062 285 l 1
 344.543945312 349 l 1
 622.543945312 349 l 1
 616.01953125 312 l 2
 580.225585938 109 456.184570312 -16 274.184570312 -16 c 0
EndSplineSet
Validated: 524321
EndChar

StartChar: uni0122.ss06
Encoding: 65556 -1 151
Width: 682
GlyphClass: 2
Flags: HMW
HStem: -127 76<320 352 320 403> -16 67<276.5 426.5 276.5 447> 285 64<362 576 362 640> 659 67<279.5 422.5>
VStem: 47 71<265 442 265 462.5> 320 83<-120 -51 -120 -51 -120 -51> 576 64<285 285>
AnchorPoint: "Anchor-3" 441.229 710 basechar 0
AnchorPoint: "Anchor-0" 277.95 -216 basechar 0
LayerCount: 2
Fore
SplineSet
308.215820312 -16 m 0
 110.215820312 -16 26.72265625 140 64.4560546875 354 c 0
 102.719726562 571 246.049804688 726 445.049804688 726 c 0
 598.049804688 726 675.828125 634 679.083984375 488 c 1
 607.202148438 483 l 1
 605.893554688 589 554.236328125 659 433.236328125 659 c 0
 268.236328125 659 166.490234375 530 135.456054688 354 c 0
 104.0703125 176 161.029296875 51 320.029296875 51 c 0
 461.029296875 51 554.662109375 151 581.290039062 285 c 1
 367.290039062 285 l 1
 378.575195312 349 l 1
 656.575195312 349 l 1
 650.05078125 312 l 2
 614.255859375 109 490.215820312 -16 308.215820312 -16 c 0
219.950195312 -216 m 1
 284.643554688 -127 l 1
 252.643554688 -127 l 1
 266.043945312 -51 l 1
 349.043945312 -51 l 1
 336.876953125 -120 l 1
 265.950195312 -216 l 1
 219.950195312 -216 l 1
EndSplineSet
Validated: 524321
EndChar

StartChar: Gdotaccent.ss06
Encoding: 65557 -1 152
Width: 682
GlyphClass: 2
Flags: HMW
HStem: -16 67<276.5 426.5 276.5 447> 285 64<362 576 362 640> 659 67<279.5 422.5> 798 89<326 396 326 396>
VStem: 47 71<265 442 265 462.5> 326 70<798 887 798 887> 576 64<285 285>
AnchorPoint: "Anchor-3" 409.401 710 basechar 0
AnchorPoint: "Anchor-0" 284.21 0 basechar 0
LayerCount: 2
Fore
SplineSet
389.918945312 798 m 1
 405.611328125 887 l 1
 475.611328125 887 l 1
 459.918945312 798 l 1
 389.918945312 798 l 1
276.388671875 -16 m 0
 78.388671875 -16 -5.1044921875 140 32.62890625 354 c 0
 70.892578125 571 214.22265625 726 413.22265625 726 c 0
 566.22265625 726 644.000976562 634 647.256835938 488 c 1
 575.375976562 483 l 1
 574.06640625 589 522.409179688 659 401.409179688 659 c 0
 236.409179688 659 134.663085938 530 103.62890625 354 c 0
 72.2431640625 176 129.202148438 51 288.202148438 51 c 0
 429.202148438 51 522.834960938 151 549.462890625 285 c 1
 335.462890625 285 l 1
 346.748046875 349 l 1
 624.748046875 349 l 1
 618.223632812 312 l 2
 582.4296875 109 458.388671875 -16 276.388671875 -16 c 0
EndSplineSet
Validated: 524321
Substitution2: "'ss08' Style Set 8 in Latin lookup 41 subtable" Gdotaccent.ss06.ss08
Substitution2: "'aalt' Access All Alternates in Latin lookup 0 subtable" Gdotaccent.ss06.ss08
EndChar

StartChar: uni1E20.ss06
Encoding: 65558 -1 153
Width: 682
GlyphClass: 2
Flags: HMW
HStem: -16 67<276.5 426.5 276.5 447> 285 64<362 576 362 640> 659 67<279.5 422.5> 811 58<230 492 230 492>
VStem: 47 71<265 442 265 462.5> 230 262<811 869 811 869> 576 64<285 285>
AnchorPoint: "Anchor-3" 410.988 710 basechar 0
AnchorPoint: "Anchor-0" 285.797 0 basechar 0
LayerCount: 2
Fore
SplineSet
297.797851562 811 m 1
 308.024414062 869 l 1
 570.024414062 869 l 1
 559.797851562 811 l 1
 297.797851562 811 l 1
277.975585938 -16 m 0
 79.9755859375 -16 -3.517578125 140 34.2158203125 354 c 0
 72.4794921875 571 215.809570312 726 414.809570312 726 c 0
 567.809570312 726 645.587890625 634 648.84375 488 c 1
 576.962890625 483 l 1
 575.653320312 589 523.99609375 659 402.99609375 659 c 0
 237.99609375 659 136.25 530 105.215820312 354 c 0
 73.830078125 176 130.7890625 51 289.7890625 51 c 0
 430.7890625 51 524.421875 151 551.049804688 285 c 1
 337.049804688 285 l 1
 348.334960938 349 l 1
 626.334960938 349 l 1
 619.810546875 312 l 2
 584.016601562 109 459.975585938 -16 277.975585938 -16 c 0
EndSplineSet
Validated: 524321
EndChar

StartChar: Adieresis.ss08
Encoding: 65559 -1 154
Width: 649
GlyphClass: 2
Flags: HMW
HStem: 0 21G<21 21 21 95 554 554 554 628> 213 66<194 455 194 478 171 455> 649 61<325 325> 798 85<226.5 249.5 399.5 423>
VStem: 197 82<827.5 853.5> 371 81<827.5 853.5>
AnchorPoint: "Anchor-3" 372.344 710 basechar 0
AnchorPoint: "Anchor-2" 550.151 0 basechar 0
AnchorPoint: "Anchor-0" 247.151 0 basechar 0
LayerCount: 2
Fore
SplineSet
300.860351562 798 m 0
 277.860351562 798 262.681640625 814 267.442382812 841 c 0
 271.850585938 866 292.848632812 883 315.848632812 883 c 0
 338.848632812 883 353.850585938 866 349.442382812 841 c 0
 344.681640625 814 323.860351562 798 300.860351562 798 c 0
473.860351562 798 m 0
 450.860351562 798 436.681640625 814 441.442382812 841 c 0
 445.850585938 866 465.848632812 883 488.848632812 883 c 0
 512.848632812 883 526.850585938 866 522.442382812 841 c 0
 517.681640625 814 497.860351562 798 473.860351562 798 c 0
-56.8486328125 0 m 1
 327.34375 710 l 1
 417.34375 710 l 1
 550.151367188 0 l 1
 476.151367188 0 l 1
 437.708984375 213 l 1
 130.708984375 213 l 1
 17.1513671875 0 l 1
 -56.8486328125 0 l 1
165.346679688 279 m 1
 426.346679688 279 l 1
 361.587890625 649 l 1
 165.346679688 279 l 1
EndSplineSet
Validated: 524321
EndChar

StartChar: Cdotaccent.ss08
Encoding: 65560 -1 155
Width: 694
GlyphClass: 2
Flags: HMW
HStem: -16 67<286.5 424 286.5 442> 659 67<286.5 421> 798 85<346.5 369.5>
VStem: 47 71<259 449 259 469> 317 82<827.5 853.5>
AnchorPoint: "Anchor-3" 405.755 710 basechar 0
AnchorPoint: "Anchor-0" 283.562 0 basechar 0
LayerCount: 2
Fore
SplineSet
422.271484375 798 m 0
 399.271484375 798 384.092773438 814 388.853515625 841 c 0
 393.26171875 866 414.258789062 883 437.258789062 883 c 0
 460.258789062 883 475.26171875 866 470.853515625 841 c 0
 466.092773438 814 445.271484375 798 422.271484375 798 c 0
279.741210938 -16 m 0
 91.7412109375 -16 -7.5732421875 124 32.982421875 354 c 0
 73.537109375 584 222.575195312 726 410.575195312 726 c 0
 576.575195312 726 651.82421875 631 654.728515625 483 c 1
 581.846679688 478 l 1
 581.418945312 589 522.76171875 659 398.76171875 659 c 0
 253.76171875 659 137.484375 544 103.982421875 354 c 0
 70.4794921875 164 146.5546875 51 291.5546875 51 c 0
 421.5546875 51 507.779296875 126 547.291015625 248 c 1
 618.41015625 243 l 1
 565.90234375 87 445.741210938 -16 279.741210938 -16 c 0
EndSplineSet
Validated: 524321
EndChar

StartChar: Edieresis.ss08
Encoding: 65561 -1 156
Width: 593
GlyphClass: 2
Flags: HMW
HStem: 0 66<161 538 161 538> 323 65<161 518 161 518> 644 66<161 530 161 161> 798 85<215 238.5 388.5 411.5>
VStem: 93 68<66 323 388 644> 186 81<827.5 853.5> 359 82<827.5 853.5>
AnchorPoint: "Anchor-3" 360.344 710 basechar 0
AnchorPoint: "Anchor-2" 460.151 0 basechar 0
AnchorPoint: "Anchor-0" 237.151 0 basechar 0
LayerCount: 2
Fore
SplineSet
289.860351562 798 m 0
 265.860351562 798 251.681640625 814 256.442382812 841 c 0
 260.850585938 866 280.848632812 883 304.848632812 883 c 0
 327.848632812 883 341.850585938 866 337.442382812 841 c 0
 332.681640625 814 312.860351562 798 289.860351562 798 c 0
462.860351562 798 m 0
 439.860351562 798 424.681640625 814 429.442382812 841 c 0
 433.850585938 866 454.848632812 883 477.848632812 883 c 0
 500.848632812 883 515.850585938 866 511.442382812 841 c 0
 506.681640625 814 485.860351562 798 462.860351562 798 c 0
15.1513671875 0 m 1xe8
 140.34375 710 l 1
 577.34375 710 l 1
 565.706054688 644 l 1
 196.706054688 644 l 1
 151.56640625 388 l 1
 508.56640625 388 l 1
 497.10546875 323 l 1
 140.10546875 323 l 1
 94.7890625 66 l 1
 471.7890625 66 l 1
 460.151367188 0 l 1
 15.1513671875 0 l 1xe8
EndSplineSet
Validated: 524321
EndChar

StartChar: Edotaccent.ss08
Encoding: 65562 -1 157
Width: 593
GlyphClass: 2
Flags: HMW
HStem: 0 66<161 538 161 538> 323 65<161 518 161 518> 644 66<161 530 161 161> 798 85<302.5 325.5>
VStem: 93 68<66 323 388 644> 273 82<827.5 853.5>
AnchorPoint: "Anchor-3" 360.344 710 basechar 0
AnchorPoint: "Anchor-2" 460.151 0 basechar 0
AnchorPoint: "Anchor-0" 237.151 0 basechar 0
LayerCount: 2
Fore
SplineSet
376.860351562 798 m 0
 353.860351562 798 338.681640625 814 343.442382812 841 c 0
 347.850585938 866 368.848632812 883 391.848632812 883 c 0
 414.848632812 883 429.850585938 866 425.442382812 841 c 0
 420.681640625 814 399.860351562 798 376.860351562 798 c 0
15.1513671875 0 m 1
 140.34375 710 l 1
 577.34375 710 l 1
 565.706054688 644 l 1
 196.706054688 644 l 1
 151.56640625 388 l 1
 508.56640625 388 l 1
 497.10546875 323 l 1
 140.10546875 323 l 1
 94.7890625 66 l 1
 471.7890625 66 l 1
 460.151367188 0 l 1
 15.1513671875 0 l 1
EndSplineSet
Validated: 524321
EndChar

StartChar: Gdotaccent.ss08
Encoding: 65563 -1 158
Width: 692
GlyphClass: 2
Flags: HMW
HStem: -16 67<278.5 412.5> 0 21G<588 640 588 588> 285 64<362 576 362 640> 659 67<277.5 421> 798 85<349 372.5>
VStem: 47 71<265.5 440 265.5 463> 320 81<827.5 853.5> 576 64<285 285> 586 54
AnchorPoint: "Anchor-3" 408.755 710 basechar 0
AnchorPoint: "Anchor-0" 285.562 0 basechar 0
LayerCount: 2
Fore
SplineSet
425.271484375 798 m 0xbe80
 401.271484375 798 387.092773438 814 391.853515625 841 c 0
 396.26171875 866 416.258789062 883 440.258789062 883 c 0
 463.258789062 883 477.26171875 866 472.853515625 841 c 0
 468.092773438 814 448.271484375 798 425.271484375 798 c 0xbe80
277.741210938 -16 m 0
 83.7412109375 -16 -5.45703125 136 32.982421875 354 c 0
 71.4208984375 572 213.575195312 726 411.575195312 726 c 0
 570.575195312 726 645.6484375 630 647.609375 488 c 1
 575.728515625 483 l 1
 573.948242188 592 521.76171875 659 399.76171875 659 c 0
 234.76171875 659 134.310546875 526 103.982421875 354 c 0
 72.7724609375 177 131.5546875 51 290.5546875 51 c 0
 422.5546875 51 520.834960938 149 549.815429688 285 c 1xb5
 335.815429688 285 l 1
 347.100585938 349 l 1
 625.100585938 349 l 1
 563.5625 0 l 1
 511.5625 0 l 1x7480
 531.895507812 138 l 1
 484.202148438 49 388.741210938 -16 277.741210938 -16 c 0
EndSplineSet
Validated: 524321
EndChar

StartChar: Idieresis.ss08
Encoding: 65564 -1 159
Width: 255
GlyphClass: 2
Flags: HMW
HStem: 0 21G<93 93 93 161> 690 20G<93 161 161 161> 798 85<29 52.5 202.5 225.5>
VStem: 0 81<827.5 853.5> 93 68<0 710 0 710> 173 82<827.5 853.5>
AnchorPoint: "Anchor-3" 174.344 710 basechar 0
AnchorPoint: "Anchor-2" 83.1514 0 basechar 0
AnchorPoint: "Anchor-0" 49.1514 0 basechar 0
LayerCount: 2
Fore
SplineSet
103.860351562 798 m 0
 79.8603515625 798 65.681640625 814 70.4423828125 841 c 0
 74.8505859375 866 94.8486328125 883 118.848632812 883 c 0
 141.848632812 883 155.850585938 866 151.442382812 841 c 0
 146.681640625 814 126.860351562 798 103.860351562 798 c 0
276.860351562 798 m 0
 253.860351562 798 238.681640625 814 243.442382812 841 c 0
 247.850585938 866 268.848632812 883 291.848632812 883 c 0
 314.848632812 883 329.850585938 866 325.442382812 841 c 0
 320.681640625 814 299.860351562 798 276.860351562 798 c 0
15.1513671875 0 m 1xe8
 140.34375 710 l 1
 208.34375 710 l 1
 83.1513671875 0 l 1
 15.1513671875 0 l 1xe8
EndSplineSet
Validated: 524321
EndChar

StartChar: Idotaccent.ss08
Encoding: 65565 -1 160
Width: 255
GlyphClass: 2
Flags: HMW
HStem: 0 21G<93 93 93 161> 690 20G<93 161 161 161> 798 85<116.5 139.5>
VStem: 87 82<827.5 853.5> 93 68<0 710 0 710>
AnchorPoint: "Anchor-3" 174.344 710 basechar 0
AnchorPoint: "Anchor-2" 83.1514 0 basechar 0
AnchorPoint: "Anchor-0" 49.1514 0 basechar 0
LayerCount: 2
Fore
SplineSet
190.860351562 798 m 0xf0
 167.860351562 798 152.681640625 814 157.442382812 841 c 0
 161.850585938 866 182.848632812 883 205.848632812 883 c 0
 228.848632812 883 243.850585938 866 239.442382812 841 c 0
 234.681640625 814 213.860351562 798 190.860351562 798 c 0xf0
15.1513671875 0 m 1xe8
 140.34375 710 l 1
 208.34375 710 l 1
 83.1513671875 0 l 1
 15.1513671875 0 l 1xe8
EndSplineSet
Validated: 524321
EndChar

StartChar: Odieresis.ss08
Encoding: 65566 -1 161
Width: 731
GlyphClass: 2
Flags: HMW
HStem: -16 67<288 442 288 464.5> 659 67<288 442> 798 85<266.5 290 440 463.5>
VStem: 47 71<259.5 449 259.5 469> 238 81<827.5 853.5> 411 81<827.5 853.5> 613 71<259.5 449>
AnchorPoint: "Anchor-3" 413.755 710 basechar 0
AnchorPoint: "Anchor-1" 352.158 355 basechar 0
AnchorPoint: "Anchor-0" 288.562 0 basechar 0
LayerCount: 2
Fore
SplineSet
342.271484375 798 m 0
 319.271484375 798 305.092773438 814 309.853515625 841 c 0
 314.26171875 866 334.258789062 883 357.258789062 883 c 0
 381.258789062 883 395.26171875 866 390.853515625 841 c 0
 386.092773438 814 366.271484375 798 342.271484375 798 c 0
516.271484375 798 m 0
 492.271484375 798 478.092773438 814 482.853515625 841 c 0
 487.26171875 866 507.258789062 883 531.258789062 883 c 0
 554.258789062 883 568.26171875 866 563.853515625 841 c 0
 559.092773438 814 539.271484375 798 516.271484375 798 c 0
285.741210938 -16 m 0
 87.7412109375 -16 -7.396484375 125 32.982421875 354 c 0
 73.537109375 584 218.575195312 726 416.575195312 726 c 0
 615.575195312 726 710.537109375 584 669.982421875 354 c 0
 629.603515625 125 484.741210938 -16 285.741210938 -16 c 0
297.5546875 51 m 0
 451.5546875 51 565.65625 165 598.982421875 354 c 0
 632.484375 544 558.76171875 659 404.76171875 659 c 0
 250.76171875 659 137.484375 544 103.982421875 354 c 0
 70.65625 165 143.5546875 51 297.5546875 51 c 0
EndSplineSet
Validated: 524321
EndChar

StartChar: Udieresis.ss08
Encoding: 65567 -1 162
Width: 680
GlyphClass: 2
Flags: HMW
HStem: -16 67<278 402 278 421.5> 691 20G<78 146 146 146 534 602 602 602> 798 85<242 265.5 415.5 438.5>
VStem: 78 68<248 711> 213 81<827.5 853.5> 386 82<827.5 853.5> 534 68<248 711>
AnchorPoint: "Anchor-3" 388.755 710 basechar 0
AnchorPoint: "Anchor-2" 373.915 2 basechar 0
AnchorPoint: "Anchor-0" 263.562 0 basechar 0
LayerCount: 2
Fore
SplineSet
318.271484375 798 m 0
 294.271484375 798 280.092773438 814 284.853515625 841 c 0
 289.26171875 866 309.258789062 883 333.258789062 883 c 0
 356.258789062 883 370.26171875 866 365.853515625 841 c 0
 361.092773438 814 341.271484375 798 318.271484375 798 c 0
491.271484375 798 m 0
 468.271484375 798 453.092773438 814 457.853515625 841 c 0
 462.26171875 866 483.258789062 883 506.258789062 883 c 0
 529.258789062 883 544.26171875 866 539.853515625 841 c 0
 535.092773438 814 514.271484375 798 491.271484375 798 c 0
260.741210938 -16 m 0
 97.7412109375 -16 16.3740234375 84 45.291015625 248 c 2
 126.930664062 711 l 1
 194.930664062 711 l 1
 113.291015625 248 l 2
 91.07421875 122 148.5546875 51 272.5546875 51 c 0
 396.5546875 51 479.07421875 122 501.291015625 248 c 2
 582.930664062 711 l 1
 650.930664062 711 l 1
 569.291015625 248 l 2
 540.374023438 84 423.741210938 -16 260.741210938 -16 c 0
EndSplineSet
Validated: 524321
EndChar

StartChar: Wdieresis.ss08
Encoding: 65568 -1 163
Width: 935
GlyphClass: 2
Flags: HMW
HStem: 0 90<230 273 273 273 273 318> 592 118<467 467> 798 85<368.5 392 542 565.5>
VStem: 340 81<827.5 853.5> 513 81<827.5 853.5>
AnchorPoint: "Anchor-3" 514.344 710 basechar 0
AnchorPoint: "Anchor-0" 389.151 0 basechar 0
LayerCount: 2
Fore
SplineSet
442.860351562 798 m 0
 419.860351562 798 405.681640625 814 410.442382812 841 c 0
 414.850585938 866 434.848632812 883 457.848632812 883 c 0
 481.848632812 883 495.850585938 866 491.442382812 841 c 0
 486.681640625 814 466.860351562 798 442.860351562 798 c 0
616.860351562 798 m 0
 592.860351562 798 578.681640625 814 583.442382812 841 c 0
 587.850585938 866 607.848632812 883 631.848632812 883 c 0
 654.848632812 883 668.850585938 866 664.442382812 841 c 0
 659.681640625 814 639.860351562 798 616.860351562 798 c 0
152.151367188 0 m 1
 86.34375 710 l 1
 160.34375 710 l 1
 211.021484375 90 l 1
 474.34375 710 l 1
 554.34375 710 l 1
 599.021484375 90 l 1
 868.34375 710 l 1
 942.34375 710 l 1
 626.151367188 0 l 1
 538.151367188 0 l 1
 493.537109375 592 l 1
 240.151367188 0 l 1
 152.151367188 0 l 1
EndSplineSet
Validated: 524321
EndChar

StartChar: Ydieresis.ss08
Encoding: 65569 -1 164
Width: 564
GlyphClass: 2
Flags: HMW
HStem: 0 21G<248 248 248 316> 690 20G<-5 76 76 76 488 569 569 569> 798 85<184 207.5 357.5 380.5>
VStem: 155 81<827.5 853.5> 248 68<0 290 0 290> 328 82<827.5 853.5>
AnchorPoint: "Anchor-3" 329.344 710 basechar 0
AnchorPoint: "Anchor-0" 204.151 0 basechar 0
LayerCount: 2
Fore
SplineSet
258.860351562 798 m 0
 234.860351562 798 220.681640625 814 225.442382812 841 c 0
 229.850585938 866 249.848632812 883 273.848632812 883 c 0
 296.848632812 883 310.850585938 866 306.442382812 841 c 0
 301.681640625 814 281.860351562 798 258.860351562 798 c 0
431.860351562 798 m 0
 408.860351562 798 393.681640625 814 398.442382812 841 c 0
 402.850585938 866 423.848632812 883 446.848632812 883 c 0
 469.848632812 883 484.850585938 866 480.442382812 841 c 0
 475.681640625 814 454.860351562 798 431.860351562 798 c 0
170.151367188 0 m 1xe8
 221.286132812 290 l 1
 42.34375 710 l 1
 123.34375 710 l 1
 267.453125 359 l 1
 535.34375 710 l 1
 616.34375 710 l 1
 289.286132812 290 l 1
 238.151367188 0 l 1
 170.151367188 0 l 1xe8
EndSplineSet
Validated: 524321
EndChar

StartChar: Zdotaccent.ss08
Encoding: 65570 -1 165
Width: 537
GlyphClass: 2
Flags: HMW
HStem: 0 66<106 508 106 508> 644 66<42 421 42 498> 798 85<264.5 287.5>
VStem: 235 82<827.5 853.5>
AnchorPoint: "Anchor-3" 322.344 710 basechar 0
AnchorPoint: "Anchor-0" 197.151 0 basechar 0
LayerCount: 2
Fore
SplineSet
338.860351562 798 m 0
 315.860351562 798 300.681640625 814 305.442382812 841 c 0
 309.850585938 866 330.848632812 883 353.848632812 883 c 0
 376.848632812 883 391.850585938 866 387.442382812 841 c 0
 382.681640625 814 361.860351562 798 338.860351562 798 c 0
-48.8486328125 0 m 1
 -36.681640625 69 l 1
 456.706054688 644 l 1
 77.7060546875 644 l 1
 89.34375 710 l 1
 545.34375 710 l 1
 533.176757812 641 l 1
 39.7890625 66 l 1
 441.7890625 66 l 1
 430.151367188 0 l 1
 -48.8486328125 0 l 1
EndSplineSet
Validated: 524321
EndChar

StartChar: Idieresis.ss05.ss08
Encoding: 65571 -1 166
Width: 391
GlyphClass: 2
Flags: HMW
HStem: 0 66<47 161 47 161 229 344> 644 66<53 161 53 338 229 229 229 338> 798 85<97 120.5 270.5 293.5>
VStem: 47 182<0 644 66 644> 53 176<66 710 66 710> 68 81<827.5 853.5> 161 68<66 644 66 644> 161 177<66 710 644 710> 161 183<0 644> 241 82<827.5 853.5>
AnchorPoint: "Anchor-3" 242.344 710 basechar 0
AnchorPoint: "Anchor-2" 266.151 0 basechar 0
AnchorPoint: "Anchor-0" 117.151 0 basechar 0
LayerCount: 2
Fore
SplineSet
171.860351562 798 m 0xe440
 147.860351562 798 133.681640625 814 138.442382812 841 c 0
 142.850585938 866 162.848632812 883 186.848632812 883 c 0
 209.848632812 883 223.850585938 866 219.442382812 841 c 0
 214.681640625 814 194.860351562 798 171.860351562 798 c 0xe440
344.860351562 798 m 0
 321.860351562 798 306.681640625 814 311.442382812 841 c 0
 315.850585938 866 336.848632812 883 359.848632812 883 c 0
 382.848632812 883 397.850585938 866 393.442382812 841 c 0
 388.681640625 814 367.860351562 798 344.860351562 798 c 0
-30.8486328125 0 m 1xd0
 -19.2109375 66 l 1xd0
 94.7890625 66 l 1
 196.706054688 644 l 1xc2
 88.7060546875 644 l 1
 100.34375 710 l 1xc8
 385.34375 710 l 1
 373.706054688 644 l 1xc1
 264.706054688 644 l 1
 162.7890625 66 l 1xc2
 277.7890625 66 l 1
 266.151367188 0 l 1xc080
 -30.8486328125 0 l 1xd0
EndSplineSet
Validated: 524321
EndChar

StartChar: Idotaccent.ss05.ss08
Encoding: 65572 -1 167
Width: 391
GlyphClass: 2
Flags: HMW
HStem: 0 66<47 161 47 161 229 344> 644 66<53 161 53 338 229 229 229 338> 798 85<184.5 207.5>
VStem: 47 182<0 644 66 644> 53 176<66 710 66 710> 155 82<827.5 853.5> 161 68<66 644 66 644> 161 177<66 710 644 710> 161 183<0 644>
AnchorPoint: "Anchor-3" 242.344 710 basechar 0
AnchorPoint: "Anchor-2" 266.151 0 basechar 0
AnchorPoint: "Anchor-0" 117.151 0 basechar 0
LayerCount: 2
Fore
SplineSet
258.860351562 798 m 0xe4
 235.860351562 798 220.681640625 814 225.442382812 841 c 0
 229.850585938 866 250.848632812 883 273.848632812 883 c 0
 296.848632812 883 311.850585938 866 307.442382812 841 c 0
 302.681640625 814 281.860351562 798 258.860351562 798 c 0xe4
-30.8486328125 0 m 1xd0
 -19.2109375 66 l 1xd0
 94.7890625 66 l 1
 196.706054688 644 l 1xc2
 88.7060546875 644 l 1
 100.34375 710 l 1xc8
 385.34375 710 l 1
 373.706054688 644 l 1xc1
 264.706054688 644 l 1
 162.7890625 66 l 1xc2
 277.7890625 66 l 1
 266.151367188 0 l 1xc080
 -30.8486328125 0 l 1xd0
EndSplineSet
Validated: 524321
EndChar

StartChar: Gdotaccent.ss06.ss08
Encoding: 65573 -1 168
Width: 682
GlyphClass: 2
Flags: HMW
HStem: -16 67<276.5 426.5 276.5 447> 285 64<362 576 362 640> 659 67<279.5 422.5> 798 85<350 373.5>
VStem: 47 71<265 442 265 462.5> 321 81<827.5 853.5> 576 64<285 285>
AnchorPoint: "Anchor-3" 409.755 710 basechar 0
AnchorPoint: "Anchor-0" 284.562 0 basechar 0
LayerCount: 2
Fore
SplineSet
426.271484375 798 m 0
 402.271484375 798 388.092773438 814 392.853515625 841 c 0
 397.26171875 866 417.258789062 883 441.258789062 883 c 0
 464.258789062 883 478.26171875 866 473.853515625 841 c 0
 469.092773438 814 449.271484375 798 426.271484375 798 c 0
276.741210938 -16 m 0
 78.7412109375 -16 -4.751953125 140 32.982421875 354 c 0
 71.2451171875 571 214.575195312 726 413.575195312 726 c 0
 566.575195312 726 644.353515625 634 647.609375 488 c 1
 575.728515625 483 l 1
 574.418945312 589 522.76171875 659 401.76171875 659 c 0
 236.76171875 659 135.015625 530 103.982421875 354 c 0
 72.595703125 176 129.5546875 51 288.5546875 51 c 0
 429.5546875 51 523.1875 151 549.815429688 285 c 1
 335.815429688 285 l 1
 347.100585938 349 l 1
 625.100585938 349 l 1
 618.576171875 312 l 2
 582.782226562 109 458.741210938 -16 276.741210938 -16 c 0
EndSplineSet
Validated: 524321
EndChar

StartChar: A_I.dlig
Encoding: 65574 -1 169
Width: 1040
GlyphClass: 3
Flags: HMW
HStem: 0 66<696 811 879 993 696 811> 213 66<194 455 194 478 171 455> 644 66<702 811 879 879 879 987>
VStem: 696 183<0 644 66 644> 702 177<66 710 66 710> 811 68<66 644 66 644> 811 176<66 710 644 710> 811 182<0 644>
AnchorPoint: "Anchor-8" 387.596 710 baselig 0
AnchorPoint: "Anchor-7" 565.404 0 baselig 0
AnchorPoint: "Anchor-5" 262.404 0 baselig 0
AnchorPoint: "Anchor-8" 907.596 710 baselig 1
AnchorPoint: "Anchor-5" 782.404 0 baselig 1
AnchorPoint: "Anchor-7" 930.404 0 baselig 1
LayerCount: 2
Fore
SplineSet
-41.595703125 0 m 1xf0
 342.595703125 710 l 1
 432.595703125 710 l 1
 565.404296875 0 l 1
 491.404296875 0 l 1
 452.961914062 213 l 1
 145.961914062 213 l 1
 32.404296875 0 l 1
 -41.595703125 0 l 1xf0
633.404296875 0 m 1
 645.041015625 66 l 1xf0
 760.041015625 66 l 1
 861.958984375 644 l 1xe4
 752.958984375 644 l 1
 764.595703125 710 l 1xe8
 1049.59570312 710 l 1
 1037.95898438 644 l 1xe2
 929.958984375 644 l 1
 828.041015625 66 l 1xe4
 942.041015625 66 l 1
 930.404296875 0 l 1xe1
 633.404296875 0 l 1
180.599609375 279 m 1
 441.599609375 279 l 1
 376.83984375 649 l 1
 180.599609375 279 l 1
EndSplineSet
Validated: 524289
Ligature2: "'dlig' Discretionary Ligatures in Latin lookup 32 subtable" A I
EndChar

StartChar: U_I.dlig
Encoding: 65575 -1 170
Width: 1071
GlyphClass: 3
Flags: HMW
HStem: -16 67<278 402 278 421.5> 0 66<727 841 727 841 909 1024> 644 66<733 841 733 1018 909 909 909 1018>
VStem: 78 68<248 711> 534 68<248 711> 727 182<0 644 66 644> 733 176<66 710 66 710> 841 68<66 644 66 644> 841 177<66 710 644 710> 841 183<0 644>
AnchorPoint: "Anchor-8" 403.919 710 baselig 0
AnchorPoint: "Anchor-7" 389.079 2 baselig 0
AnchorPoint: "Anchor-5" 278.727 0 baselig 0
AnchorPoint: "Anchor-8" 938.919 710 baselig 1
AnchorPoint: "Anchor-5" 813.727 0 baselig 1
AnchorPoint: "Anchor-7" 962.727 0 baselig 1
LayerCount: 2
Fore
SplineSet
275.905273438 -16 m 0xb9
 112.905273438 -16 31.5380859375 84 60.455078125 248 c 2
 142.094726562 711 l 1
 210.094726562 711 l 1
 128.455078125 248 l 2
 106.23828125 122 163.71875 51 287.71875 51 c 0
 411.71875 51 494.23828125 122 516.455078125 248 c 2
 598.094726562 711 l 1
 666.094726562 711 l 1
 584.455078125 248 l 2
 555.538085938 84 438.905273438 -16 275.905273438 -16 c 0xb9
665.7265625 0 m 1x7c
 677.364257812 66 l 1x7c
 791.364257812 66 l 1
 893.28125 644 l 1x79
 785.28125 644 l 1
 796.918945312 710 l 1x7a
 1081.91894531 710 l 1
 1070.28125 644 l 1x7880
 961.28125 644 l 1
 859.364257812 66 l 1x79
 974.364257812 66 l 1
 962.7265625 0 l 1x7840
 665.7265625 0 l 1x7c
EndSplineSet
Validated: 524321
Ligature2: "'dlig' Discretionary Ligatures in Latin lookup 32 subtable" U I
EndChar

StartChar: a
Encoding: 97 97 171
Width: 547
GlyphClass: 2
Flags: HMW
HStem: -12 59<192.5 264> -2 61<469.5 525> 479 63<229 316>
VStem: 46 69<108 162.5 108 174.5> 407 66<213 266 266 266 325 326>
AnchorPoint: "Anchor-3" 319.727 530 basechar 0
AnchorPoint: "Anchor-2" 478.273 0 basechar 0
AnchorPoint: "Anchor-0" 219.273 0 basechar 0
LayerCount: 2
Fore
SplineSet
173.157226562 -12 m 0xb8
 66.1572265625 -12 6.6787109375 42 22.3720703125 131 c 0
 37.712890625 218 102.352539062 267 215.055664062 288 c 2
 417.580078125 325 l 1
 436.09375 430 399.734375 479 307.734375 479 c 0
 225.734375 479 171.680664062 439 143.162109375 368 c 1
 74.2197265625 374 l 1
 111.205078125 476 200.842773438 542 318.842773438 542 c 0
 449.842773438 542 508.088867188 464 483.755859375 326 c 2
 444.788085938 105 l 2
 438.616210938 70 447.676757812 59 472.676757812 59 c 2
 488.676757812 59 l 1
 478.2734375 0 l 1
 472.096679688 -1 461.920898438 -2 450.920898438 -2 c 0x78
 393.920898438 -2 369.15234375 22 376.319335938 91 c 1
 338.916015625 32 257.157226562 -12 173.157226562 -12 c 0xb8
189.560546875 47 m 0
 298.560546875 47 381.255859375 119 397.831054688 213 c 2
 407.176757812 266 l 1
 219.181640625 232 l 2
 140.712890625 218 101.422851562 188 92.4296875 137 c 0xb8
 82.203125 79 118.560546875 47 189.560546875 47 c 0
EndSplineSet
Validated: 524321
Substitution2: "'ss02' Style Set 2 in Latin lookup 35 subtable" a.ss02
Substitution2: "'ss01' Style Set 1 in Latin lookup 34 subtable" a.ss01
Substitution2: "Single Substitution lookup 27 subtable" ordfeminine
AlternateSubs2: "'aalt' Access All Alternates in Latin lookup 1 subtable" ordfeminine a.ss01 a.ss02
EndChar

StartChar: aacute
Encoding: 225 225 172
Width: 547
GlyphClass: 2
Flags: HMW
HStem: -12 59<192.5 264> -2 61<469.5 525> 479 63<229 316> 602 124<244 386 244 386>
VStem: 46 69<108 162.5 108 174.5> 407 66<213 266 266 266 325 326>
AnchorPoint: "Anchor-3" 303.505 530 basechar 0
AnchorPoint: "Anchor-2" 462.051 0 basechar 0
AnchorPoint: "Anchor-0" 203.051 0 basechar 0
LayerCount: 2
Fore
SplineSet
287.200195312 602 m 1xbc
 377.064453125 726 l 1
 451.064453125 726 l 1
 342.200195312 602 l 1
 287.200195312 602 l 1xbc
156.935546875 -12 m 0
 49.935546875 -12 -9.54296875 42 6.150390625 131 c 0
 21.490234375 218 86.130859375 267 198.833007812 288 c 2
 401.357421875 325 l 1
 419.872070312 430 383.51171875 479 291.51171875 479 c 0
 209.51171875 479 155.458984375 439 126.939453125 368 c 1
 57.998046875 374 l 1
 94.9833984375 476 184.620117188 542 302.620117188 542 c 0
 433.620117188 542 491.8671875 464 467.534179688 326 c 2
 428.565429688 105 l 2
 422.39453125 70 431.454101562 59 456.454101562 59 c 2
 472.454101562 59 l 1
 462.05078125 0 l 1
 455.875 -1 445.698242188 -2 434.698242188 -2 c 0x7c
 377.698242188 -2 352.930664062 22 360.096679688 91 c 1
 322.693359375 32 240.935546875 -12 156.935546875 -12 c 0
173.338867188 47 m 0
 282.338867188 47 365.034179688 119 381.609375 213 c 2
 390.954101562 266 l 1
 202.958984375 232 l 2
 124.490234375 218 85.201171875 188 76.2080078125 137 c 0xbc
 65.9814453125 79 102.338867188 47 173.338867188 47 c 0
EndSplineSet
Validated: 524321
Substitution2: "'ss02' Style Set 2 in Latin lookup 35 subtable" aacute.ss02
Substitution2: "'ss01' Style Set 1 in Latin lookup 34 subtable" aacute.ss01
AlternateSubs2: "'aalt' Access All Alternates in Latin lookup 1 subtable" aacute.ss01 aacute.ss02
EndChar

StartChar: abreve
Encoding: 259 259 173
Width: 547
GlyphClass: 2
Flags: HMW
HStem: -12 59<192.5 264> -2 61<469.5 525> 479 63<229 316> 608 51<249 297 249 312>
VStem: 46 69<108 162.5 108 174.5> 407 66<213 266 266 266 325 326>
AnchorPoint: "Anchor-3" 302.976 530 basechar 0
AnchorPoint: "Anchor-2" 461.522 0 basechar 0
AnchorPoint: "Anchor-0" 202.522 0 basechar 0
LayerCount: 2
Fore
SplineSet
316.729492188 608 m 0xbc
 238.729492188 608 197.369140625 657 204.59375 732 c 1
 251.59375 732 l 1
 249.77734375 682 277.721679688 659 325.721679688 659 c 0
 373.721679688 659 409.77734375 682 425.59375 732 c 1
 472.59375 732 l 1
 453.369140625 657 394.729492188 608 316.729492188 608 c 0xbc
156.40625 -12 m 0
 49.40625 -12 -10.072265625 42 5.62109375 131 c 0
 20.9619140625 218 85.6015625 267 198.3046875 288 c 2
 400.828125 325 l 1
 419.342773438 430 382.983398438 479 290.983398438 479 c 0
 208.983398438 479 154.9296875 439 126.41015625 368 c 1
 57.46875 374 l 1
 94.4541015625 476 184.091796875 542 302.091796875 542 c 0
 433.091796875 542 491.337890625 464 467.004882812 326 c 2
 428.036132812 105 l 2
 421.865234375 70 430.92578125 59 455.92578125 59 c 2
 471.92578125 59 l 1
 461.522460938 0 l 1
 455.345703125 -1 445.169921875 -2 434.169921875 -2 c 0x7c
 377.169921875 -2 352.401367188 22 359.568359375 91 c 1
 322.165039062 32 240.40625 -12 156.40625 -12 c 0
172.809570312 47 m 0
 281.809570312 47 364.504882812 119 381.080078125 213 c 2
 390.424804688 266 l 1
 202.4296875 232 l 2
 123.961914062 218 84.671875 188 75.6787109375 137 c 0xbc
 65.4521484375 79 101.809570312 47 172.809570312 47 c 0
EndSplineSet
Validated: 524321
Substitution2: "'ss02' Style Set 2 in Latin lookup 35 subtable" abreve.ss02
Substitution2: "'ss01' Style Set 1 in Latin lookup 34 subtable" abreve.ss01
AlternateSubs2: "'aalt' Access All Alternates in Latin lookup 1 subtable" abreve.ss01 abreve.ss02
EndChar

StartChar: uni01CE
Encoding: 462 462 174
Width: 547
GlyphClass: 2
Flags: HMW
HStem: -12 59<192.5 264> -2 61<469.5 525> 479 63<229 316> 602 130<149 308 149 238>
VStem: 46 69<108 162.5 108 174.5> 407 66<213 266 266 266 325 326>
AnchorPoint: "Anchor-3" 302.976 530 basechar 0
AnchorPoint: "Anchor-2" 461.522 0 basechar 0
AnchorPoint: "Anchor-0" 202.522 0 basechar 0
LayerCount: 2
Fore
SplineSet
214.59375 732 m 1xbc
 270.59375 732 l 1
 322.1953125 639 l 1
 407.59375 732 l 1
 463.59375 732 l 1
 350.670898438 602 l 1
 280.670898438 602 l 1
 214.59375 732 l 1xbc
156.40625 -12 m 0
 49.40625 -12 -10.072265625 42 5.62109375 131 c 0
 20.9619140625 218 85.6015625 267 198.3046875 288 c 2
 400.828125 325 l 1
 419.342773438 430 382.983398438 479 290.983398438 479 c 0
 208.983398438 479 154.9296875 439 126.41015625 368 c 1
 57.46875 374 l 1
 94.4541015625 476 184.091796875 542 302.091796875 542 c 0
 433.091796875 542 491.337890625 464 467.004882812 326 c 2
 428.036132812 105 l 2
 421.865234375 70 430.92578125 59 455.92578125 59 c 2
 471.92578125 59 l 1
 461.522460938 0 l 1
 455.345703125 -1 445.169921875 -2 434.169921875 -2 c 0x7c
 377.169921875 -2 352.401367188 22 359.568359375 91 c 1
 322.165039062 32 240.40625 -12 156.40625 -12 c 0
172.809570312 47 m 0
 281.809570312 47 364.504882812 119 381.080078125 213 c 2
 390.424804688 266 l 1
 202.4296875 232 l 2
 123.961914062 218 84.671875 188 75.6787109375 137 c 0xbc
 65.4521484375 79 101.809570312 47 172.809570312 47 c 0
EndSplineSet
Validated: 524321
Substitution2: "'ss02' Style Set 2 in Latin lookup 35 subtable" uni01CE.ss02
Substitution2: "'ss01' Style Set 1 in Latin lookup 34 subtable" uni01CE.ss01
AlternateSubs2: "'aalt' Access All Alternates in Latin lookup 1 subtable" uni01CE.ss01 uni01CE.ss02
EndChar

StartChar: acircumflex
Encoding: 226 226 175
Width: 547
GlyphClass: 2
Flags: HMW
HStem: -12 59<192.5 264> -2 61<469.5 525> 479 63<229 316> 602 130<149 309 149 309 239 342 239 398>
VStem: 46 69<108 162.5 108 174.5> 407 66<213 266 266 266 325 326>
AnchorPoint: "Anchor-3" 302.976 530 basechar 0
AnchorPoint: "Anchor-2" 461.522 0 basechar 0
AnchorPoint: "Anchor-0" 202.522 0 basechar 0
LayerCount: 2
Fore
SplineSet
191.670898438 602 m 1xbc
 304.59375 732 l 1
 374.59375 732 l 1
 440.670898438 602 l 1
 384.670898438 602 l 1
 333.069335938 695 l 1
 247.670898438 602 l 1
 191.670898438 602 l 1xbc
156.40625 -12 m 0
 49.40625 -12 -10.072265625 42 5.62109375 131 c 0
 20.9619140625 218 85.6015625 267 198.3046875 288 c 2
 400.828125 325 l 1
 419.342773438 430 382.983398438 479 290.983398438 479 c 0
 208.983398438 479 154.9296875 439 126.41015625 368 c 1
 57.46875 374 l 1
 94.4541015625 476 184.091796875 542 302.091796875 542 c 0
 433.091796875 542 491.337890625 464 467.004882812 326 c 2
 428.036132812 105 l 2
 421.865234375 70 430.92578125 59 455.92578125 59 c 2
 471.92578125 59 l 1
 461.522460938 0 l 1
 455.345703125 -1 445.169921875 -2 434.169921875 -2 c 0x7c
 377.169921875 -2 352.401367188 22 359.568359375 91 c 1
 322.165039062 32 240.40625 -12 156.40625 -12 c 0
172.809570312 47 m 0
 281.809570312 47 364.504882812 119 381.080078125 213 c 2
 390.424804688 266 l 1
 202.4296875 232 l 2
 123.961914062 218 84.671875 188 75.6787109375 137 c 0xbc
 65.4521484375 79 101.809570312 47 172.809570312 47 c 0
EndSplineSet
Validated: 524321
Substitution2: "'ss02' Style Set 2 in Latin lookup 35 subtable" acircumflex.ss02
Substitution2: "'ss01' Style Set 1 in Latin lookup 34 subtable" acircumflex.ss01
AlternateSubs2: "'aalt' Access All Alternates in Latin lookup 1 subtable" acircumflex.ss01 acircumflex.ss02
EndChar

StartChar: adieresis
Encoding: 228 228 176
Width: 547
GlyphClass: 2
Flags: HMW
HStem: -12 59<192.5 264> -2 61<469.5 525> 479 63<229 316> 618 89<159 229 159 229 318 388>
VStem: 46 69<108 162.5 108 174.5> 159 70<618 707 618 707> 318 70<618 707 618 707> 407 66<213 266 266 266 325 326>
AnchorPoint: "Anchor-3" 305.18 530 basechar 0
AnchorPoint: "Anchor-2" 463.727 0 basechar 0
AnchorPoint: "Anchor-0" 204.727 0 basechar 0
LayerCount: 2
Fore
SplineSet
206.696289062 618 m 1xbe
 222.389648438 707 l 1
 292.389648438 707 l 1
 276.696289062 618 l 1
 206.696289062 618 l 1xbe
365.696289062 618 m 1
 381.389648438 707 l 1
 451.389648438 707 l 1
 435.696289062 618 l 1
 365.696289062 618 l 1
158.610351562 -12 m 0
 51.6103515625 -12 -7.8681640625 42 7.8251953125 131 c 0
 23.166015625 218 87.8056640625 267 200.508789062 288 c 2
 403.032226562 325 l 1
 421.546875 430 385.186523438 479 293.186523438 479 c 0
 211.186523438 479 157.133789062 439 128.614257812 368 c 1
 59.6728515625 374 l 1
 96.658203125 476 186.295898438 542 304.295898438 542 c 0
 435.295898438 542 493.541992188 464 469.208984375 326 c 2
 430.240234375 105 l 2
 424.069335938 70 433.129882812 59 458.129882812 59 c 2
 474.129882812 59 l 1
 463.7265625 0 l 1
 457.549804688 -1 447.374023438 -2 436.374023438 -2 c 0x7d
 379.374023438 -2 354.60546875 22 361.772460938 91 c 1xbd
 324.369140625 32 242.610351562 -12 158.610351562 -12 c 0
175.013671875 47 m 0
 284.013671875 47 366.708984375 119 383.284179688 213 c 2
 392.62890625 266 l 1
 204.633789062 232 l 2
 126.166015625 218 86.8759765625 188 77.8828125 137 c 0xbd
 67.65625 79 104.013671875 47 175.013671875 47 c 0
EndSplineSet
Validated: 524321
Substitution2: "'ss08' Style Set 8 in Latin lookup 41 subtable" adieresis.ss08
Substitution2: "'ss02' Style Set 2 in Latin lookup 35 subtable" adieresis.ss02
Substitution2: "'ss01' Style Set 1 in Latin lookup 34 subtable" adieresis.ss01
AlternateSubs2: "'aalt' Access All Alternates in Latin lookup 1 subtable" adieresis.ss01 adieresis.ss02 adieresis.ss08
EndChar

StartChar: agrave
Encoding: 224 224 177
Width: 547
GlyphClass: 2
Flags: HMW
HStem: -12 59<192.5 264> -2 61<469.5 525> 479 63<229 316> 608 124<162 248 162 304>
VStem: 46 69<108 162.5 108 174.5> 407 66<213 266 266 266 325 326>
AnchorPoint: "Anchor-3" 302.976 530 basechar 0
AnchorPoint: "Anchor-2" 461.522 0 basechar 0
AnchorPoint: "Anchor-0" 202.522 0 basechar 0
LayerCount: 2
Fore
SplineSet
291.729492188 608 m 1xbc
 227.59375 732 l 1
 301.59375 732 l 1
 347.729492188 608 l 1
 291.729492188 608 l 1xbc
156.40625 -12 m 0
 49.40625 -12 -10.072265625 42 5.62109375 131 c 0
 20.9619140625 218 85.6015625 267 198.3046875 288 c 2
 400.828125 325 l 1
 419.342773438 430 382.983398438 479 290.983398438 479 c 0
 208.983398438 479 154.9296875 439 126.41015625 368 c 1
 57.46875 374 l 1
 94.4541015625 476 184.091796875 542 302.091796875 542 c 0
 433.091796875 542 491.337890625 464 467.004882812 326 c 2
 428.036132812 105 l 2
 421.865234375 70 430.92578125 59 455.92578125 59 c 2
 471.92578125 59 l 1
 461.522460938 0 l 1
 455.345703125 -1 445.169921875 -2 434.169921875 -2 c 0x7c
 377.169921875 -2 352.401367188 22 359.568359375 91 c 1
 322.165039062 32 240.40625 -12 156.40625 -12 c 0
172.809570312 47 m 0
 281.809570312 47 364.504882812 119 381.080078125 213 c 2
 390.424804688 266 l 1
 202.4296875 232 l 2
 123.961914062 218 84.671875 188 75.6787109375 137 c 0xbc
 65.4521484375 79 101.809570312 47 172.809570312 47 c 0
EndSplineSet
Validated: 524321
Substitution2: "'ss02' Style Set 2 in Latin lookup 35 subtable" agrave.ss02
Substitution2: "'ss01' Style Set 1 in Latin lookup 34 subtable" agrave.ss01
AlternateSubs2: "'aalt' Access All Alternates in Latin lookup 1 subtable" agrave.ss01 agrave.ss02
EndChar

StartChar: amacron
Encoding: 257 257 178
Width: 547
GlyphClass: 2
Flags: HMW
HStem: -12 59<192.5 264> -2 61<469.5 525> 479 63<229 316> 631 58<143 404 143 404>
VStem: 46 69<108 162.5 108 174.5> 143 261<631 689 631 689> 407 66<213 266 266 266 325 326>
AnchorPoint: "Anchor-3" 306.767 530 basechar 0
AnchorPoint: "Anchor-2" 465.313 0 basechar 0
AnchorPoint: "Anchor-0" 206.313 0 basechar 0
LayerCount: 2
Fore
SplineSet
194.575195312 631 m 1xb4
 204.802734375 689 l 1
 465.802734375 689 l 1
 455.575195312 631 l 1
 194.575195312 631 l 1xb4
160.197265625 -12 m 0
 53.197265625 -12 -6.28125 42 9.412109375 131 c 0
 24.7529296875 218 89.392578125 267 202.095703125 288 c 2
 404.619140625 325 l 1
 423.133789062 430 386.774414062 479 294.774414062 479 c 0
 212.774414062 479 158.720703125 439 130.201171875 368 c 1
 61.259765625 374 l 1
 98.2451171875 476 187.8828125 542 305.8828125 542 c 0
 436.8828125 542 495.12890625 464 470.795898438 326 c 2
 431.828125 105 l 2
 425.65625 70 434.716796875 59 459.716796875 59 c 2
 475.716796875 59 l 1
 465.313476562 0 l 1
 459.13671875 -1 448.9609375 -2 437.9609375 -2 c 0x7a
 380.9609375 -2 356.192382812 22 363.359375 91 c 1xba
 325.956054688 32 244.197265625 -12 160.197265625 -12 c 0
176.600585938 47 m 0
 285.600585938 47 368.295898438 119 384.87109375 213 c 2
 394.215820312 266 l 1
 206.220703125 232 l 2
 127.752929688 218 88.462890625 188 79.4697265625 137 c 0xba
 69.2431640625 79 105.600585938 47 176.600585938 47 c 0
EndSplineSet
Validated: 524321
Substitution2: "'ss02' Style Set 2 in Latin lookup 35 subtable" amacron.ss02
Substitution2: "'ss01' Style Set 1 in Latin lookup 34 subtable" amacron.ss01
AlternateSubs2: "'aalt' Access All Alternates in Latin lookup 1 subtable" amacron.ss01 amacron.ss02
EndChar

StartChar: aogonek
Encoding: 261 261 179
Width: 547
GlyphClass: 2
Flags: HMW
HStem: -204 54<484 500> -12 59<192.5 264> 479 63<229 316>
VStem: 46 69<108 162.5 108 174.5> 399 62<-131 -119> 407 66<213 266 266 266 325 326> 470 55<1 1>
AnchorPoint: "Anchor-3" 336.654 530 basechar 0
AnchorPoint: "Anchor-2" 495.201 0 basechar 0
AnchorPoint: "Anchor-0" 236.201 0 basechar 0
LayerCount: 2
Fore
SplineSet
190.084960938 -12 m 0xf4
 83.0849609375 -12 23.6064453125 42 39.2998046875 131 c 0
 54.6396484375 218 119.280273438 267 231.983398438 288 c 2
 434.506835938 325 l 1
 453.021484375 430 416.661132812 479 324.661132812 479 c 0
 242.661132812 479 188.608398438 439 160.088867188 368 c 1
 91.1474609375 374 l 1
 128.1328125 476 217.76953125 542 335.76953125 542 c 0
 466.76953125 542 525.016601562 464 500.68359375 326 c 2
 461.71484375 105 l 2xf4
 455.543945312 70 464.604492188 59 489.604492188 59 c 2
 505.604492188 59 l 1
 495.201171875 0 l 1xf2
 455.265625 -45 l 2
 425.270507812 -79 413.744140625 -99 409.865234375 -121 c 0
 406.338867188 -141 418.751953125 -150 436.751953125 -150 c 0
 456.751953125 -150 473.633789062 -145 488.220703125 -136 c 1
 500.461914062 -180 l 1
 481.993164062 -194 450.23046875 -204 418.23046875 -204 c 0
 367.23046875 -204 336.932617188 -183 345.043945312 -137 c 0xf8
 351.391601562 -101 385.444335938 -61 419.145507812 -23 c 2
 440.376953125 1 l 1
 402.611328125 8 387.196289062 34 393.24609375 91 c 1
 355.842773438 32 274.084960938 -12 190.084960938 -12 c 0xf4
206.48828125 47 m 0
 315.48828125 47 398.18359375 119 414.758789062 213 c 2
 424.103515625 266 l 1
 236.108398438 232 l 2
 157.639648438 218 118.350585938 188 109.357421875 137 c 0
 99.130859375 79 135.48828125 47 206.48828125 47 c 0
EndSplineSet
Validated: 524321
Substitution2: "'ss02' Style Set 2 in Latin lookup 35 subtable" aogonek.ss02
Substitution2: "'ss01' Style Set 1 in Latin lookup 34 subtable" aogonek.ss01
AlternateSubs2: "'aalt' Access All Alternates in Latin lookup 1 subtable" aogonek.ss01 aogonek.ss02
EndChar

StartChar: aring
Encoding: 229 229 180
Width: 547
GlyphClass: 2
Flags: HMW
HStem: -12 59<192.5 264> -2 61<469.5 525> 479 63<229 316> 581 42<260.5 286 260.5 297.5> 709 42<260.5 286>
VStem: 46 69<108 162.5 108 174.5> 188 42<653.5 679 653.5 690.5> 316 42<653.5 679> 407 66<213 266 266 266 325 326>
AnchorPoint: "Anchor-3" 301.301 530 basechar 0
AnchorPoint: "Anchor-2" 459.848 0 basechar 0
AnchorPoint: "Anchor-0" 200.848 0 basechar 0
LayerCount: 2
Fore
SplineSet
310.29296875 581 m 0xbf80
 262.29296875 581 231.817382812 618 240.28125 666 c 0
 248.920898438 715 292.268554688 751 340.268554688 751 c 0
 389.268554688 751 418.920898438 715 410.28125 666 c 0
 401.817382812 618 359.29296875 581 310.29296875 581 c 0xbf80
317.69921875 623 m 0
 343.69921875 623 363.873046875 641 368.28125 666 c 0
 372.865234375 692 358.86328125 709 332.86328125 709 c 0
 307.86328125 709 286.865234375 692 282.28125 666 c 0
 277.873046875 641 292.69921875 623 317.69921875 623 c 0
154.731445312 -12 m 0
 47.7314453125 -12 -11.7470703125 42 3.9462890625 131 c 0
 19.2861328125 218 83.9267578125 267 196.62890625 288 c 2
 399.153320312 325 l 1
 417.66796875 430 381.307617188 479 289.307617188 479 c 0
 207.307617188 479 153.254882812 439 124.735351562 368 c 1
 55.7939453125 374 l 1
 92.779296875 476 182.416015625 542 300.416015625 542 c 0
 431.416015625 542 489.663085938 464 465.330078125 326 c 2
 426.361328125 105 l 2
 420.190429688 70 429.25 59 454.25 59 c 2
 470.25 59 l 1
 459.84765625 0 l 1
 453.670898438 -1 443.494140625 -2 432.494140625 -2 c 0x7f80
 375.494140625 -2 350.7265625 22 357.892578125 91 c 1
 320.489257812 32 238.731445312 -12 154.731445312 -12 c 0
171.134765625 47 m 0
 280.134765625 47 362.830078125 119 379.405273438 213 c 2
 388.75 266 l 1
 200.754882812 232 l 2
 122.286132812 218 82.9970703125 188 74.00390625 137 c 0xbf80
 63.77734375 79 100.134765625 47 171.134765625 47 c 0
EndSplineSet
Validated: 524321
Substitution2: "'ss02' Style Set 2 in Latin lookup 35 subtable" aring.ss02
Substitution2: "'ss01' Style Set 1 in Latin lookup 34 subtable" aring.ss01
AlternateSubs2: "'aalt' Access All Alternates in Latin lookup 1 subtable" aring.ss01 aring.ss02
EndChar

StartChar: atilde
Encoding: 227 227 181
Width: 547
GlyphClass: 2
Flags: HMW
HStem: -12 59<192.5 264> -2 61<469.5 525> 479 63<229 316> 617 45<326 346.5 326 357> 673 45<197 221>
VStem: 46 69<108 162.5 108 174.5> 122 43<610 610> 376 44<728 728> 407 66<213 266 266 266 325 326>
AnchorPoint: "Anchor-3" 303.328 530 basechar 0
AnchorPoint: "Anchor-2" 461.875 0 basechar 0
AnchorPoint: "Anchor-0" 202.875 0 basechar 0
LayerCount: 2
Fore
SplineSet
376.668945312 617 m 0xb5
 349.668945312 617 331.431640625 627 313.782226562 646 c 0
 296.1328125 665 287.54296875 673 265.54296875 673 c 0
 239.54296875 673 219.721679688 657 209.434570312 610 c 1
 166.434570312 610 l 1
 180.77734375 680 223.477539062 718 273.477539062 718 c 0xaa80
 305.477539062 718 324.361328125 706 342.834960938 686 c 0
 359.837890625 669 371.603515625 662 387.603515625 662 c 0
 412.603515625 662 428.424804688 678 441.241210938 728 c 1
 485.241210938 728 l 1
 468.8984375 658 428.668945312 617 376.668945312 617 c 0xb5
156.758789062 -12 m 0
 49.7587890625 -12 -9.7197265625 42 5.9736328125 131 c 0
 21.314453125 218 85.9541015625 267 198.657226562 288 c 2
 401.181640625 325 l 1
 419.6953125 430 383.3359375 479 291.3359375 479 c 0
 209.3359375 479 155.282226562 439 126.763671875 368 c 1
 57.8212890625 374 l 1
 94.806640625 476 184.444335938 542 302.444335938 542 c 0
 433.444335938 542 491.690429688 464 467.357421875 326 c 2
 428.389648438 105 l 2
 422.217773438 70 431.278320312 59 456.278320312 59 c 2
 472.278320312 59 l 1
 461.875 0 l 1
 455.698242188 -1 445.522460938 -2 434.522460938 -2 c 0x6c80
 377.522460938 -2 352.75390625 22 359.920898438 91 c 1
 322.517578125 32 240.758789062 -12 156.758789062 -12 c 0
173.162109375 47 m 0
 282.162109375 47 364.857421875 119 381.432617188 213 c 2
 390.778320312 266 l 1
 202.783203125 232 l 2
 124.314453125 218 85.0244140625 188 76.03125 137 c 0xac80
 65.8046875 79 102.162109375 47 173.162109375 47 c 0
EndSplineSet
Validated: 524321
Substitution2: "'ss02' Style Set 2 in Latin lookup 35 subtable" atilde.ss02
Substitution2: "'ss01' Style Set 1 in Latin lookup 34 subtable" atilde.ss01
AlternateSubs2: "'aalt' Access All Alternates in Latin lookup 1 subtable" atilde.ss01 atilde.ss02
EndChar

StartChar: ae
Encoding: 230 230 182
Width: 921
GlyphClass: 2
Flags: HMW
HStem: -12 59 -12 63<599 687.5 598.5 704> 246 59<479 803 479 875 479 803> 479 63<228 312.5 210 315.5 601.5 691>
VStem: 46 69<107.5 161.5 107.5 181.5> 407 72<246 246 246 253 246 253 246 370.5> 803 72<246 305>
AnchorPoint: "Anchor-3" 508.727 530 basechar 0
AnchorPoint: "Anchor-2" 741.387 29 basechar 0
AnchorPoint: "Anchor-0" 415.273 0 basechar 0
LayerCount: 2
Fore
SplineSet
175.157226562 -12 m 0x7e
 69.1572265625 -12 6.150390625 39 22.548828125 132 c 0
 40.0048828125 231 121.763671875 275 214.87890625 287 c 2
 415.111328125 311 l 1
 436.09375 430 399.734375 479 306.734375 479 c 0
 224.734375 479 167.798828125 434 143.162109375 368 c 1
 74.2197265625 374 l 1
 111.028320312 475 201.842773438 542 315.842773438 542 c 0
 406.842773438 542 464.670898438 507 483.328125 437 c 1
 533.7890625 502 606.842773438 542 693.842773438 542 c 0
 835.842773438 542 904.623046875 433 875.352539062 267 c 2
 871.649414062 246 l 1
 475.649414062 246 l 1
 458.432617188 120 510.265625 51 611.265625 51 c 0
 688.265625 51 745.495117188 92 775.250976562 153 c 1
 845.370117188 148 l 1
 801.794921875 54 710.157226562 -12 600.157226562 -12 c 0
 500.157226562 -12 436.150390625 39 413.432617188 120 c 1
 364.973632812 38 274.157226562 -12 175.157226562 -12 c 0x7e
486.052734375 305 m 1
 810.052734375 305 l 1
 822.978515625 418 774.734375 479 682.734375 479 c 0
 590.734375 479 517.625 416 486.052734375 305 c 1
200.560546875 47 m 0
 299.08984375 50 380.55078125 115 398.006835938 214 c 2
 404.883789062 253 l 1
 219.004882812 231 l 2
 134.241210938 221 100.893554688 185 92.6064453125 138 c 0xbe
 81.8505859375 77 120.208007812 45 200.560546875 47 c 0
EndSplineSet
Validated: 524321
EndChar

StartChar: b
Encoding: 98 98 183
Width: 587
GlyphClass: 2
Flags: HMW
HStem: -12 63<275 361 261.5 384.5> 0 21G<82 140 82 82> 479 63<275.5 361.5> 690 20G<82 148 148 148>
VStem: 82 59.5 82 66<200.5 330 437 710> 471 70<199.5 331>
AnchorPoint: "Anchor-3" 325.915 530 basechar 0
AnchorPoint: "Anchor-1" 133.188 265 basechar 0
AnchorPoint: "Anchor-0" 232.462 0 basechar 0
LayerCount: 2
Fore
SplineSet
251.345703125 -12 m 0xb6
 171.345703125 -12 116.104492188 32 98.7421875 98 c 1
 78.4619140625 0 l 1x7a
 20.4619140625 0 l 1x76
 145.654296875 710 l 1
 211.654296875 710 l 1
 163.516601562 437 l 1
 199.567382812 494 270.03125 542 349.03125 542 c 0
 488.03125 542 555.98828125 434 526.188476562 265 c 0
 496.212890625 95 390.345703125 -12 251.345703125 -12 c 0xb6
259.454101562 51 m 0
 357.454101562 51 433.08984375 134 456.188476562 265 c 0
 479.463867188 397 432.922851562 479 335.922851562 479 c 0
 233.922851562 479 156.111328125 395 133.188476562 265 c 0xb6
 110.442382812 136 158.454101562 51 259.454101562 51 c 0
EndSplineSet
Validated: 524321
EndChar

StartChar: c
Encoding: 99 99 184
Width: 541
GlyphClass: 2
Flags: HMW
HStem: -12 63<230.5 323.5 230.5 343.5> 479 63<230.5 323.5>
VStem: 46 69<198.5 331.5 198.5 346>
AnchorPoint: "Anchor-3" 329.727 530 basechar 0
AnchorPoint: "Anchor-0" 236.273 0 basechar 0
LayerCount: 2
Fore
SplineSet
234.157226562 -12 m 0
 85.1572265625 -12 17.4345703125 103 46 265 c 0
 74.5654296875 427 182.842773438 542 331.842773438 542 c 0
 452.842773438 542 519.5 472 520.750976562 360 c 1
 451.045898438 356 l 1
 448.798828125 434 401.734375 479 320.734375 479 c 0
 215.734375 479 138.451171875 398 115 265 c 0
 91.548828125 132 140.265625 51 245.265625 51 c 0
 326.265625 51 391.553710938 98 421.893554688 185 c 1
 490.01171875 180 l 1
 449.734375 65 355.157226562 -12 234.157226562 -12 c 0
EndSplineSet
Validated: 524321
EndChar

